<mxfile host="app.diagrams.net" modified="2021-11-17T08:00:59.242Z" agent="5.0 (Macintosh; Intel Mac OS X 10_15_7) AppleWebKit/537.36 (KHTML, like Gecko) Chrome/95.0.4638.69 Safari/537.36" etag="W9iWwRIahAP4sl7CpRow" version="15.7.4" type="github">
  <diagram id="Jb7FGEpXRoXuC_CW7j2I" name="第 1 页">
    <mxGraphModel dx="1350" dy="738" grid="1" gridSize="10" guides="1" tooltips="1" connect="1" arrows="1" fold="1" page="1" pageScale="1" pageWidth="3300" pageHeight="4681" math="0" shadow="0">
      <root>
        <mxCell id="0" />
        <mxCell id="1" parent="0" />
        <mxCell id="WbOLNXkEZ9ARh_T5q9lp-2" value="" style="shape=image;verticalLabelPosition=bottom;labelBackgroundColor=#ffffff;verticalAlign=top;aspect=fixed;imageAspect=0;image=data:image/svg+xml,PHN2ZyB4bWxucz0iaHR0cDovL3d3dy53My5vcmcvMjAwMC9zdmciIHhtbG5zOnhsaW5rPSJodHRwOi8vd3d3LnczLm9yZy8xOTk5L3hsaW5rIiBjb250ZW50c2NyaXB0dHlwZT0iYXBwbGljYXRpb24vZWNtYXNjcmlwdCIgY29udGVudHN0eWxldHlwZT0idGV4dC9jc3MiIGhlaWdodD0iMjUzNi41MDM5MDYyNSIgcHJlc2VydmVBc3BlY3RSYXRpbz0ibm9uZSIgc3R5bGU9IndpZHRoOjIzOTBweDtoZWlnaHQ6MjU1NXB4O2JhY2tncm91bmQ6I0ZGRkZGRjsiIHZlcnNpb249IjEuMSIgdmlld0JveD0iNSA1IDIzNzEgMjUzNi41MDM5MDYyNSIgd2lkdGg9IjIzNzEiIHpvb21BbmRQYW49Im1hZ25pZnkiPjxkZWZzPjxmaWx0ZXIgaGVpZ2h0PSIzMDAlIiBpZD0iZjFjanJ0bDc4OHk2ZXkiIHdpZHRoPSIzMDAlIiB4PSItMSIgeT0iLTEiPjxmZUdhdXNzaWFuQmx1ciByZXN1bHQ9ImJsdXJPdXQiIHN0ZERldmlhdGlvbj0iMi4wIi8+PGZlQ29sb3JNYXRyaXggaW49ImJsdXJPdXQiIHJlc3VsdD0iYmx1ck91dDIiIHR5cGU9Im1hdHJpeCIgdmFsdWVzPSIwIDAgMCAwIDAgMCAwIDAgMCAwIDAgMCAwIDAgMCAwIDAgMCAuNCAwIi8+PGZlT2Zmc2V0IGR4PSI0LjAiIGR5PSI0LjAiIGluPSJibHVyT3V0MiIgcmVzdWx0PSJibHVyT3V0MyIvPjxmZUJsZW5kIGluPSJTb3VyY2VHcmFwaGljIiBpbjI9ImJsdXJPdXQzIiBtb2RlPSJub3JtYWwiLz48L2ZpbHRlcj48L2RlZnM+PGc+PHJlY3QgZmlsbD0iI0ZGRkZGRiIgZmlsdGVyPSJ1cmwoI2YxY2pydGw3ODh5NmV5KSIgaGVpZ2h0PSIyNDIyLjIxNjgiIHN0eWxlPSJzdHJva2U6I0E4MDAzNjtzdHJva2Utd2lkdGg6MS4wOyIgd2lkdGg9IjEwIiB4PSIyMDAuNSIgeT0iNzEuNzk4OCIvPjxyZWN0IGZpbGw9IiNGRkZGRkYiIGZpbHRlcj0idXJsKCNmMWNqcnRsNzg4eTZleSkiIGhlaWdodD0iMjUiIHN0eWxlPSJzdHJva2U6I0E4MDAzNjtzdHJva2Utd2lkdGg6MS4wOyIgd2lkdGg9IjEwIiB4PSIyMDUuNSIgeT0iNTQyLjIxNDgiLz48cmVjdCBmaWxsPSIjRkZGRkZGIiBmaWx0ZXI9InVybCgjZjFjanJ0bDc4OHk2ZXkpIiBoZWlnaHQ9IjM1NC4xNzM4IiBzdHlsZT0ic3Ryb2tlOiNBODAwMzY7c3Ryb2tlLXdpZHRoOjEuMDsiIHdpZHRoPSIxMCIgeD0iMjA1LjUiIHk9IjE3MjAuMzU3NCIvPjxyZWN0IGZpbGw9IiNGRkZGRkYiIGZpbHRlcj0idXJsKCNmMWNqcnRsNzg4eTZleSkiIGhlaWdodD0iMTg3LjI0MjIiIHN0eWxlPSJzdHJva2U6I0E4MDAzNjtzdHJva2Utd2lkdGg6MS4wOyIgd2lkdGg9IjEwIiB4PSI0MzQuNSIgeT0iMTAxLjEwOTQiLz48cmVjdCBmaWxsPSIjRkZGRkZGIiBmaWx0ZXI9InVybCgjZjFjanJ0bDc4OHk2ZXkpIiBoZWlnaHQ9IjQ4MS43OTQ5IiBzdHlsZT0ic3Ryb2tlOiNBODAwMzY7c3Ryb2tlLXdpZHRoOjEuMDsiIHdpZHRoPSIxMCIgeD0iNDM0LjUiIHk9IjY0Ni44MzU5Ii8+PHJlY3QgZmlsbD0iI0ZGRkZGRiIgZmlsdGVyPSJ1cmwoI2YxY2pydGw3ODh5NmV5KSIgaGVpZ2h0PSI1MjUuMTA1NSIgc3R5bGU9InN0cm9rZTojQTgwMDM2O3N0cm9rZS13aWR0aDoxLjA7IiB3aWR0aD0iMTAiIHg9IjQzNC41IiB5PSIxMTU3Ljk0MTQiLz48cmVjdCBmaWxsPSIjRkZGRkZGIiBmaWx0ZXI9InVybCgjZjFjanJ0bDc4OHk2ZXkpIiBoZWlnaHQ9IjE0My45MzE2IiBzdHlsZT0ic3Ryb2tlOiNBODAwMzY7c3Ryb2tlLXdpZHRoOjEuMDsiIHdpZHRoPSIxMCIgeD0iNjcwLjUiIHk9IjEzMC40MTk5Ii8+PHJlY3QgZmlsbD0iI0ZGRkZGRiIgZmlsdGVyPSJ1cmwoI2YxY2pydGw3ODh5NmV5KSIgaGVpZ2h0PSI0MzguNDg0NCIgc3R5bGU9InN0cm9rZTojQTgwMDM2O3N0cm9rZS13aWR0aDoxLjA7IiB3aWR0aD0iMTAiIHg9IjY3MC41IiB5PSI2NzYuMTQ2NSIvPjxyZWN0IGZpbGw9IiNGRkZGRkYiIGZpbHRlcj0idXJsKCNmMWNqcnRsNzg4eTZleSkiIGhlaWdodD0iMjUiIHN0eWxlPSJzdHJva2U6I0E4MDAzNjtzdHJva2Utd2lkdGg6MS4wOyIgd2lkdGg9IjEwIiB4PSI2NzUuNSIgeT0iODAwLjA3ODEiLz48cmVjdCBmaWxsPSIjRkZGRkZGIiBmaWx0ZXI9InVybCgjZjFjanJ0bDc4OHk2ZXkpIiBoZWlnaHQ9IjI1IiBzdHlsZT0ic3Ryb2tlOiNBODAwMzY7c3Ryb2tlLXdpZHRoOjEuMDsiIHdpZHRoPSIxMCIgeD0iNjc1LjUiIHk9IjkxMi42OTkyIi8+PHJlY3QgZmlsbD0iI0ZGRkZGRiIgZmlsdGVyPSJ1cmwoI2YxY2pydGw3ODh5NmV5KSIgaGVpZ2h0PSIyNSIgc3R5bGU9InN0cm9rZTojQTgwMDM2O3N0cm9rZS13aWR0aDoxLjA7IiB3aWR0aD0iMTAiIHg9IjY3NS41IiB5PSIxMDI1LjMyMDMiLz48cmVjdCBmaWxsPSIjRkZGRkZGIiBmaWx0ZXI9InVybCgjZjFjanJ0bDc4OHk2ZXkpIiBoZWlnaHQ9IjQ4MS43OTQ5IiBzdHlsZT0ic3Ryb2tlOiNBODAwMzY7c3Ryb2tlLXdpZHRoOjEuMDsiIHdpZHRoPSIxMCIgeD0iNjcwLjUiIHk9IjExODcuMjUyIi8+PHJlY3QgZmlsbD0iI0ZGRkZGRiIgZmlsdGVyPSJ1cmwoI2YxY2pydGw3ODh5NmV5KSIgaGVpZ2h0PSIxMTEuNjIxMSIgc3R5bGU9InN0cm9rZTojQTgwMDM2O3N0cm9rZS13aWR0aDoxLjA7IiB3aWR0aD0iMTAiIHg9IjY3NS41IiB5PSIxMjI0LjU2MjUiLz48cmVjdCBmaWxsPSIjRkZGRkZGIiBmaWx0ZXI9InVybCgjZjFjanJ0bDc4OHk2ZXkpIiBoZWlnaHQ9IjExMS42MjExIiBzdHlsZT0ic3Ryb2tlOiNBODAwMzY7c3Ryb2tlLXdpZHRoOjEuMDsiIHdpZHRoPSIxMCIgeD0iNjc1LjUiIHk9IjEzODAuNDk0MSIvPjxyZWN0IGZpbGw9IiNGRkZGRkYiIGZpbHRlcj0idXJsKCNmMWNqcnRsNzg4eTZleSkiIGhlaWdodD0iMTExLjYyMTEiIHN0eWxlPSJzdHJva2U6I0E4MDAzNjtzdHJva2Utd2lkdGg6MS4wOyIgd2lkdGg9IjEwIiB4PSI2NzUuNSIgeT0iMTUzNi40MjU4Ii8+PHJlY3QgZmlsbD0iI0ZGRkZGRiIgZmlsdGVyPSJ1cmwoI2YxY2pydGw3ODh5NmV5KSIgaGVpZ2h0PSIxNCIgc3R5bGU9InN0cm9rZTojQTgwMDM2O3N0cm9rZS13aWR0aDoxLjA7IiB3aWR0aD0iMTAiIHg9IjkwMi41IiB5PSIxNTkuNzMwNSIvPjxyZWN0IGZpbGw9IiNGRkZGRkYiIGZpbHRlcj0idXJsKCNmMWNqcnRsNzg4eTZleSkiIGhlaWdodD0iMTQiIHN0eWxlPSJzdHJva2U6I0E4MDAzNjtzdHJva2Utd2lkdGg6MS4wOyIgd2lkdGg9IjEwIiB4PSI5MDIuNSIgeT0iMjAzLjA0MSIvPjxyZWN0IGZpbGw9IiNGRkZGRkYiIGZpbHRlcj0idXJsKCNmMWNqcnRsNzg4eTZleSkiIGhlaWdodD0iMTQiIHN0eWxlPSJzdHJva2U6I0E4MDAzNjtzdHJva2Utd2lkdGg6MS4wOyIgd2lkdGg9IjEwIiB4PSI5MDIuNSIgeT0iMjQ2LjM1MTYiLz48cmVjdCBmaWxsPSIjRkZGRkZGIiBmaWx0ZXI9InVybCgjZjFjanJ0bDc4OHk2ZXkpIiBoZWlnaHQ9IjE0IiBzdHlsZT0ic3Ryb2tlOiNBODAwMzY7c3Ryb2tlLXdpZHRoOjEuMDsiIHdpZHRoPSIxMCIgeD0iOTAyLjUiIHk9IjQ5MC45MDQzIi8+PHJlY3QgZmlsbD0iI0ZGRkZGRiIgZmlsdGVyPSJ1cmwoI2YxY2pydGw3ODh5NmV5KSIgaGVpZ2h0PSIxNCIgc3R5bGU9InN0cm9rZTojQTgwMDM2O3N0cm9rZS13aWR0aDoxLjA7IiB3aWR0aD0iMTAiIHg9IjkwMi41IiB5PSI2MDMuNTI1NCIvPjxyZWN0IGZpbGw9IiNGRkZGRkYiIGZpbHRlcj0idXJsKCNmMWNqcnRsNzg4eTZleSkiIGhlaWdodD0iMTQiIHN0eWxlPSJzdHJva2U6I0E4MDAzNjtzdHJva2Utd2lkdGg6MS4wOyIgd2lkdGg9IjEwIiB4PSI5MDIuNSIgeT0iNzA1LjQ1NyIvPjxyZWN0IGZpbGw9IiNGRkZGRkYiIGZpbHRlcj0idXJsKCNmMWNqcnRsNzg4eTZleSkiIGhlaWdodD0iMTQiIHN0eWxlPSJzdHJva2U6I0E4MDAzNjtzdHJva2Utd2lkdGg6MS4wOyIgd2lkdGg9IjEwIiB4PSI5MDIuNSIgeT0iNzQ4Ljc2NzYiLz48cmVjdCBmaWxsPSIjRkZGRkZGIiBmaWx0ZXI9InVybCgjZjFjanJ0bDc4OHk2ZXkpIiBoZWlnaHQ9IjE0IiBzdHlsZT0ic3Ryb2tlOiNBODAwMzY7c3Ryb2tlLXdpZHRoOjEuMDsiIHdpZHRoPSIxMCIgeD0iOTAyLjUiIHk9Ijg2MS4zODg3Ii8+PHJlY3QgZmlsbD0iI0ZGRkZGRiIgZmlsdGVyPSJ1cmwoI2YxY2pydGw3ODh5NmV5KSIgaGVpZ2h0PSIxNCIgc3R5bGU9InN0cm9rZTojQTgwMDM2O3N0cm9rZS13aWR0aDoxLjA7IiB3aWR0aD0iMTAiIHg9IjkwMi41IiB5PSI5NzQuMDA5OCIvPjxyZWN0IGZpbGw9IiNGRkZGRkYiIGZpbHRlcj0idXJsKCNmMWNqcnRsNzg4eTZleSkiIGhlaWdodD0iMTQiIHN0eWxlPSJzdHJva2U6I0E4MDAzNjtzdHJva2Utd2lkdGg6MS4wOyIgd2lkdGg9IjEwIiB4PSI5MDIuNSIgeT0iMTA4Ni42MzA5Ii8+PHJlY3QgZmlsbD0iI0ZGRkZGRiIgZmlsdGVyPSJ1cmwoI2YxY2pydGw3ODh5NmV5KSIgaGVpZ2h0PSIxNCIgc3R5bGU9InN0cm9rZTojQTgwMDM2O3N0cm9rZS13aWR0aDoxLjA7IiB3aWR0aD0iMTAiIHg9IjkwMi41IiB5PSIxMjU4Ljg3MyIvPjxyZWN0IGZpbGw9IiNGRkZGRkYiIGZpbHRlcj0idXJsKCNmMWNqcnRsNzg4eTZleSkiIGhlaWdodD0iMTQiIHN0eWxlPSJzdHJva2U6I0E4MDAzNjtzdHJva2Utd2lkdGg6MS4wOyIgd2lkdGg9IjEwIiB4PSI5MDIuNSIgeT0iMTMwMi4xODM2Ii8+PHJlY3QgZmlsbD0iI0ZGRkZGRiIgZmlsdGVyPSJ1cmwoI2YxY2pydGw3ODh5NmV5KSIgaGVpZ2h0PSIxNCIgc3R5bGU9InN0cm9rZTojQTgwMDM2O3N0cm9rZS13aWR0aDoxLjA7IiB3aWR0aD0iMTAiIHg9IjkwMi41IiB5PSIxNDE0LjgwNDciLz48cmVjdCBmaWxsPSIjRkZGRkZGIiBmaWx0ZXI9InVybCgjZjFjanJ0bDc4OHk2ZXkpIiBoZWlnaHQ9IjE0IiBzdHlsZT0ic3Ryb2tlOiNBODAwMzY7c3Ryb2tlLXdpZHRoOjEuMDsiIHdpZHRoPSIxMCIgeD0iOTAyLjUiIHk9IjE0NTguMTE1MiIvPjxyZWN0IGZpbGw9IiNGRkZGRkYiIGZpbHRlcj0idXJsKCNmMWNqcnRsNzg4eTZleSkiIGhlaWdodD0iMTQiIHN0eWxlPSJzdHJva2U6I0E4MDAzNjtzdHJva2Utd2lkdGg6MS4wOyIgd2lkdGg9IjEwIiB4PSI5MDIuNSIgeT0iMTU3MC43MzYzIi8+PHJlY3QgZmlsbD0iI0ZGRkZGRiIgZmlsdGVyPSJ1cmwoI2YxY2pydGw3ODh5NmV5KSIgaGVpZ2h0PSIxNCIgc3R5bGU9InN0cm9rZTojQTgwMDM2O3N0cm9rZS13aWR0aDoxLjA7IiB3aWR0aD0iMTAiIHg9IjkwMi41IiB5PSIxNjE0LjA0NjkiLz48cmVjdCBmaWxsPSIjRkZGRkZGIiBmaWx0ZXI9InVybCgjZjFjanJ0bDc4OHk2ZXkpIiBoZWlnaHQ9IjEwMC42MjExIiBzdHlsZT0ic3Ryb2tlOiNBODAwMzY7c3Ryb2tlLXdpZHRoOjEuMDsiIHdpZHRoPSIxMCIgeD0iMTA5Mi41IiB5PSIzMTcuNjYyMSIvPjxyZWN0IGZpbGw9IiNGRkZGRkYiIGZpbHRlcj0idXJsKCNmMWNqcnRsNzg4eTZleSkiIGhlaWdodD0iMjk5Ljg2MzMiIHN0eWxlPSJzdHJva2U6I0E4MDAzNjtzdHJva2Utd2lkdGg6MS4wOyIgd2lkdGg9IjEwIiB4PSIxMDkyLjUiIHk9IjE3NTQuNjY4Ii8+PHJlY3QgZmlsbD0iI0ZGRkZGRiIgZmlsdGVyPSJ1cmwoI2YxY2pydGw3ODh5NmV5KSIgaGVpZ2h0PSIxNDMuOTMxNiIgc3R5bGU9InN0cm9rZTojQTgwMDM2O3N0cm9rZS13aWR0aDoxLjA7IiB3aWR0aD0iMTAiIHg9IjEwOTIuNSIgeT0iMjExMC44NDE4Ii8+PHJlY3QgZmlsbD0iI0ZGRkZGRiIgZmlsdGVyPSJ1cmwoI2YxY2pydGw3ODh5NmV5KSIgaGVpZ2h0PSI1Ny4zMTA1IiBzdHlsZT0ic3Ryb2tlOiNBODAwMzY7c3Ryb2tlLXdpZHRoOjEuMDsiIHdpZHRoPSIxMCIgeD0iMTMwNS41IiB5PSIzNDYuOTcyNyIvPjxyZWN0IGZpbGw9IiNGRkZGRkYiIGZpbHRlcj0idXJsKCNmMWNqcnRsNzg4eTZleSkiIGhlaWdodD0iMjU2LjU1MjciIHN0eWxlPSJzdHJva2U6I0E4MDAzNjtzdHJva2Utd2lkdGg6MS4wOyIgd2lkdGg9IjEwIiB4PSIxMzA1LjUiIHk9IjE3ODMuOTc4NSIvPjxyZWN0IGZpbGw9IiNGRkZGRkYiIGZpbHRlcj0idXJsKCNmMWNqcnRsNzg4eTZleSkiIGhlaWdodD0iNjguMzEwNSIgc3R5bGU9InN0cm9rZTojQTgwMDM2O3N0cm9rZS13aWR0aDoxLjA7IiB3aWR0aD0iMTAiIHg9IjEzMTAuNSIgeT0iMTgyMS4yODkxIi8+PHJlY3QgZmlsbD0iI0ZGRkZGRiIgZmlsdGVyPSJ1cmwoI2YxY2pydGw3ODh5NmV5KSIgaGVpZ2h0PSIxMDAuNjIxMSIgc3R5bGU9InN0cm9rZTojQTgwMDM2O3N0cm9rZS13aWR0aDoxLjA7IiB3aWR0aD0iMTAiIHg9IjEzMDUuNSIgeT0iMjE0MC4xNTIzIi8+PHJlY3QgZmlsbD0iI0ZGRkZGRiIgZmlsdGVyPSJ1cmwoI2YxY2pydGw3ODh5NmV5KSIgaGVpZ2h0PSIxNCIgc3R5bGU9InN0cm9rZTojQTgwMDM2O3N0cm9rZS13aWR0aDoxLjA7IiB3aWR0aD0iMTAiIHg9IjE1MTUuNSIgeT0iMzc2LjI4MzIiLz48cmVjdCBmaWxsPSIjRkZGRkZGIiBmaWx0ZXI9InVybCgjZjFjanJ0bDc4OHk2ZXkpIiBoZWlnaHQ9IjE0IiBzdHlsZT0ic3Ryb2tlOiNBODAwMzY7c3Ryb2tlLXdpZHRoOjEuMDsiIHdpZHRoPSIxMCIgeD0iMTUxNS41IiB5PSIyMTY5LjQ2MjkiLz48cmVjdCBmaWxsPSIjRkZGRkZGIiBmaWx0ZXI9InVybCgjZjFjanJ0bDc4OHk2ZXkpIiBoZWlnaHQ9IjE0IiBzdHlsZT0ic3Ryb2tlOiNBODAwMzY7c3Ryb2tlLXdpZHRoOjEuMDsiIHdpZHRoPSIxMCIgeD0iMTUxNS41IiB5PSIyMjEyLjc3MzQiLz48cmVjdCBmaWxsPSIjRkZGRkZGIiBmaWx0ZXI9InVybCgjZjFjanJ0bDc4OHk2ZXkpIiBoZWlnaHQ9IjE0IiBzdHlsZT0ic3Ryb2tlOiNBODAwMzY7c3Ryb2tlLXdpZHRoOjEuMDsiIHdpZHRoPSIxMCIgeD0iMTUxNS41IiB5PSIyMzEzLjM5NDUiLz48cmVjdCBmaWxsPSIjRkZGRkZGIiBmaWx0ZXI9InVybCgjZjFjanJ0bDc4OHk2ZXkpIiBoZWlnaHQ9IjE0IiBzdHlsZT0ic3Ryb2tlOiNBODAwMzY7c3Ryb2tlLXdpZHRoOjEuMDsiIHdpZHRoPSIxMCIgeD0iMTYyOS41IiB5PSI0NDcuNTkzOCIvPjxyZWN0IGZpbGw9IiNGRkZGRkYiIGZpbHRlcj0idXJsKCNmMWNqcnRsNzg4eTZleSkiIGhlaWdodD0iMTQiIHN0eWxlPSJzdHJva2U6I0E4MDAzNjtzdHJva2Utd2lkdGg6MS4wOyIgd2lkdGg9IjEwIiB4PSIxNzI0LjUiIHk9IjE4NTUuNTk5NiIvPjxyZWN0IGZpbGw9IiNGRkZGRkYiIGZpbHRlcj0idXJsKCNmMWNqcnRsNzg4eTZleSkiIGhlaWdodD0iMTQiIHN0eWxlPSJzdHJva2U6I0E4MDAzNjtzdHJva2Utd2lkdGg6MS4wOyIgd2lkdGg9IjEwIiB4PSIxODUyLjUiIHk9IjE5MjUuOTEwMiIvPjxyZWN0IGZpbGw9IiNGRkZGRkYiIGZpbHRlcj0idXJsKCNmMWNqcnRsNzg4eTZleSkiIGhlaWdodD0iMTQiIHN0eWxlPSJzdHJva2U6I0E4MDAzNjtzdHJva2Utd2lkdGg6MS4wOyIgd2lkdGg9IjEwIiB4PSIxOTcxLjUiIHk9IjE5NjkuMjIwNyIvPjxyZWN0IGZpbGw9IiNGRkZGRkYiIGZpbHRlcj0idXJsKCNmMWNqcnRsNzg4eTZleSkiIGhlaWdodD0iMTQiIHN0eWxlPSJzdHJva2U6I0E4MDAzNjtzdHJva2Utd2lkdGg6MS4wOyIgd2lkdGg9IjEwIiB4PSIyMDkyIiB5PSIyMDEyLjUzMTMiLz48cmVjdCBmaWxsPSIjRkZGRkZGIiBmaWx0ZXI9InVybCgjZjFjanJ0bDc4OHk2ZXkpIiBoZWlnaHQ9IjE5NS45MzE2IiBzdHlsZT0ic3Ryb2tlOiNBODAwMzY7c3Ryb2tlLXdpZHRoOjEuMDsiIHdpZHRoPSIxMCIgeD0iMjI3NC41IiB5PSIyMjg0LjA4NCIvPjxyZWN0IGZpbGw9IiNGRkZGRkYiIGZpbHRlcj0idXJsKCNmMWNqcnRsNzg4eTZleSkiIGhlaWdodD0iMjUiIHN0eWxlPSJzdHJva2U6I0E4MDAzNjtzdHJva2Utd2lkdGg6MS4wOyIgd2lkdGg9IjEwIiB4PSIyMjc5LjUiIHk9IjIzNjQuNzA1MSIvPjxyZWN0IGZpbGw9IiNGRkZGRkYiIGZpbHRlcj0idXJsKCNmMWNqcnRsNzg4eTZleSkiIGhlaWdodD0iMjUiIHN0eWxlPSJzdHJva2U6I0E4MDAzNjtzdHJva2Utd2lkdGg6MS4wOyIgd2lkdGg9IjEwIiB4PSIyMjc5LjUiIHk9IjI0MzQuMDE1NiIvPjxsaW5lIHN0eWxlPSJzdHJva2U6I0E4MDAzNjtzdHJva2Utd2lkdGg6MS4wO3N0cm9rZS1kYXNoYXJyYXk6NS4wLDUuMDsiIHgxPSIzMiIgeDI9IjMyIiB5MT0iNDAuNDg4MyIgeTI9IjI1MTIuMDE1NiIvPjxsaW5lIHN0eWxlPSJzdHJva2U6I0E4MDAzNjtzdHJva2Utd2lkdGg6MS4wO3N0cm9rZS1kYXNoYXJyYXk6NS4wLDUuMDsiIHgxPSIyMDUuNSIgeDI9IjIwNS41IiB5MT0iNDAuNDg4MyIgeTI9IjI1MTIuMDE1NiIvPjxsaW5lIHN0eWxlPSJzdHJva2U6I0E4MDAzNjtzdHJva2Utd2lkdGg6MS4wO3N0cm9rZS1kYXNoYXJyYXk6NS4wLDUuMDsiIHgxPSI0MzkiIHgyPSI0MzkiIHkxPSI0MC40ODgzIiB5Mj0iMjUxMi4wMTU2Ii8+PGxpbmUgc3R5bGU9InN0cm9rZTojQTgwMDM2O3N0cm9rZS13aWR0aDoxLjA7c3Ryb2tlLWRhc2hhcnJheTo1LjAsNS4wOyIgeDE9IjY3NSIgeDI9IjY3NSIgeTE9IjQwLjQ4ODMiIHkyPSIyNTEyLjAxNTYiLz48bGluZSBzdHlsZT0ic3Ryb2tlOiNBODAwMzY7c3Ryb2tlLXdpZHRoOjEuMDtzdHJva2UtZGFzaGFycmF5OjUuMCw1LjA7IiB4MT0iOTA3LjUiIHgyPSI5MDcuNSIgeTE9IjQwLjQ4ODMiIHkyPSIyNTEyLjAxNTYiLz48bGluZSBzdHlsZT0ic3Ryb2tlOiNBODAwMzY7c3Ryb2tlLXdpZHRoOjEuMDtzdHJva2UtZGFzaGFycmF5OjUuMCw1LjA7IiB4MT0iMTA5Ny41IiB4Mj0iMTA5Ny41IiB5MT0iNDAuNDg4MyIgeTI9IjI1MTIuMDE1NiIvPjxsaW5lIHN0eWxlPSJzdHJva2U6I0E4MDAzNjtzdHJva2Utd2lkdGg6MS4wO3N0cm9rZS1kYXNoYXJyYXk6NS4wLDUuMDsiIHgxPSIxMzEwLjUiIHgyPSIxMzEwLjUiIHkxPSI0MC40ODgzIiB5Mj0iMjUxMi4wMTU2Ii8+PGxpbmUgc3R5bGU9InN0cm9rZTojQTgwMDM2O3N0cm9rZS13aWR0aDoxLjA7c3Ryb2tlLWRhc2hhcnJheTo1LjAsNS4wOyIgeDE9IjE1MjAiIHgyPSIxNTIwIiB5MT0iNDAuNDg4MyIgeTI9IjI1MTIuMDE1NiIvPjxsaW5lIHN0eWxlPSJzdHJva2U6I0E4MDAzNjtzdHJva2Utd2lkdGg6MS4wO3N0cm9rZS1kYXNoYXJyYXk6NS4wLDUuMDsiIHgxPSIxNjM0IiB4Mj0iMTYzNCIgeTE9IjQwLjQ4ODMiIHkyPSIyNTEyLjAxNTYiLz48bGluZSBzdHlsZT0ic3Ryb2tlOiNBODAwMzY7c3Ryb2tlLXdpZHRoOjEuMDtzdHJva2UtZGFzaGFycmF5OjUuMCw1LjA7IiB4MT0iMTcyOSIgeDI9IjE3MjkiIHkxPSI0MC40ODgzIiB5Mj0iMjUxMi4wMTU2Ii8+PGxpbmUgc3R5bGU9InN0cm9rZTojQTgwMDM2O3N0cm9rZS13aWR0aDoxLjA7c3Ryb2tlLWRhc2hhcnJheTo1LjAsNS4wOyIgeDE9IjE4NTciIHgyPSIxODU3IiB5MT0iNDAuNDg4MyIgeTI9IjI1MTIuMDE1NiIvPjxsaW5lIHN0eWxlPSJzdHJva2U6I0E4MDAzNjtzdHJva2Utd2lkdGg6MS4wO3N0cm9rZS1kYXNoYXJyYXk6NS4wLDUuMDsiIHgxPSIxOTc2IiB4Mj0iMTk3NiIgeTE9IjQwLjQ4ODMiIHkyPSIyNTEyLjAxNTYiLz48bGluZSBzdHlsZT0ic3Ryb2tlOiNBODAwMzY7c3Ryb2tlLXdpZHRoOjEuMDtzdHJva2UtZGFzaGFycmF5OjUuMCw1LjA7IiB4MT0iMjA5NyIgeDI9IjIwOTciIHkxPSI0MC40ODgzIiB5Mj0iMjUxMi4wMTU2Ii8+PGxpbmUgc3R5bGU9InN0cm9rZTojQTgwMDM2O3N0cm9rZS13aWR0aDoxLjA7c3Ryb2tlLWRhc2hhcnJheTo1LjAsNS4wOyIgeDE9IjIyNzkiIHgyPSIyMjc5IiB5MT0iNDAuNDg4MyIgeTI9IjI1MTIuMDE1NiIvPjxyZWN0IGZpbGw9IiNGRUZFQ0UiIGZpbHRlcj0idXJsKCNmMWNqcnRsNzg4eTZleSkiIGhlaWdodD0iMzAuNDg4MyIgc3R5bGU9InN0cm9rZTojQTgwMDM2O3N0cm9rZS13aWR0aDoxLjU7IiB3aWR0aD0iNTEiIHg9IjUiIHk9IjUiLz48dGV4dCBmaWxsPSIjMDAwMDAwIiBmb250LWZhbWlseT0ic2Fucy1zZXJpZiIgZm9udC1zaXplPSIxNCIgbGVuZ3RoQWRqdXN0PSJzcGFjaW5nIiB0ZXh0TGVuZ3RoPSIzNyIgeD0iMTIiIHk9IjI1LjUzNTIiPkFjdG9yPC90ZXh0PjxyZWN0IGZpbGw9IiNGRUZFQ0UiIGZpbHRlcj0idXJsKCNmMWNqcnRsNzg4eTZleSkiIGhlaWdodD0iMzAuNDg4MyIgc3R5bGU9InN0cm9rZTojQTgwMDM2O3N0cm9rZS13aWR0aDoxLjU7IiB3aWR0aD0iNTEiIHg9IjUiIHk9IjI1MTEuMDE1NiIvPjx0ZXh0IGZpbGw9IiMwMDAwMDAiIGZvbnQtZmFtaWx5PSJzYW5zLXNlcmlmIiBmb250LXNpemU9IjE0IiBsZW5ndGhBZGp1c3Q9InNwYWNpbmciIHRleHRMZW5ndGg9IjM3IiB4PSIxMiIgeT0iMjUzMS41NTA4Ij5BY3RvcjwvdGV4dD48cmVjdCBmaWxsPSIjRkVGRUNFIiBmaWx0ZXI9InVybCgjZjFjanJ0bDc4OHk2ZXkpIiBoZWlnaHQ9IjMwLjQ4ODMiIHN0eWxlPSJzdHJva2U6I0E4MDAzNjtzdHJva2Utd2lkdGg6MS41OyIgd2lkdGg9IjEzMiIgeD0iMTM3LjUiIHk9IjUiLz48dGV4dCBmaWxsPSIjMDAwMDAwIiBmb250LWZhbWlseT0ic2Fucy1zZXJpZiIgZm9udC1zaXplPSIxNCIgbGVuZ3RoQWRqdXN0PSJzcGFjaW5nIiB0ZXh0TGVuZ3RoPSIxMTgiIHg9IjE0NC41IiB5PSIyNS41MzUyIj5CYW5uZXJDb250cm9sbGVyPC90ZXh0PjxyZWN0IGZpbGw9IiNGRUZFQ0UiIGZpbHRlcj0idXJsKCNmMWNqcnRsNzg4eTZleSkiIGhlaWdodD0iMzAuNDg4MyIgc3R5bGU9InN0cm9rZTojQTgwMDM2O3N0cm9rZS13aWR0aDoxLjU7IiB3aWR0aD0iMTMyIiB4PSIxMzcuNSIgeT0iMjUxMS4wMTU2Ii8+PHRleHQgZmlsbD0iIzAwMDAwMCIgZm9udC1mYW1pbHk9InNhbnMtc2VyaWYiIGZvbnQtc2l6ZT0iMTQiIGxlbmd0aEFkanVzdD0ic3BhY2luZyIgdGV4dExlbmd0aD0iMTE4IiB4PSIxNDQuNSIgeT0iMjUzMS41NTA4Ij5CYW5uZXJDb250cm9sbGVyPC90ZXh0PjxyZWN0IGZpbGw9IiNGRUZFQ0UiIGZpbHRlcj0idXJsKCNmMWNqcnRsNzg4eTZleSkiIGhlaWdodD0iMzAuNDg4MyIgc3R5bGU9InN0cm9rZTojQTgwMDM2O3N0cm9rZS13aWR0aDoxLjU7IiB3aWR0aD0iMjA5IiB4PSIzMzMiIHk9IjUiLz48dGV4dCBmaWxsPSIjMDAwMDAwIiBmb250LWZhbWlseT0ic2Fucy1zZXJpZiIgZm9udC1zaXplPSIxNCIgbGVuZ3RoQWRqdXN0PSJzcGFjaW5nIiB0ZXh0TGVuZ3RoPSIxOTUiIHg9IjM0MCIgeT0iMjUuNTM1MiI+SU10a1Jlc291cmNlVmFsaWRhdGVTZXJ2aWNlPC90ZXh0PjxyZWN0IGZpbGw9IiNGRUZFQ0UiIGZpbHRlcj0idXJsKCNmMWNqcnRsNzg4eTZleSkiIGhlaWdodD0iMzAuNDg4MyIgc3R5bGU9InN0cm9rZTojQTgwMDM2O3N0cm9rZS13aWR0aDoxLjU7IiB3aWR0aD0iMjA5IiB4PSIzMzMiIHk9IjI1MTEuMDE1NiIvPjx0ZXh0IGZpbGw9IiMwMDAwMDAiIGZvbnQtZmFtaWx5PSJzYW5zLXNlcmlmIiBmb250LXNpemU9IjE0IiBsZW5ndGhBZGp1c3Q9InNwYWNpbmciIHRleHRMZW5ndGg9IjE5NSIgeD0iMzQwIiB5PSIyNTMxLjU1MDgiPklNdGtSZXNvdXJjZVZhbGlkYXRlU2VydmljZTwvdGV4dD48cmVjdCBmaWxsPSIjRkVGRUNFIiBmaWx0ZXI9InVybCgjZjFjanJ0bDc4OHk2ZXkpIiBoZWlnaHQ9IjMwLjQ4ODMiIHN0eWxlPSJzdHJva2U6I0E4MDAzNjtzdHJva2Utd2lkdGg6MS41OyIgd2lkdGg9IjIzNSIgeD0iNTU2IiB5PSI1Ii8+PHRleHQgZmlsbD0iIzAwMDAwMCIgZm9udC1mYW1pbHk9InNhbnMtc2VyaWYiIGZvbnQtc2l6ZT0iMTQiIGxlbmd0aEFkanVzdD0ic3BhY2luZyIgdGV4dExlbmd0aD0iMjIxIiB4PSI1NjMiIHk9IjI1LjUzNTIiPk10a1Jlc291cmNlVmFsaWRhdGVTZXJ2aWNlSW1wbDwvdGV4dD48cmVjdCBmaWxsPSIjRkVGRUNFIiBmaWx0ZXI9InVybCgjZjFjanJ0bDc4OHk2ZXkpIiBoZWlnaHQ9IjMwLjQ4ODMiIHN0eWxlPSJzdHJva2U6I0E4MDAzNjtzdHJva2Utd2lkdGg6MS41OyIgd2lkdGg9IjIzNSIgeD0iNTU2IiB5PSIyNTExLjAxNTYiLz48dGV4dCBmaWxsPSIjMDAwMDAwIiBmb250LWZhbWlseT0ic2Fucy1zZXJpZiIgZm9udC1zaXplPSIxNCIgbGVuZ3RoQWRqdXN0PSJzcGFjaW5nIiB0ZXh0TGVuZ3RoPSIyMjEiIHg9IjU2MyIgeT0iMjUzMS41NTA4Ij5NdGtSZXNvdXJjZVZhbGlkYXRlU2VydmljZUltcGw8L3RleHQ+PHJlY3QgZmlsbD0iI0ZFRkVDRSIgZmlsdGVyPSJ1cmwoI2YxY2pydGw3ODh5NmV5KSIgaGVpZ2h0PSIzMC40ODgzIiBzdHlsZT0ic3Ryb2tlOiNBODAwMzY7c3Ryb2tlLXdpZHRoOjEuNTsiIHdpZHRoPSIxNjYiIHg9IjgyMi41IiB5PSI1Ii8+PHRleHQgZmlsbD0iIzAwMDAwMCIgZm9udC1mYW1pbHk9InNhbnMtc2VyaWYiIGZvbnQtc2l6ZT0iMTQiIGxlbmd0aEFkanVzdD0ic3BhY2luZyIgdGV4dExlbmd0aD0iMTUyIiB4PSI4MjkuNSIgeT0iMjUuNTM1MiI+SWxsZWdhbFBhcmFtRXhjZXB0aW9uPC90ZXh0PjxyZWN0IGZpbGw9IiNGRUZFQ0UiIGZpbHRlcj0idXJsKCNmMWNqcnRsNzg4eTZleSkiIGhlaWdodD0iMzAuNDg4MyIgc3R5bGU9InN0cm9rZTojQTgwMDM2O3N0cm9rZS13aWR0aDoxLjU7IiB3aWR0aD0iMTY2IiB4PSI4MjIuNSIgeT0iMjUxMS4wMTU2Ii8+PHRleHQgZmlsbD0iIzAwMDAwMCIgZm9udC1mYW1pbHk9InNhbnMtc2VyaWYiIGZvbnQtc2l6ZT0iMTQiIGxlbmd0aEFkanVzdD0ic3BhY2luZyIgdGV4dExlbmd0aD0iMTUyIiB4PSI4MjkuNSIgeT0iMjUzMS41NTA4Ij5JbGxlZ2FsUGFyYW1FeGNlcHRpb248L3RleHQ+PHJlY3QgZmlsbD0iI0ZFRkVDRSIgZmlsdGVyPSJ1cmwoI2YxY2pydGw3ODh5NmV5KSIgaGVpZ2h0PSIzMC40ODgzIiBzdHlsZT0ic3Ryb2tlOiNBODAwMzY7c3Ryb2tlLXdpZHRoOjEuNTsiIHdpZHRoPSIxODYiIHg9IjEwMDIuNSIgeT0iNSIvPjx0ZXh0IGZpbGw9IiMwMDAwMDAiIGZvbnQtZmFtaWx5PSJzYW5zLXNlcmlmIiBmb250LXNpemU9IjE0IiBsZW5ndGhBZGp1c3Q9InNwYWNpbmciIHRleHRMZW5ndGg9IjE3MiIgeD0iMTAwOS41IiB5PSIyNS41MzUyIj5JQmFja2VuZFJlc291cmNlU2VydmljZTwvdGV4dD48cmVjdCBmaWxsPSIjRkVGRUNFIiBmaWx0ZXI9InVybCgjZjFjanJ0bDc4OHk2ZXkpIiBoZWlnaHQ9IjMwLjQ4ODMiIHN0eWxlPSJzdHJva2U6I0E4MDAzNjtzdHJva2Utd2lkdGg6MS41OyIgd2lkdGg9IjE4NiIgeD0iMTAwMi41IiB5PSIyNTExLjAxNTYiLz48dGV4dCBmaWxsPSIjMDAwMDAwIiBmb250LWZhbWlseT0ic2Fucy1zZXJpZiIgZm9udC1zaXplPSIxNCIgbGVuZ3RoQWRqdXN0PSJzcGFjaW5nIiB0ZXh0TGVuZ3RoPSIxNzIiIHg9IjEwMDkuNSIgeT0iMjUzMS41NTA4Ij5JQmFja2VuZFJlc291cmNlU2VydmljZTwvdGV4dD48cmVjdCBmaWxsPSIjRkVGRUNFIiBmaWx0ZXI9InVybCgjZjFjanJ0bDc4OHk2ZXkpIiBoZWlnaHQ9IjMwLjQ4ODMiIHN0eWxlPSJzdHJva2U6I0E4MDAzNjtzdHJva2Utd2lkdGg6MS41OyIgd2lkdGg9IjIxMiIgeD0iMTIwMi41IiB5PSI1Ii8+PHRleHQgZmlsbD0iIzAwMDAwMCIgZm9udC1mYW1pbHk9InNhbnMtc2VyaWYiIGZvbnQtc2l6ZT0iMTQiIGxlbmd0aEFkanVzdD0ic3BhY2luZyIgdGV4dExlbmd0aD0iMTk4IiB4PSIxMjA5LjUiIHk9IjI1LjUzNTIiPkJhY2tlbmRSZXNvdXJjZVNlcnZpY2VJbXBsPC90ZXh0PjxyZWN0IGZpbGw9IiNGRUZFQ0UiIGZpbHRlcj0idXJsKCNmMWNqcnRsNzg4eTZleSkiIGhlaWdodD0iMzAuNDg4MyIgc3R5bGU9InN0cm9rZTojQTgwMDM2O3N0cm9rZS13aWR0aDoxLjU7IiB3aWR0aD0iMjEyIiB4PSIxMjAyLjUiIHk9IjI1MTEuMDE1NiIvPjx0ZXh0IGZpbGw9IiMwMDAwMDAiIGZvbnQtZmFtaWx5PSJzYW5zLXNlcmlmIiBmb250LXNpemU9IjE0IiBsZW5ndGhBZGp1c3Q9InNwYWNpbmciIHRleHRMZW5ndGg9IjE5OCIgeD0iMTIwOS41IiB5PSIyNTMxLjU1MDgiPkJhY2tlbmRSZXNvdXJjZVNlcnZpY2VJbXBsPC90ZXh0PjxyZWN0IGZpbGw9IiNGRUZFQ0UiIGZpbHRlcj0idXJsKCNmMWNqcnRsNzg4eTZleSkiIGhlaWdodD0iMzAuNDg4MyIgc3R5bGU9InN0cm9rZTojQTgwMDM2O3N0cm9rZS13aWR0aDoxLjU7IiB3aWR0aD0iMTI5IiB4PSIxNDU0IiB5PSI1Ii8+PHRleHQgZmlsbD0iIzAwMDAwMCIgZm9udC1mYW1pbHk9InNhbnMtc2VyaWYiIGZvbnQtc2l6ZT0iMTQiIGxlbmd0aEFkanVzdD0ic3BhY2luZyIgdGV4dExlbmd0aD0iMTE1IiB4PSIxNDYxIiB5PSIyNS41MzUyIj5Na3RSZXNvdXJjZURhbzwvdGV4dD48cmVjdCBmaWxsPSIjRkVGRUNFIiBmaWx0ZXI9InVybCgjZjFjanJ0bDc4OHk2ZXkpIiBoZWlnaHQ9IjMwLjQ4ODMiIHN0eWxlPSJzdHJva2U6I0E4MDAzNjtzdHJva2Utd2lkdGg6MS41OyIgd2lkdGg9IjEyOSIgeD0iMTQ1NCIgeT0iMjUxMS4wMTU2Ii8+PHRleHQgZmlsbD0iIzAwMDAwMCIgZm9udC1mYW1pbHk9InNhbnMtc2VyaWYiIGZvbnQtc2l6ZT0iMTQiIGxlbmd0aEFkanVzdD0ic3BhY2luZyIgdGV4dExlbmd0aD0iMTE1IiB4PSIxNDYxIiB5PSIyNTMxLjU1MDgiPk1rdFJlc291cmNlRGFvPC90ZXh0PjxyZWN0IGZpbGw9IiNGRUZFQ0UiIGZpbHRlcj0idXJsKCNmMWNqcnRsNzg4eTZleSkiIGhlaWdodD0iMzAuNDg4MyIgc3R5bGU9InN0cm9rZTojQTgwMDM2O3N0cm9rZS13aWR0aDoxLjU7IiB3aWR0aD0iNzEiIHg9IjE1OTciIHk9IjUiLz48dGV4dCBmaWxsPSIjMDAwMDAwIiBmb250LWZhbWlseT0ic2Fucy1zZXJpZiIgZm9udC1zaXplPSIxNCIgbGVuZ3RoQWRqdXN0PSJzcGFjaW5nIiB0ZXh0TGVuZ3RoPSI1NyIgeD0iMTYwNCIgeT0iMjUuNTM1MiI+TWF0aFV0aWw8L3RleHQ+PHJlY3QgZmlsbD0iI0ZFRkVDRSIgZmlsdGVyPSJ1cmwoI2YxY2pydGw3ODh5NmV5KSIgaGVpZ2h0PSIzMC40ODgzIiBzdHlsZT0ic3Ryb2tlOiNBODAwMzY7c3Ryb2tlLXdpZHRoOjEuNTsiIHdpZHRoPSI3MSIgeD0iMTU5NyIgeT0iMjUxMS4wMTU2Ii8+PHRleHQgZmlsbD0iIzAwMDAwMCIgZm9udC1mYW1pbHk9InNhbnMtc2VyaWYiIGZvbnQtc2l6ZT0iMTQiIGxlbmd0aEFkanVzdD0ic3BhY2luZyIgdGV4dExlbmd0aD0iNTciIHg9IjE2MDQiIHk9IjI1MzEuNTUwOCI+TWF0aFV0aWw8L3RleHQ+PHJlY3QgZmlsbD0iI0ZFRkVDRSIgZmlsdGVyPSJ1cmwoI2YxY2pydGw3ODh5NmV5KSIgaGVpZ2h0PSIzMC40ODgzIiBzdHlsZT0ic3Ryb2tlOiNBODAwMzY7c3Ryb2tlLXdpZHRoOjEuNTsiIHdpZHRoPSI5MSIgeD0iMTY4MiIgeT0iNSIvPjx0ZXh0IGZpbGw9IiMwMDAwMDAiIGZvbnQtZmFtaWx5PSJzYW5zLXNlcmlmIiBmb250LXNpemU9IjE0IiBsZW5ndGhBZGp1c3Q9InNwYWNpbmciIHRleHRMZW5ndGg9Ijc3IiB4PSIxNjg5IiB5PSIyNS41MzUyIj5Qcm9kdWN0RHRvPC90ZXh0PjxyZWN0IGZpbGw9IiNGRUZFQ0UiIGZpbHRlcj0idXJsKCNmMWNqcnRsNzg4eTZleSkiIGhlaWdodD0iMzAuNDg4MyIgc3R5bGU9InN0cm9rZTojQTgwMDM2O3N0cm9rZS13aWR0aDoxLjU7IiB3aWR0aD0iOTEiIHg9IjE2ODIiIHk9IjI1MTEuMDE1NiIvPjx0ZXh0IGZpbGw9IiMwMDAwMDAiIGZvbnQtZmFtaWx5PSJzYW5zLXNlcmlmIiBmb250LXNpemU9IjE0IiBsZW5ndGhBZGp1c3Q9InNwYWNpbmciIHRleHRMZW5ndGg9Ijc3IiB4PSIxNjg5IiB5PSIyNTMxLjU1MDgiPlByb2R1Y3REdG88L3RleHQ+PHJlY3QgZmlsbD0iI0ZFRkVDRSIgZmlsdGVyPSJ1cmwoI2YxY2pydGw3ODh5NmV5KSIgaGVpZ2h0PSIzMC40ODgzIiBzdHlsZT0ic3Ryb2tlOiNBODAwMzY7c3Ryb2tlLXdpZHRoOjEuNTsiIHdpZHRoPSIxMzciIHg9IjE3ODciIHk9IjUiLz48dGV4dCBmaWxsPSIjMDAwMDAwIiBmb250LWZhbWlseT0ic2Fucy1zZXJpZiIgZm9udC1zaXplPSIxNCIgbGVuZ3RoQWRqdXN0PSJzcGFjaW5nIiB0ZXh0TGVuZ3RoPSIxMjMiIHg9IjE3OTQiIHk9IjI1LjUzNTIiPkV4dGVuc2lvbkNvbnRlbnQ8L3RleHQ+PHJlY3QgZmlsbD0iI0ZFRkVDRSIgZmlsdGVyPSJ1cmwoI2YxY2pydGw3ODh5NmV5KSIgaGVpZ2h0PSIzMC40ODgzIiBzdHlsZT0ic3Ryb2tlOiNBODAwMzY7c3Ryb2tlLXdpZHRoOjEuNTsiIHdpZHRoPSIxMzciIHg9IjE3ODciIHk9IjI1MTEuMDE1NiIvPjx0ZXh0IGZpbGw9IiMwMDAwMDAiIGZvbnQtZmFtaWx5PSJzYW5zLXNlcmlmIiBmb250LXNpemU9IjE0IiBsZW5ndGhBZGp1c3Q9InNwYWNpbmciIHRleHRMZW5ndGg9IjEyMyIgeD0iMTc5NCIgeT0iMjUzMS41NTA4Ij5FeHRlbnNpb25Db250ZW50PC90ZXh0PjxyZWN0IGZpbGw9IiNGRUZFQ0UiIGZpbHRlcj0idXJsKCNmMWNqcnRsNzg4eTZleSkiIGhlaWdodD0iMzAuNDg4MyIgc3R5bGU9InN0cm9rZTojQTgwMDM2O3N0cm9rZS13aWR0aDoxLjU7IiB3aWR0aD0iNzMiIHg9IjE5MzgiIHk9IjUiLz48dGV4dCBmaWxsPSIjMDAwMDAwIiBmb250LWZhbWlseT0ic2Fucy1zZXJpZiIgZm9udC1zaXplPSIxNCIgbGVuZ3RoQWRqdXN0PSJzcGFjaW5nIiB0ZXh0TGVuZ3RoPSI1OSIgeD0iMTk0NSIgeT0iMjUuNTM1MiI+SnNvblV0aWxzPC90ZXh0PjxyZWN0IGZpbGw9IiNGRUZFQ0UiIGZpbHRlcj0idXJsKCNmMWNqcnRsNzg4eTZleSkiIGhlaWdodD0iMzAuNDg4MyIgc3R5bGU9InN0cm9rZTojQTgwMDM2O3N0cm9rZS13aWR0aDoxLjU7IiB3aWR0aD0iNzMiIHg9IjE5MzgiIHk9IjI1MTEuMDE1NiIvPjx0ZXh0IGZpbGw9IiMwMDAwMDAiIGZvbnQtZmFtaWx5PSJzYW5zLXNlcmlmIiBmb250LXNpemU9IjE0IiBsZW5ndGhBZGp1c3Q9InNwYWNpbmciIHRleHRMZW5ndGg9IjU5IiB4PSIxOTQ1IiB5PSIyNTMxLjU1MDgiPkpzb25VdGlsczwvdGV4dD48cmVjdCBmaWxsPSIjRkVGRUNFIiBmaWx0ZXI9InVybCgjZjFjanJ0bDc4OHk2ZXkpIiBoZWlnaHQ9IjMwLjQ4ODMiIHN0eWxlPSJzdHJva2U6I0E4MDAzNjtzdHJva2Utd2lkdGg6MS41OyIgd2lkdGg9IjE0MCIgeD0iMjAyNSIgeT0iNSIvPjx0ZXh0IGZpbGw9IiMwMDAwMDAiIGZvbnQtZmFtaWx5PSJzYW5zLXNlcmlmIiBmb250LXNpemU9IjE0IiBsZW5ndGhBZGp1c3Q9InNwYWNpbmciIHRleHRMZW5ndGg9IjEyNiIgeD0iMjAzMiIgeT0iMjUuNTM1MiI+UmVzb3VyY2VEZXRhaWxEdG88L3RleHQ+PHJlY3QgZmlsbD0iI0ZFRkVDRSIgZmlsdGVyPSJ1cmwoI2YxY2pydGw3ODh5NmV5KSIgaGVpZ2h0PSIzMC40ODgzIiBzdHlsZT0ic3Ryb2tlOiNBODAwMzY7c3Ryb2tlLXdpZHRoOjEuNTsiIHdpZHRoPSIxNDAiIHg9IjIwMjUiIHk9IjI1MTEuMDE1NiIvPjx0ZXh0IGZpbGw9IiMwMDAwMDAiIGZvbnQtZmFtaWx5PSJzYW5zLXNlcmlmIiBmb250LXNpemU9IjE0IiBsZW5ndGhBZGp1c3Q9InNwYWNpbmciIHRleHRMZW5ndGg9IjEyNiIgeD0iMjAzMiIgeT0iMjUzMS41NTA4Ij5SZXNvdXJjZURldGFpbER0bzwvdGV4dD48cmVjdCBmaWxsPSIjRkVGRUNFIiBmaWx0ZXI9InVybCgjZjFjanJ0bDc4OHk2ZXkpIiBoZWlnaHQ9IjMwLjQ4ODMiIHN0eWxlPSJzdHJva2U6I0E4MDAzNjtzdHJva2Utd2lkdGg6MS41OyIgd2lkdGg9IjE5NyIgeD0iMjE3OSIgeT0iNSIvPjx0ZXh0IGZpbGw9IiMwMDAwMDAiIGZvbnQtZmFtaWx5PSJzYW5zLXNlcmlmIiBmb250LXNpemU9IjE0IiBsZW5ndGhBZGp1c3Q9InNwYWNpbmciIHRleHRMZW5ndGg9IjE4MyIgeD0iMjE4NiIgeT0iMjUuNTM1MiI+QmFja2VuZEJhbm5lclNlcnZpY2VJbXBsPC90ZXh0PjxyZWN0IGZpbGw9IiNGRUZFQ0UiIGZpbHRlcj0idXJsKCNmMWNqcnRsNzg4eTZleSkiIGhlaWdodD0iMzAuNDg4MyIgc3R5bGU9InN0cm9rZTojQTgwMDM2O3N0cm9rZS13aWR0aDoxLjU7IiB3aWR0aD0iMTk3IiB4PSIyMTc5IiB5PSIyNTExLjAxNTYiLz48dGV4dCBmaWxsPSIjMDAwMDAwIiBmb250LWZhbWlseT0ic2Fucy1zZXJpZiIgZm9udC1zaXplPSIxNCIgbGVuZ3RoQWRqdXN0PSJzcGFjaW5nIiB0ZXh0TGVuZ3RoPSIxODMiIHg9IjIxODYiIHk9IjI1MzEuNTUwOCI+QmFja2VuZEJhbm5lclNlcnZpY2VJbXBsPC90ZXh0PjxyZWN0IGZpbGw9IiNGRkZGRkYiIGZpbHRlcj0idXJsKCNmMWNqcnRsNzg4eTZleSkiIGhlaWdodD0iMjQyMi4yMTY4IiBzdHlsZT0ic3Ryb2tlOiNBODAwMzY7c3Ryb2tlLXdpZHRoOjEuMDsiIHdpZHRoPSIxMCIgeD0iMjAwLjUiIHk9IjcxLjc5ODgiLz48cmVjdCBmaWxsPSIjRkZGRkZGIiBmaWx0ZXI9InVybCgjZjFjanJ0bDc4OHk2ZXkpIiBoZWlnaHQ9IjI1IiBzdHlsZT0ic3Ryb2tlOiNBODAwMzY7c3Ryb2tlLXdpZHRoOjEuMDsiIHdpZHRoPSIxMCIgeD0iMjA1LjUiIHk9IjU0Mi4yMTQ4Ii8+PHJlY3QgZmlsbD0iI0ZGRkZGRiIgZmlsdGVyPSJ1cmwoI2YxY2pydGw3ODh5NmV5KSIgaGVpZ2h0PSIzNTQuMTczOCIgc3R5bGU9InN0cm9rZTojQTgwMDM2O3N0cm9rZS13aWR0aDoxLjA7IiB3aWR0aD0iMTAiIHg9IjIwNS41IiB5PSIxNzIwLjM1NzQiLz48cmVjdCBmaWxsPSIjRkZGRkZGIiBmaWx0ZXI9InVybCgjZjFjanJ0bDc4OHk2ZXkpIiBoZWlnaHQ9IjE4Ny4yNDIyIiBzdHlsZT0ic3Ryb2tlOiNBODAwMzY7c3Ryb2tlLXdpZHRoOjEuMDsiIHdpZHRoPSIxMCIgeD0iNDM0LjUiIHk9IjEwMS4xMDk0Ii8+PHJlY3QgZmlsbD0iI0ZGRkZGRiIgZmlsdGVyPSJ1cmwoI2YxY2pydGw3ODh5NmV5KSIgaGVpZ2h0PSI0ODEuNzk0OSIgc3R5bGU9InN0cm9rZTojQTgwMDM2O3N0cm9rZS13aWR0aDoxLjA7IiB3aWR0aD0iMTAiIHg9IjQzNC41IiB5PSI2NDYuODM1OSIvPjxyZWN0IGZpbGw9IiNGRkZGRkYiIGZpbHRlcj0idXJsKCNmMWNqcnRsNzg4eTZleSkiIGhlaWdodD0iNTI1LjEwNTUiIHN0eWxlPSJzdHJva2U6I0E4MDAzNjtzdHJva2Utd2lkdGg6MS4wOyIgd2lkdGg9IjEwIiB4PSI0MzQuNSIgeT0iMTE1Ny45NDE0Ii8+PHJlY3QgZmlsbD0iI0ZGRkZGRiIgZmlsdGVyPSJ1cmwoI2YxY2pydGw3ODh5NmV5KSIgaGVpZ2h0PSIxNDMuOTMxNiIgc3R5bGU9InN0cm9rZTojQTgwMDM2O3N0cm9rZS13aWR0aDoxLjA7IiB3aWR0aD0iMTAiIHg9IjY3MC41IiB5PSIxMzAuNDE5OSIvPjxyZWN0IGZpbGw9IiNGRkZGRkYiIGZpbHRlcj0idXJsKCNmMWNqcnRsNzg4eTZleSkiIGhlaWdodD0iNDM4LjQ4NDQiIHN0eWxlPSJzdHJva2U6I0E4MDAzNjtzdHJva2Utd2lkdGg6MS4wOyIgd2lkdGg9IjEwIiB4PSI2NzAuNSIgeT0iNjc2LjE0NjUiLz48cmVjdCBmaWxsPSIjRkZGRkZGIiBmaWx0ZXI9InVybCgjZjFjanJ0bDc4OHk2ZXkpIiBoZWlnaHQ9IjI1IiBzdHlsZT0ic3Ryb2tlOiNBODAwMzY7c3Ryb2tlLXdpZHRoOjEuMDsiIHdpZHRoPSIxMCIgeD0iNjc1LjUiIHk9IjgwMC4wNzgxIi8+PHJlY3QgZmlsbD0iI0ZGRkZGRiIgZmlsdGVyPSJ1cmwoI2YxY2pydGw3ODh5NmV5KSIgaGVpZ2h0PSIyNSIgc3R5bGU9InN0cm9rZTojQTgwMDM2O3N0cm9rZS13aWR0aDoxLjA7IiB3aWR0aD0iMTAiIHg9IjY3NS41IiB5PSI5MTIuNjk5MiIvPjxyZWN0IGZpbGw9IiNGRkZGRkYiIGZpbHRlcj0idXJsKCNmMWNqcnRsNzg4eTZleSkiIGhlaWdodD0iMjUiIHN0eWxlPSJzdHJva2U6I0E4MDAzNjtzdHJva2Utd2lkdGg6MS4wOyIgd2lkdGg9IjEwIiB4PSI2NzUuNSIgeT0iMTAyNS4zMjAzIi8+PHJlY3QgZmlsbD0iI0ZGRkZGRiIgZmlsdGVyPSJ1cmwoI2YxY2pydGw3ODh5NmV5KSIgaGVpZ2h0PSI0ODEuNzk0OSIgc3R5bGU9InN0cm9rZTojQTgwMDM2O3N0cm9rZS13aWR0aDoxLjA7IiB3aWR0aD0iMTAiIHg9IjY3MC41IiB5PSIxMTg3LjI1MiIvPjxyZWN0IGZpbGw9IiNGRkZGRkYiIGZpbHRlcj0idXJsKCNmMWNqcnRsNzg4eTZleSkiIGhlaWdodD0iMTExLjYyMTEiIHN0eWxlPSJzdHJva2U6I0E4MDAzNjtzdHJva2Utd2lkdGg6MS4wOyIgd2lkdGg9IjEwIiB4PSI2NzUuNSIgeT0iMTIyNC41NjI1Ii8+PHJlY3QgZmlsbD0iI0ZGRkZGRiIgZmlsdGVyPSJ1cmwoI2YxY2pydGw3ODh5NmV5KSIgaGVpZ2h0PSIxMTEuNjIxMSIgc3R5bGU9InN0cm9rZTojQTgwMDM2O3N0cm9rZS13aWR0aDoxLjA7IiB3aWR0aD0iMTAiIHg9IjY3NS41IiB5PSIxMzgwLjQ5NDEiLz48cmVjdCBmaWxsPSIjRkZGRkZGIiBmaWx0ZXI9InVybCgjZjFjanJ0bDc4OHk2ZXkpIiBoZWlnaHQ9IjExMS42MjExIiBzdHlsZT0ic3Ryb2tlOiNBODAwMzY7c3Ryb2tlLXdpZHRoOjEuMDsiIHdpZHRoPSIxMCIgeD0iNjc1LjUiIHk9IjE1MzYuNDI1OCIvPjxyZWN0IGZpbGw9IiNGRkZGRkYiIGZpbHRlcj0idXJsKCNmMWNqcnRsNzg4eTZleSkiIGhlaWdodD0iMTQiIHN0eWxlPSJzdHJva2U6I0E4MDAzNjtzdHJva2Utd2lkdGg6MS4wOyIgd2lkdGg9IjEwIiB4PSI5MDIuNSIgeT0iMTU5LjczMDUiLz48cmVjdCBmaWxsPSIjRkZGRkZGIiBmaWx0ZXI9InVybCgjZjFjanJ0bDc4OHk2ZXkpIiBoZWlnaHQ9IjE0IiBzdHlsZT0ic3Ryb2tlOiNBODAwMzY7c3Ryb2tlLXdpZHRoOjEuMDsiIHdpZHRoPSIxMCIgeD0iOTAyLjUiIHk9IjIwMy4wNDEiLz48cmVjdCBmaWxsPSIjRkZGRkZGIiBmaWx0ZXI9InVybCgjZjFjanJ0bDc4OHk2ZXkpIiBoZWlnaHQ9IjE0IiBzdHlsZT0ic3Ryb2tlOiNBODAwMzY7c3Ryb2tlLXdpZHRoOjEuMDsiIHdpZHRoPSIxMCIgeD0iOTAyLjUiIHk9IjI0Ni4zNTE2Ii8+PHJlY3QgZmlsbD0iI0ZGRkZGRiIgZmlsdGVyPSJ1cmwoI2YxY2pydGw3ODh5NmV5KSIgaGVpZ2h0PSIxNCIgc3R5bGU9InN0cm9rZTojQTgwMDM2O3N0cm9rZS13aWR0aDoxLjA7IiB3aWR0aD0iMTAiIHg9IjkwMi41IiB5PSI0OTAuOTA0MyIvPjxyZWN0IGZpbGw9IiNGRkZGRkYiIGZpbHRlcj0idXJsKCNmMWNqcnRsNzg4eTZleSkiIGhlaWdodD0iMTQiIHN0eWxlPSJzdHJva2U6I0E4MDAzNjtzdHJva2Utd2lkdGg6MS4wOyIgd2lkdGg9IjEwIiB4PSI5MDIuNSIgeT0iNjAzLjUyNTQiLz48cmVjdCBmaWxsPSIjRkZGRkZGIiBmaWx0ZXI9InVybCgjZjFjanJ0bDc4OHk2ZXkpIiBoZWlnaHQ9IjE0IiBzdHlsZT0ic3Ryb2tlOiNBODAwMzY7c3Ryb2tlLXdpZHRoOjEuMDsiIHdpZHRoPSIxMCIgeD0iOTAyLjUiIHk9IjcwNS40NTciLz48cmVjdCBmaWxsPSIjRkZGRkZGIiBmaWx0ZXI9InVybCgjZjFjanJ0bDc4OHk2ZXkpIiBoZWlnaHQ9IjE0IiBzdHlsZT0ic3Ryb2tlOiNBODAwMzY7c3Ryb2tlLXdpZHRoOjEuMDsiIHdpZHRoPSIxMCIgeD0iOTAyLjUiIHk9Ijc0OC43Njc2Ii8+PHJlY3QgZmlsbD0iI0ZGRkZGRiIgZmlsdGVyPSJ1cmwoI2YxY2pydGw3ODh5NmV5KSIgaGVpZ2h0PSIxNCIgc3R5bGU9InN0cm9rZTojQTgwMDM2O3N0cm9rZS13aWR0aDoxLjA7IiB3aWR0aD0iMTAiIHg9IjkwMi41IiB5PSI4NjEuMzg4NyIvPjxyZWN0IGZpbGw9IiNGRkZGRkYiIGZpbHRlcj0idXJsKCNmMWNqcnRsNzg4eTZleSkiIGhlaWdodD0iMTQiIHN0eWxlPSJzdHJva2U6I0E4MDAzNjtzdHJva2Utd2lkdGg6MS4wOyIgd2lkdGg9IjEwIiB4PSI5MDIuNSIgeT0iOTc0LjAwOTgiLz48cmVjdCBmaWxsPSIjRkZGRkZGIiBmaWx0ZXI9InVybCgjZjFjanJ0bDc4OHk2ZXkpIiBoZWlnaHQ9IjE0IiBzdHlsZT0ic3Ryb2tlOiNBODAwMzY7c3Ryb2tlLXdpZHRoOjEuMDsiIHdpZHRoPSIxMCIgeD0iOTAyLjUiIHk9IjEwODYuNjMwOSIvPjxyZWN0IGZpbGw9IiNGRkZGRkYiIGZpbHRlcj0idXJsKCNmMWNqcnRsNzg4eTZleSkiIGhlaWdodD0iMTQiIHN0eWxlPSJzdHJva2U6I0E4MDAzNjtzdHJva2Utd2lkdGg6MS4wOyIgd2lkdGg9IjEwIiB4PSI5MDIuNSIgeT0iMTI1OC44NzMiLz48cmVjdCBmaWxsPSIjRkZGRkZGIiBmaWx0ZXI9InVybCgjZjFjanJ0bDc4OHk2ZXkpIiBoZWlnaHQ9IjE0IiBzdHlsZT0ic3Ryb2tlOiNBODAwMzY7c3Ryb2tlLXdpZHRoOjEuMDsiIHdpZHRoPSIxMCIgeD0iOTAyLjUiIHk9IjEzMDIuMTgzNiIvPjxyZWN0IGZpbGw9IiNGRkZGRkYiIGZpbHRlcj0idXJsKCNmMWNqcnRsNzg4eTZleSkiIGhlaWdodD0iMTQiIHN0eWxlPSJzdHJva2U6I0E4MDAzNjtzdHJva2Utd2lkdGg6MS4wOyIgd2lkdGg9IjEwIiB4PSI5MDIuNSIgeT0iMTQxNC44MDQ3Ii8+PHJlY3QgZmlsbD0iI0ZGRkZGRiIgZmlsdGVyPSJ1cmwoI2YxY2pydGw3ODh5NmV5KSIgaGVpZ2h0PSIxNCIgc3R5bGU9InN0cm9rZTojQTgwMDM2O3N0cm9rZS13aWR0aDoxLjA7IiB3aWR0aD0iMTAiIHg9IjkwMi41IiB5PSIxNDU4LjExNTIiLz48cmVjdCBmaWxsPSIjRkZGRkZGIiBmaWx0ZXI9InVybCgjZjFjanJ0bDc4OHk2ZXkpIiBoZWlnaHQ9IjE0IiBzdHlsZT0ic3Ryb2tlOiNBODAwMzY7c3Ryb2tlLXdpZHRoOjEuMDsiIHdpZHRoPSIxMCIgeD0iOTAyLjUiIHk9IjE1NzAuNzM2MyIvPjxyZWN0IGZpbGw9IiNGRkZGRkYiIGZpbHRlcj0idXJsKCNmMWNqcnRsNzg4eTZleSkiIGhlaWdodD0iMTQiIHN0eWxlPSJzdHJva2U6I0E4MDAzNjtzdHJva2Utd2lkdGg6MS4wOyIgd2lkdGg9IjEwIiB4PSI5MDIuNSIgeT0iMTYxNC4wNDY5Ii8+PHJlY3QgZmlsbD0iI0ZGRkZGRiIgZmlsdGVyPSJ1cmwoI2YxY2pydGw3ODh5NmV5KSIgaGVpZ2h0PSIxMDAuNjIxMSIgc3R5bGU9InN0cm9rZTojQTgwMDM2O3N0cm9rZS13aWR0aDoxLjA7IiB3aWR0aD0iMTAiIHg9IjEwOTIuNSIgeT0iMzE3LjY2MjEiLz48cmVjdCBmaWxsPSIjRkZGRkZGIiBmaWx0ZXI9InVybCgjZjFjanJ0bDc4OHk2ZXkpIiBoZWlnaHQ9IjI5OS44NjMzIiBzdHlsZT0ic3Ryb2tlOiNBODAwMzY7c3Ryb2tlLXdpZHRoOjEuMDsiIHdpZHRoPSIxMCIgeD0iMTA5Mi41IiB5PSIxNzU0LjY2OCIvPjxyZWN0IGZpbGw9IiNGRkZGRkYiIGZpbHRlcj0idXJsKCNmMWNqcnRsNzg4eTZleSkiIGhlaWdodD0iMTQzLjkzMTYiIHN0eWxlPSJzdHJva2U6I0E4MDAzNjtzdHJva2Utd2lkdGg6MS4wOyIgd2lkdGg9IjEwIiB4PSIxMDkyLjUiIHk9IjIxMTAuODQxOCIvPjxyZWN0IGZpbGw9IiNGRkZGRkYiIGZpbHRlcj0idXJsKCNmMWNqcnRsNzg4eTZleSkiIGhlaWdodD0iNTcuMzEwNSIgc3R5bGU9InN0cm9rZTojQTgwMDM2O3N0cm9rZS13aWR0aDoxLjA7IiB3aWR0aD0iMTAiIHg9IjEzMDUuNSIgeT0iMzQ2Ljk3MjciLz48cmVjdCBmaWxsPSIjRkZGRkZGIiBmaWx0ZXI9InVybCgjZjFjanJ0bDc4OHk2ZXkpIiBoZWlnaHQ9IjI1Ni41NTI3IiBzdHlsZT0ic3Ryb2tlOiNBODAwMzY7c3Ryb2tlLXdpZHRoOjEuMDsiIHdpZHRoPSIxMCIgeD0iMTMwNS41IiB5PSIxNzgzLjk3ODUiLz48cmVjdCBmaWxsPSIjRkZGRkZGIiBmaWx0ZXI9InVybCgjZjFjanJ0bDc4OHk2ZXkpIiBoZWlnaHQ9IjY4LjMxMDUiIHN0eWxlPSJzdHJva2U6I0E4MDAzNjtzdHJva2Utd2lkdGg6MS4wOyIgd2lkdGg9IjEwIiB4PSIxMzEwLjUiIHk9IjE4MjEuMjg5MSIvPjxyZWN0IGZpbGw9IiNGRkZGRkYiIGZpbHRlcj0idXJsKCNmMWNqcnRsNzg4eTZleSkiIGhlaWdodD0iMTAwLjYyMTEiIHN0eWxlPSJzdHJva2U6I0E4MDAzNjtzdHJva2Utd2lkdGg6MS4wOyIgd2lkdGg9IjEwIiB4PSIxMzA1LjUiIHk9IjIxNDAuMTUyMyIvPjxyZWN0IGZpbGw9IiNGRkZGRkYiIGZpbHRlcj0idXJsKCNmMWNqcnRsNzg4eTZleSkiIGhlaWdodD0iMTQiIHN0eWxlPSJzdHJva2U6I0E4MDAzNjtzdHJva2Utd2lkdGg6MS4wOyIgd2lkdGg9IjEwIiB4PSIxNTE1LjUiIHk9IjM3Ni4yODMyIi8+PHJlY3QgZmlsbD0iI0ZGRkZGRiIgZmlsdGVyPSJ1cmwoI2YxY2pydGw3ODh5NmV5KSIgaGVpZ2h0PSIxNCIgc3R5bGU9InN0cm9rZTojQTgwMDM2O3N0cm9rZS13aWR0aDoxLjA7IiB3aWR0aD0iMTAiIHg9IjE1MTUuNSIgeT0iMjE2OS40NjI5Ii8+PHJlY3QgZmlsbD0iI0ZGRkZGRiIgZmlsdGVyPSJ1cmwoI2YxY2pydGw3ODh5NmV5KSIgaGVpZ2h0PSIxNCIgc3R5bGU9InN0cm9rZTojQTgwMDM2O3N0cm9rZS13aWR0aDoxLjA7IiB3aWR0aD0iMTAiIHg9IjE1MTUuNSIgeT0iMjIxMi43NzM0Ii8+PHJlY3QgZmlsbD0iI0ZGRkZGRiIgZmlsdGVyPSJ1cmwoI2YxY2pydGw3ODh5NmV5KSIgaGVpZ2h0PSIxNCIgc3R5bGU9InN0cm9rZTojQTgwMDM2O3N0cm9rZS13aWR0aDoxLjA7IiB3aWR0aD0iMTAiIHg9IjE1MTUuNSIgeT0iMjMxMy4zOTQ1Ii8+PHJlY3QgZmlsbD0iI0ZGRkZGRiIgZmlsdGVyPSJ1cmwoI2YxY2pydGw3ODh5NmV5KSIgaGVpZ2h0PSIxNCIgc3R5bGU9InN0cm9rZTojQTgwMDM2O3N0cm9rZS13aWR0aDoxLjA7IiB3aWR0aD0iMTAiIHg9IjE2MjkuNSIgeT0iNDQ3LjU5MzgiLz48cmVjdCBmaWxsPSIjRkZGRkZGIiBmaWx0ZXI9InVybCgjZjFjanJ0bDc4OHk2ZXkpIiBoZWlnaHQ9IjE0IiBzdHlsZT0ic3Ryb2tlOiNBODAwMzY7c3Ryb2tlLXdpZHRoOjEuMDsiIHdpZHRoPSIxMCIgeD0iMTcyNC41IiB5PSIxODU1LjU5OTYiLz48cmVjdCBmaWxsPSIjRkZGRkZGIiBmaWx0ZXI9InVybCgjZjFjanJ0bDc4OHk2ZXkpIiBoZWlnaHQ9IjE0IiBzdHlsZT0ic3Ryb2tlOiNBODAwMzY7c3Ryb2tlLXdpZHRoOjEuMDsiIHdpZHRoPSIxMCIgeD0iMTg1Mi41IiB5PSIxOTI1LjkxMDIiLz48cmVjdCBmaWxsPSIjRkZGRkZGIiBmaWx0ZXI9InVybCgjZjFjanJ0bDc4OHk2ZXkpIiBoZWlnaHQ9IjE0IiBzdHlsZT0ic3Ryb2tlOiNBODAwMzY7c3Ryb2tlLXdpZHRoOjEuMDsiIHdpZHRoPSIxMCIgeD0iMTk3MS41IiB5PSIxOTY5LjIyMDciLz48cmVjdCBmaWxsPSIjRkZGRkZGIiBmaWx0ZXI9InVybCgjZjFjanJ0bDc4OHk2ZXkpIiBoZWlnaHQ9IjE0IiBzdHlsZT0ic3Ryb2tlOiNBODAwMzY7c3Ryb2tlLXdpZHRoOjEuMDsiIHdpZHRoPSIxMCIgeD0iMjA5MiIgeT0iMjAxMi41MzEzIi8+PHJlY3QgZmlsbD0iI0ZGRkZGRiIgZmlsdGVyPSJ1cmwoI2YxY2pydGw3ODh5NmV5KSIgaGVpZ2h0PSIxOTUuOTMxNiIgc3R5bGU9InN0cm9rZTojQTgwMDM2O3N0cm9rZS13aWR0aDoxLjA7IiB3aWR0aD0iMTAiIHg9IjIyNzQuNSIgeT0iMjI4NC4wODQiLz48cmVjdCBmaWxsPSIjRkZGRkZGIiBmaWx0ZXI9InVybCgjZjFjanJ0bDc4OHk2ZXkpIiBoZWlnaHQ9IjI1IiBzdHlsZT0ic3Ryb2tlOiNBODAwMzY7c3Ryb2tlLXdpZHRoOjEuMDsiIHdpZHRoPSIxMCIgeD0iMjI3OS41IiB5PSIyMzY0LjcwNTEiLz48cmVjdCBmaWxsPSIjRkZGRkZGIiBmaWx0ZXI9InVybCgjZjFjanJ0bDc4OHk2ZXkpIiBoZWlnaHQ9IjI1IiBzdHlsZT0ic3Ryb2tlOiNBODAwMzY7c3Ryb2tlLXdpZHRoOjEuMDsiIHdpZHRoPSIxMCIgeD0iMjI3OS41IiB5PSIyNDM0LjAxNTYiLz48cG9seWdvbiBmaWxsPSIjQTgwMDM2IiBwb2ludHM9IjE4OC41LDY3Ljc5ODgsMTk4LjUsNzEuNzk4OCwxODguNSw3NS43OTg4LDE5Mi41LDcxLjc5ODgiIHN0eWxlPSJzdHJva2U6I0E4MDAzNjtzdHJva2Utd2lkdGg6MS4wOyIvPjxsaW5lIHN0eWxlPSJzdHJva2U6I0E4MDAzNjtzdHJva2Utd2lkdGg6MS4wOyIgeDE9IjMyLjUiIHgyPSIxOTQuNSIgeTE9IjcxLjc5ODgiIHkyPSI3MS43OTg4Ii8+PHRleHQgZmlsbD0iIzAwMDAwMCIgZm9udC1mYW1pbHk9InNhbnMtc2VyaWYiIGZvbnQtc2l6ZT0iMTMiIGxlbmd0aEFkanVzdD0ic3BhY2luZyIgdGV4dExlbmd0aD0iMTQ5IiB4PSIzOS41IiB5PSI2Ny4wNTY2Ij51cGRhdGVCYW5uZXJSZXNvdXJjZXM8L3RleHQ+PHBvbHlnb24gZmlsbD0iI0E4MDAzNiIgcG9pbnRzPSI0MjIuNSw5Ny4xMDk0LDQzMi41LDEwMS4xMDk0LDQyMi41LDEwNS4xMDk0LDQyNi41LDEwMS4xMDk0IiBzdHlsZT0ic3Ryb2tlOiNBODAwMzY7c3Ryb2tlLXdpZHRoOjEuMDsiLz48bGluZSBzdHlsZT0ic3Ryb2tlOiNBODAwMzY7c3Ryb2tlLXdpZHRoOjEuMDsiIHgxPSIyMTAuNSIgeDI9IjQyOC41IiB5MT0iMTAxLjEwOTQiIHkyPSIxMDEuMTA5NCIvPjx0ZXh0IGZpbGw9IiMwMDAwMDAiIGZvbnQtZmFtaWx5PSJzYW5zLXNlcmlmIiBmb250LXNpemU9IjEzIiBsZW5ndGhBZGp1c3Q9InNwYWNpbmciIHRleHRMZW5ndGg9IjEyOCIgeD0iMjE3LjUiIHk9Ijk2LjM2NzIiPnZhbGlkYXRlQmFubmVyRGV0YWlsPC90ZXh0Pjxwb2x5Z29uIGZpbGw9IiNBODAwMzYiIHBvaW50cz0iNjU4LjUsMTI2LjQxOTksNjY4LjUsMTMwLjQxOTksNjU4LjUsMTM0LjQxOTksNjYyLjUsMTMwLjQxOTkiIHN0eWxlPSJzdHJva2U6I0E4MDAzNjtzdHJva2Utd2lkdGg6MS4wOyIvPjxsaW5lIHN0eWxlPSJzdHJva2U6I0E4MDAzNjtzdHJva2Utd2lkdGg6MS4wOyIgeDE9IjQ0NC41IiB4Mj0iNjY0LjUiIHkxPSIxMzAuNDE5OSIgeTI9IjEzMC40MTk5Ii8+PHRleHQgZmlsbD0iIzAwMDAwMCIgZm9udC1mYW1pbHk9InNhbnMtc2VyaWYiIGZvbnQtc2l6ZT0iMTMiIGxlbmd0aEFkanVzdD0ic3BhY2luZyIgdGV4dExlbmd0aD0iMTI4IiB4PSI0NTEuNSIgeT0iMTI1LjY3NzciPnZhbGlkYXRlQmFubmVyRGV0YWlsPC90ZXh0Pjxwb2x5Z29uIGZpbGw9IiNBODAwMzYiIHBvaW50cz0iODkwLjUsMTU1LjczMDUsOTAwLjUsMTU5LjczMDUsODkwLjUsMTYzLjczMDUsODk0LjUsMTU5LjczMDUiIHN0eWxlPSJzdHJva2U6I0E4MDAzNjtzdHJva2Utd2lkdGg6MS4wOyIvPjxsaW5lIHN0eWxlPSJzdHJva2U6I0E4MDAzNjtzdHJva2Utd2lkdGg6MS4wOyIgeDE9IjY4MC41IiB4Mj0iODk2LjUiIHkxPSIxNTkuNzMwNSIgeTI9IjE1OS43MzA1Ii8+PHRleHQgZmlsbD0iIzAwMDAwMCIgZm9udC1mYW1pbHk9InNhbnMtc2VyaWYiIGZvbnQtc2l6ZT0iMTMiIGxlbmd0aEFkanVzdD0ic3BhY2luZyIgdGV4dExlbmd0aD0iMjUiIHg9IjY4Ny41IiB5PSIxNTQuOTg4MyI+bmV3PC90ZXh0Pjxwb2x5Z29uIGZpbGw9IiNBODAwMzYiIHBvaW50cz0iNjkxLjUsMTY5LjczMDUsNjgxLjUsMTczLjczMDUsNjkxLjUsMTc3LjczMDUsNjg3LjUsMTczLjczMDUiIHN0eWxlPSJzdHJva2U6I0E4MDAzNjtzdHJva2Utd2lkdGg6MS4wOyIvPjxsaW5lIHN0eWxlPSJzdHJva2U6I0E4MDAzNjtzdHJva2Utd2lkdGg6MS4wO3N0cm9rZS1kYXNoYXJyYXk6Mi4wLDIuMDsiIHgxPSI2ODUuNSIgeDI9IjkwNi41IiB5MT0iMTczLjczMDUiIHkyPSIxNzMuNzMwNSIvPjxwb2x5Z29uIGZpbGw9IiNBODAwMzYiIHBvaW50cz0iODkwLjUsMTk5LjA0MSw5MDAuNSwyMDMuMDQxLDg5MC41LDIwNy4wNDEsODk0LjUsMjAzLjA0MSIgc3R5bGU9InN0cm9rZTojQTgwMDM2O3N0cm9rZS13aWR0aDoxLjA7Ii8+PGxpbmUgc3R5bGU9InN0cm9rZTojQTgwMDM2O3N0cm9rZS13aWR0aDoxLjA7IiB4MT0iNjgwLjUiIHgyPSI4OTYuNSIgeTE9IjIwMy4wNDEiIHkyPSIyMDMuMDQxIi8+PHRleHQgZmlsbD0iIzAwMDAwMCIgZm9udC1mYW1pbHk9InNhbnMtc2VyaWYiIGZvbnQtc2l6ZT0iMTMiIGxlbmd0aEFkanVzdD0ic3BhY2luZyIgdGV4dExlbmd0aD0iMjUiIHg9IjY4Ny41IiB5PSIxOTguMjk4OCI+bmV3PC90ZXh0Pjxwb2x5Z29uIGZpbGw9IiNBODAwMzYiIHBvaW50cz0iNjkxLjUsMjEzLjA0MSw2ODEuNSwyMTcuMDQxLDY5MS41LDIyMS4wNDEsNjg3LjUsMjE3LjA0MSIgc3R5bGU9InN0cm9rZTojQTgwMDM2O3N0cm9rZS13aWR0aDoxLjA7Ii8+PGxpbmUgc3R5bGU9InN0cm9rZTojQTgwMDM2O3N0cm9rZS13aWR0aDoxLjA7c3Ryb2tlLWRhc2hhcnJheToyLjAsMi4wOyIgeDE9IjY4NS41IiB4Mj0iOTA2LjUiIHkxPSIyMTcuMDQxIiB5Mj0iMjE3LjA0MSIvPjxwb2x5Z29uIGZpbGw9IiNBODAwMzYiIHBvaW50cz0iODkwLjUsMjQyLjM1MTYsOTAwLjUsMjQ2LjM1MTYsODkwLjUsMjUwLjM1MTYsODk0LjUsMjQ2LjM1MTYiIHN0eWxlPSJzdHJva2U6I0E4MDAzNjtzdHJva2Utd2lkdGg6MS4wOyIvPjxsaW5lIHN0eWxlPSJzdHJva2U6I0E4MDAzNjtzdHJva2Utd2lkdGg6MS4wOyIgeDE9IjY4MC41IiB4Mj0iODk2LjUiIHkxPSIyNDYuMzUxNiIgeTI9IjI0Ni4zNTE2Ii8+PHRleHQgZmlsbD0iIzAwMDAwMCIgZm9udC1mYW1pbHk9InNhbnMtc2VyaWYiIGZvbnQtc2l6ZT0iMTMiIGxlbmd0aEFkanVzdD0ic3BhY2luZyIgdGV4dExlbmd0aD0iMjUiIHg9IjY4Ny41IiB5PSIyNDEuNjA5NCI+bmV3PC90ZXh0Pjxwb2x5Z29uIGZpbGw9IiNBODAwMzYiIHBvaW50cz0iNjkxLjUsMjU2LjM1MTYsNjgxLjUsMjYwLjM1MTYsNjkxLjUsMjY0LjM1MTYsNjg3LjUsMjYwLjM1MTYiIHN0eWxlPSJzdHJva2U6I0E4MDAzNjtzdHJva2Utd2lkdGg6MS4wOyIvPjxsaW5lIHN0eWxlPSJzdHJva2U6I0E4MDAzNjtzdHJva2Utd2lkdGg6MS4wO3N0cm9rZS1kYXNoYXJyYXk6Mi4wLDIuMDsiIHgxPSI2ODUuNSIgeDI9IjkwNi41IiB5MT0iMjYwLjM1MTYiIHkyPSIyNjAuMzUxNiIvPjxwb2x5Z29uIGZpbGw9IiNBODAwMzYiIHBvaW50cz0iNDU1LjUsMjcwLjM1MTYsNDQ1LjUsMjc0LjM1MTYsNDU1LjUsMjc4LjM1MTYsNDUxLjUsMjc0LjM1MTYiIHN0eWxlPSJzdHJva2U6I0E4MDAzNjtzdHJva2Utd2lkdGg6MS4wOyIvPjxsaW5lIHN0eWxlPSJzdHJva2U6I0E4MDAzNjtzdHJva2Utd2lkdGg6MS4wO3N0cm9rZS1kYXNoYXJyYXk6Mi4wLDIuMDsiIHgxPSI0NDkuNSIgeDI9IjY3NC41IiB5MT0iMjc0LjM1MTYiIHkyPSIyNzQuMzUxNiIvPjxwb2x5Z29uIGZpbGw9IiNBODAwMzYiIHBvaW50cz0iMjIxLjUsMjg0LjM1MTYsMjExLjUsMjg4LjM1MTYsMjIxLjUsMjkyLjM1MTYsMjE3LjUsMjg4LjM1MTYiIHN0eWxlPSJzdHJva2U6I0E4MDAzNjtzdHJva2Utd2lkdGg6MS4wOyIvPjxsaW5lIHN0eWxlPSJzdHJva2U6I0E4MDAzNjtzdHJva2Utd2lkdGg6MS4wO3N0cm9rZS1kYXNoYXJyYXk6Mi4wLDIuMDsiIHgxPSIyMTUuNSIgeDI9IjQzOC41IiB5MT0iMjg4LjM1MTYiIHkyPSIyODguMzUxNiIvPjxwb2x5Z29uIGZpbGw9IiNBODAwMzYiIHBvaW50cz0iMTA4MC41LDMxMy42NjIxLDEwOTAuNSwzMTcuNjYyMSwxMDgwLjUsMzIxLjY2MjEsMTA4NC41LDMxNy42NjIxIiBzdHlsZT0ic3Ryb2tlOiNBODAwMzY7c3Ryb2tlLXdpZHRoOjEuMDsiLz48bGluZSBzdHlsZT0ic3Ryb2tlOiNBODAwMzY7c3Ryb2tlLXdpZHRoOjEuMDsiIHgxPSIyMTAuNSIgeDI9IjEwODYuNSIgeTE9IjMxNy42NjIxIiB5Mj0iMzE3LjY2MjEiLz48dGV4dCBmaWxsPSIjMDAwMDAwIiBmb250LWZhbWlseT0ic2Fucy1zZXJpZiIgZm9udC1zaXplPSIxMyIgbGVuZ3RoQWRqdXN0PSJzcGFjaW5nIiB0ZXh0TGVuZ3RoPSIxNjciIHg9IjIxNy41IiB5PSIzMTIuOTE5OSI+Z2V0R2xvYmFsTmFtZUJ5UmVzb3VyY2U8L3RleHQ+PHBvbHlnb24gZmlsbD0iI0E4MDAzNiIgcG9pbnRzPSIxMjkzLjUsMzQyLjk3MjcsMTMwMy41LDM0Ni45NzI3LDEyOTMuNSwzNTAuOTcyNywxMjk3LjUsMzQ2Ljk3MjciIHN0eWxlPSJzdHJva2U6I0E4MDAzNjtzdHJva2Utd2lkdGg6MS4wOyIvPjxsaW5lIHN0eWxlPSJzdHJva2U6I0E4MDAzNjtzdHJva2Utd2lkdGg6MS4wOyIgeDE9IjExMDIuNSIgeDI9IjEyOTkuNSIgeTE9IjM0Ni45NzI3IiB5Mj0iMzQ2Ljk3MjciLz48dGV4dCBmaWxsPSIjMDAwMDAwIiBmb250LWZhbWlseT0ic2Fucy1zZXJpZiIgZm9udC1zaXplPSIxMyIgbGVuZ3RoQWRqdXN0PSJzcGFjaW5nIiB0ZXh0TGVuZ3RoPSIxNjciIHg9IjExMDkuNSIgeT0iMzQyLjIzMDUiPmdldEdsb2JhbE5hbWVCeVJlc291cmNlPC90ZXh0Pjxwb2x5Z29uIGZpbGw9IiNBODAwMzYiIHBvaW50cz0iMTUwMy41LDM3Mi4yODMyLDE1MTMuNSwzNzYuMjgzMiwxNTAzLjUsMzgwLjI4MzIsMTUwNy41LDM3Ni4yODMyIiBzdHlsZT0ic3Ryb2tlOiNBODAwMzY7c3Ryb2tlLXdpZHRoOjEuMDsiLz48bGluZSBzdHlsZT0ic3Ryb2tlOiNBODAwMzY7c3Ryb2tlLXdpZHRoOjEuMDsiIHgxPSIxMzE1LjUiIHgyPSIxNTA5LjUiIHkxPSIzNzYuMjgzMiIgeTI9IjM3Ni4yODMyIi8+PHRleHQgZmlsbD0iIzAwMDAwMCIgZm9udC1mYW1pbHk9InNhbnMtc2VyaWYiIGZvbnQtc2l6ZT0iMTMiIGxlbmd0aEFkanVzdD0ic3BhY2luZyIgdGV4dExlbmd0aD0iMTY3IiB4PSIxMzIyLjUiIHk9IjM3MS41NDEiPmdldEdsb2JhbE5hbWVCeVJlc291cmNlPC90ZXh0Pjxwb2x5Z29uIGZpbGw9IiNBODAwMzYiIHBvaW50cz0iMTMyNi41LDM4Ni4yODMyLDEzMTYuNSwzOTAuMjgzMiwxMzI2LjUsMzk0LjI4MzIsMTMyMi41LDM5MC4yODMyIiBzdHlsZT0ic3Ryb2tlOiNBODAwMzY7c3Ryb2tlLXdpZHRoOjEuMDsiLz48bGluZSBzdHlsZT0ic3Ryb2tlOiNBODAwMzY7c3Ryb2tlLXdpZHRoOjEuMDtzdHJva2UtZGFzaGFycmF5OjIuMCwyLjA7IiB4MT0iMTMyMC41IiB4Mj0iMTUxOS41IiB5MT0iMzkwLjI4MzIiIHkyPSIzOTAuMjgzMiIvPjxwb2x5Z29uIGZpbGw9IiNBODAwMzYiIHBvaW50cz0iMTExMy41LDQwMC4yODMyLDExMDMuNSw0MDQuMjgzMiwxMTEzLjUsNDA4LjI4MzIsMTEwOS41LDQwNC4yODMyIiBzdHlsZT0ic3Ryb2tlOiNBODAwMzY7c3Ryb2tlLXdpZHRoOjEuMDsiLz48bGluZSBzdHlsZT0ic3Ryb2tlOiNBODAwMzY7c3Ryb2tlLXdpZHRoOjEuMDtzdHJva2UtZGFzaGFycmF5OjIuMCwyLjA7IiB4MT0iMTEwNy41IiB4Mj0iMTMwOS41IiB5MT0iNDA0LjI4MzIiIHkyPSI0MDQuMjgzMiIvPjxwb2x5Z29uIGZpbGw9IiNBODAwMzYiIHBvaW50cz0iMjIxLjUsNDE0LjI4MzIsMjExLjUsNDE4LjI4MzIsMjIxLjUsNDIyLjI4MzIsMjE3LjUsNDE4LjI4MzIiIHN0eWxlPSJzdHJva2U6I0E4MDAzNjtzdHJva2Utd2lkdGg6MS4wOyIvPjxsaW5lIHN0eWxlPSJzdHJva2U6I0E4MDAzNjtzdHJva2Utd2lkdGg6MS4wO3N0cm9rZS1kYXNoYXJyYXk6Mi4wLDIuMDsiIHgxPSIyMTUuNSIgeDI9IjEwOTYuNSIgeTE9IjQxOC4yODMyIiB5Mj0iNDE4LjI4MzIiLz48cG9seWdvbiBmaWxsPSIjQTgwMDM2IiBwb2ludHM9IjE2MTcuNSw0NDMuNTkzOCwxNjI3LjUsNDQ3LjU5MzgsMTYxNy41LDQ1MS41OTM4LDE2MjEuNSw0NDcuNTkzOCIgc3R5bGU9InN0cm9rZTojQTgwMDM2O3N0cm9rZS13aWR0aDoxLjA7Ii8+PGxpbmUgc3R5bGU9InN0cm9rZTojQTgwMDM2O3N0cm9rZS13aWR0aDoxLjA7IiB4MT0iMjEwLjUiIHgyPSIxNjIzLjUiIHkxPSI0NDcuNTkzOCIgeTI9IjQ0Ny41OTM4Ii8+PHRleHQgZmlsbD0iIzAwMDAwMCIgZm9udC1mYW1pbHk9InNhbnMtc2VyaWYiIGZvbnQtc2l6ZT0iMTMiIGxlbmd0aEFkanVzdD0ic3BhY2luZyIgdGV4dExlbmd0aD0iOTAiIHg9IjIxNy41IiB5PSI0NDIuODUxNiI+aXNFdmVuTnVtYmVyPC90ZXh0Pjxwb2x5Z29uIGZpbGw9IiNBODAwMzYiIHBvaW50cz0iMjIxLjUsNDU3LjU5MzgsMjExLjUsNDYxLjU5MzgsMjIxLjUsNDY1LjU5MzgsMjE3LjUsNDYxLjU5MzgiIHN0eWxlPSJzdHJva2U6I0E4MDAzNjtzdHJva2Utd2lkdGg6MS4wOyIvPjxsaW5lIHN0eWxlPSJzdHJva2U6I0E4MDAzNjtzdHJva2Utd2lkdGg6MS4wO3N0cm9rZS1kYXNoYXJyYXk6Mi4wLDIuMDsiIHgxPSIyMTUuNSIgeDI9IjE2MzMuNSIgeTE9IjQ2MS41OTM4IiB5Mj0iNDYxLjU5MzgiLz48cG9seWdvbiBmaWxsPSIjQTgwMDM2IiBwb2ludHM9Ijg5MC41LDQ4Ni45MDQzLDkwMC41LDQ5MC45MDQzLDg5MC41LDQ5NC45MDQzLDg5NC41LDQ5MC45MDQzIiBzdHlsZT0ic3Ryb2tlOiNBODAwMzY7c3Ryb2tlLXdpZHRoOjEuMDsiLz48bGluZSBzdHlsZT0ic3Ryb2tlOiNBODAwMzY7c3Ryb2tlLXdpZHRoOjEuMDsiIHgxPSIyMTAuNSIgeDI9Ijg5Ni41IiB5MT0iNDkwLjkwNDMiIHkyPSI0OTAuOTA0MyIvPjx0ZXh0IGZpbGw9IiMwMDAwMDAiIGZvbnQtZmFtaWx5PSJzYW5zLXNlcmlmIiBmb250LXNpemU9IjEzIiBsZW5ndGhBZGp1c3Q9InNwYWNpbmciIHRleHRMZW5ndGg9IjI1IiB4PSIyMTcuNSIgeT0iNDg2LjE2MjEiPm5ldzwvdGV4dD48cG9seWdvbiBmaWxsPSIjQTgwMDM2IiBwb2ludHM9IjIyMS41LDUwMC45MDQzLDIxMS41LDUwNC45MDQzLDIyMS41LDUwOC45MDQzLDIxNy41LDUwNC45MDQzIiBzdHlsZT0ic3Ryb2tlOiNBODAwMzY7c3Ryb2tlLXdpZHRoOjEuMDsiLz48bGluZSBzdHlsZT0ic3Ryb2tlOiNBODAwMzY7c3Ryb2tlLXdpZHRoOjEuMDtzdHJva2UtZGFzaGFycmF5OjIuMCwyLjA7IiB4MT0iMjE1LjUiIHgyPSI5MDYuNSIgeTE9IjUwNC45MDQzIiB5Mj0iNTA0LjkwNDMiLz48bGluZSBzdHlsZT0ic3Ryb2tlOiNBODAwMzY7c3Ryb2tlLXdpZHRoOjEuMDsiIHgxPSIyMTAuNSIgeDI9IjI1Ny41IiB5MT0iNTI5LjIxNDgiIHkyPSI1MjkuMjE0OCIvPjxsaW5lIHN0eWxlPSJzdHJva2U6I0E4MDAzNjtzdHJva2Utd2lkdGg6MS4wOyIgeDE9IjI1Ny41IiB4Mj0iMjU3LjUiIHkxPSI1MjkuMjE0OCIgeTI9IjU0Mi4yMTQ4Ii8+PGxpbmUgc3R5bGU9InN0cm9rZTojQTgwMDM2O3N0cm9rZS13aWR0aDoxLjA7IiB4MT0iMjE2LjUiIHgyPSIyNTcuNSIgeTE9IjU0Mi4yMTQ4IiB5Mj0iNTQyLjIxNDgiLz48cG9seWdvbiBmaWxsPSIjQTgwMDM2IiBwb2ludHM9IjIyNi41LDUzOC4yMTQ4LDIxNi41LDU0Mi4yMTQ4LDIyNi41LDU0Ni4yMTQ4LDIyMi41LDU0Mi4yMTQ4IiBzdHlsZT0ic3Ryb2tlOiNBODAwMzY7c3Ryb2tlLXdpZHRoOjEuMDsiLz48dGV4dCBmaWxsPSIjMDAwMDAwIiBmb250LWZhbWlseT0ic2Fucy1zZXJpZiIgZm9udC1zaXplPSIxMyIgbGVuZ3RoQWRqdXN0PSJzcGFjaW5nIiB0ZXh0TGVuZ3RoPSIyMSIgeD0iMjIyLjUiIHk9IjUyNC40NzI3Ij7Ou+KGkjwvdGV4dD48bGluZSBzdHlsZT0ic3Ryb2tlOiNBODAwMzY7c3Ryb2tlLXdpZHRoOjEuMDtzdHJva2UtZGFzaGFycmF5OjIuMCwyLjA7IiB4MT0iMjE1LjUiIHgyPSIyNTcuNSIgeTE9IjU2Ni4yMTQ4IiB5Mj0iNTY2LjIxNDgiLz48bGluZSBzdHlsZT0ic3Ryb2tlOiNBODAwMzY7c3Ryb2tlLXdpZHRoOjEuMDtzdHJva2UtZGFzaGFycmF5OjIuMCwyLjA7IiB4MT0iMjU3LjUiIHgyPSIyNTcuNSIgeTE9IjU2Ni4yMTQ4IiB5Mj0iNTc5LjIxNDgiLz48bGluZSBzdHlsZT0ic3Ryb2tlOiNBODAwMzY7c3Ryb2tlLXdpZHRoOjEuMDtzdHJva2UtZGFzaGFycmF5OjIuMCwyLjA7IiB4MT0iMjEwLjUiIHgyPSIyNTcuNSIgeTE9IjU3OS4yMTQ4IiB5Mj0iNTc5LjIxNDgiLz48cG9seWdvbiBmaWxsPSIjQTgwMDM2IiBwb2ludHM9IjIyMC41LDU3NS4yMTQ4LDIxMC41LDU3OS4yMTQ4LDIyMC41LDU4My4yMTQ4LDIxNi41LDU3OS4yMTQ4IiBzdHlsZT0ic3Ryb2tlOiNBODAwMzY7c3Ryb2tlLXdpZHRoOjEuMDsiLz48cG9seWdvbiBmaWxsPSIjQTgwMDM2IiBwb2ludHM9Ijg5MC41LDU5OS41MjU0LDkwMC41LDYwMy41MjU0LDg5MC41LDYwNy41MjU0LDg5NC41LDYwMy41MjU0IiBzdHlsZT0ic3Ryb2tlOiNBODAwMzY7c3Ryb2tlLXdpZHRoOjEuMDsiLz48bGluZSBzdHlsZT0ic3Ryb2tlOiNBODAwMzY7c3Ryb2tlLXdpZHRoOjEuMDsiIHgxPSIyMTAuNSIgeDI9Ijg5Ni41IiB5MT0iNjAzLjUyNTQiIHkyPSI2MDMuNTI1NCIvPjx0ZXh0IGZpbGw9IiMwMDAwMDAiIGZvbnQtZmFtaWx5PSJzYW5zLXNlcmlmIiBmb250LXNpemU9IjEzIiBsZW5ndGhBZGp1c3Q9InNwYWNpbmciIHRleHRMZW5ndGg9IjI1IiB4PSIyMTcuNSIgeT0iNTk4Ljc4MzIiPm5ldzwvdGV4dD48cG9seWdvbiBmaWxsPSIjQTgwMDM2IiBwb2ludHM9IjIyMS41LDYxMy41MjU0LDIxMS41LDYxNy41MjU0LDIyMS41LDYyMS41MjU0LDIxNy41LDYxNy41MjU0IiBzdHlsZT0ic3Ryb2tlOiNBODAwMzY7c3Ryb2tlLXdpZHRoOjEuMDsiLz48bGluZSBzdHlsZT0ic3Ryb2tlOiNBODAwMzY7c3Ryb2tlLXdpZHRoOjEuMDtzdHJva2UtZGFzaGFycmF5OjIuMCwyLjA7IiB4MT0iMjE1LjUiIHgyPSI5MDYuNSIgeTE9IjYxNy41MjU0IiB5Mj0iNjE3LjUyNTQiLz48cG9seWdvbiBmaWxsPSIjQTgwMDM2IiBwb2ludHM9IjQyMi41LDY0Mi44MzU5LDQzMi41LDY0Ni44MzU5LDQyMi41LDY1MC44MzU5LDQyNi41LDY0Ni44MzU5IiBzdHlsZT0ic3Ryb2tlOiNBODAwMzY7c3Ryb2tlLXdpZHRoOjEuMDsiLz48bGluZSBzdHlsZT0ic3Ryb2tlOiNBODAwMzY7c3Ryb2tlLXdpZHRoOjEuMDsiIHgxPSIyMTAuNSIgeDI9IjQyOC41IiB5MT0iNjQ2LjgzNTkiIHkyPSI2NDYuODM1OSIvPjx0ZXh0IGZpbGw9IiMwMDAwMDAiIGZvbnQtZmFtaWx5PSJzYW5zLXNlcmlmIiBmb250LXNpemU9IjEzIiBsZW5ndGhBZGp1c3Q9InNwYWNpbmciIHRleHRMZW5ndGg9IjIwNSIgeD0iMjE3LjUiIHk9IjY0Mi4wOTM4Ij5iYW5uZXJBbmRSZXNvdXJjZVR5cGVWYWxpZGF0ZTwvdGV4dD48cG9seWdvbiBmaWxsPSIjQTgwMDM2IiBwb2ludHM9IjY1OC41LDY3Mi4xNDY1LDY2OC41LDY3Ni4xNDY1LDY1OC41LDY4MC4xNDY1LDY2Mi41LDY3Ni4xNDY1IiBzdHlsZT0ic3Ryb2tlOiNBODAwMzY7c3Ryb2tlLXdpZHRoOjEuMDsiLz48bGluZSBzdHlsZT0ic3Ryb2tlOiNBODAwMzY7c3Ryb2tlLXdpZHRoOjEuMDsiIHgxPSI0NDQuNSIgeDI9IjY2NC41IiB5MT0iNjc2LjE0NjUiIHkyPSI2NzYuMTQ2NSIvPjx0ZXh0IGZpbGw9IiMwMDAwMDAiIGZvbnQtZmFtaWx5PSJzYW5zLXNlcmlmIiBmb250LXNpemU9IjEzIiBsZW5ndGhBZGp1c3Q9InNwYWNpbmciIHRleHRMZW5ndGg9IjIwNSIgeD0iNDUxLjUiIHk9IjY3MS40MDQzIj5iYW5uZXJBbmRSZXNvdXJjZVR5cGVWYWxpZGF0ZTwvdGV4dD48cG9seWdvbiBmaWxsPSIjQTgwMDM2IiBwb2ludHM9Ijg5MC41LDcwMS40NTcsOTAwLjUsNzA1LjQ1Nyw4OTAuNSw3MDkuNDU3LDg5NC41LDcwNS40NTciIHN0eWxlPSJzdHJva2U6I0E4MDAzNjtzdHJva2Utd2lkdGg6MS4wOyIvPjxsaW5lIHN0eWxlPSJzdHJva2U6I0E4MDAzNjtzdHJva2Utd2lkdGg6MS4wOyIgeDE9IjY4MC41IiB4Mj0iODk2LjUiIHkxPSI3MDUuNDU3IiB5Mj0iNzA1LjQ1NyIvPjx0ZXh0IGZpbGw9IiMwMDAwMDAiIGZvbnQtZmFtaWx5PSJzYW5zLXNlcmlmIiBmb250LXNpemU9IjEzIiBsZW5ndGhBZGp1c3Q9InNwYWNpbmciIHRleHRMZW5ndGg9IjI1IiB4PSI2ODcuNSIgeT0iNzAwLjcxNDgiPm5ldzwvdGV4dD48cG9seWdvbiBmaWxsPSIjQTgwMDM2IiBwb2ludHM9IjY5MS41LDcxNS40NTcsNjgxLjUsNzE5LjQ1Nyw2OTEuNSw3MjMuNDU3LDY4Ny41LDcxOS40NTciIHN0eWxlPSJzdHJva2U6I0E4MDAzNjtzdHJva2Utd2lkdGg6MS4wOyIvPjxsaW5lIHN0eWxlPSJzdHJva2U6I0E4MDAzNjtzdHJva2Utd2lkdGg6MS4wO3N0cm9rZS1kYXNoYXJyYXk6Mi4wLDIuMDsiIHgxPSI2ODUuNSIgeDI9IjkwNi41IiB5MT0iNzE5LjQ1NyIgeTI9IjcxOS40NTciLz48cG9seWdvbiBmaWxsPSIjQTgwMDM2IiBwb2ludHM9Ijg5MC41LDc0NC43Njc2LDkwMC41LDc0OC43Njc2LDg5MC41LDc1Mi43Njc2LDg5NC41LDc0OC43Njc2IiBzdHlsZT0ic3Ryb2tlOiNBODAwMzY7c3Ryb2tlLXdpZHRoOjEuMDsiLz48bGluZSBzdHlsZT0ic3Ryb2tlOiNBODAwMzY7c3Ryb2tlLXdpZHRoOjEuMDsiIHgxPSI2ODAuNSIgeDI9Ijg5Ni41IiB5MT0iNzQ4Ljc2NzYiIHkyPSI3NDguNzY3NiIvPjx0ZXh0IGZpbGw9IiMwMDAwMDAiIGZvbnQtZmFtaWx5PSJzYW5zLXNlcmlmIiBmb250LXNpemU9IjEzIiBsZW5ndGhBZGp1c3Q9InNwYWNpbmciIHRleHRMZW5ndGg9IjI1IiB4PSI2ODcuNSIgeT0iNzQ0LjAyNTQiPm5ldzwvdGV4dD48cG9seWdvbiBmaWxsPSIjQTgwMDM2IiBwb2ludHM9IjY5MS41LDc1OC43Njc2LDY4MS41LDc2Mi43Njc2LDY5MS41LDc2Ni43Njc2LDY4Ny41LDc2Mi43Njc2IiBzdHlsZT0ic3Ryb2tlOiNBODAwMzY7c3Ryb2tlLXdpZHRoOjEuMDsiLz48bGluZSBzdHlsZT0ic3Ryb2tlOiNBODAwMzY7c3Ryb2tlLXdpZHRoOjEuMDtzdHJva2UtZGFzaGFycmF5OjIuMCwyLjA7IiB4MT0iNjg1LjUiIHgyPSI5MDYuNSIgeTE9Ijc2Mi43Njc2IiB5Mj0iNzYyLjc2NzYiLz48bGluZSBzdHlsZT0ic3Ryb2tlOiNBODAwMzY7c3Ryb2tlLXdpZHRoOjEuMDsiIHgxPSI2ODAuNSIgeDI9IjcyNy41IiB5MT0iNzg3LjA3ODEiIHkyPSI3ODcuMDc4MSIvPjxsaW5lIHN0eWxlPSJzdHJva2U6I0E4MDAzNjtzdHJva2Utd2lkdGg6MS4wOyIgeDE9IjcyNy41IiB4Mj0iNzI3LjUiIHkxPSI3ODcuMDc4MSIgeTI9IjgwMC4wNzgxIi8+PGxpbmUgc3R5bGU9InN0cm9rZTojQTgwMDM2O3N0cm9rZS13aWR0aDoxLjA7IiB4MT0iNjg2LjUiIHgyPSI3MjcuNSIgeTE9IjgwMC4wNzgxIiB5Mj0iODAwLjA3ODEiLz48cG9seWdvbiBmaWxsPSIjQTgwMDM2IiBwb2ludHM9IjY5Ni41LDc5Ni4wNzgxLDY4Ni41LDgwMC4wNzgxLDY5Ni41LDgwNC4wNzgxLDY5Mi41LDgwMC4wNzgxIiBzdHlsZT0ic3Ryb2tlOiNBODAwMzY7c3Ryb2tlLXdpZHRoOjEuMDsiLz48dGV4dCBmaWxsPSIjMDAwMDAwIiBmb250LWZhbWlseT0ic2Fucy1zZXJpZiIgZm9udC1zaXplPSIxMyIgbGVuZ3RoQWRqdXN0PSJzcGFjaW5nIiB0ZXh0TGVuZ3RoPSIyMDgiIHg9IjY5Mi41IiB5PSI3ODIuMzM1OSI+aXNCYW5uZXJ0eXBlRXF1YWxzUmVzb3VyY2VUeXBlPC90ZXh0PjxsaW5lIHN0eWxlPSJzdHJva2U6I0E4MDAzNjtzdHJva2Utd2lkdGg6MS4wO3N0cm9rZS1kYXNoYXJyYXk6Mi4wLDIuMDsiIHgxPSI2ODUuNSIgeDI9IjcyNy41IiB5MT0iODI0LjA3ODEiIHkyPSI4MjQuMDc4MSIvPjxsaW5lIHN0eWxlPSJzdHJva2U6I0E4MDAzNjtzdHJva2Utd2lkdGg6MS4wO3N0cm9rZS1kYXNoYXJyYXk6Mi4wLDIuMDsiIHgxPSI3MjcuNSIgeDI9IjcyNy41IiB5MT0iODI0LjA3ODEiIHkyPSI4MzcuMDc4MSIvPjxsaW5lIHN0eWxlPSJzdHJva2U6I0E4MDAzNjtzdHJva2Utd2lkdGg6MS4wO3N0cm9rZS1kYXNoYXJyYXk6Mi4wLDIuMDsiIHgxPSI2ODAuNSIgeDI9IjcyNy41IiB5MT0iODM3LjA3ODEiIHkyPSI4MzcuMDc4MSIvPjxwb2x5Z29uIGZpbGw9IiNBODAwMzYiIHBvaW50cz0iNjkwLjUsODMzLjA3ODEsNjgwLjUsODM3LjA3ODEsNjkwLjUsODQxLjA3ODEsNjg2LjUsODM3LjA3ODEiIHN0eWxlPSJzdHJva2U6I0E4MDAzNjtzdHJva2Utd2lkdGg6MS4wOyIvPjxwb2x5Z29uIGZpbGw9IiNBODAwMzYiIHBvaW50cz0iODkwLjUsODU3LjM4ODcsOTAwLjUsODYxLjM4ODcsODkwLjUsODY1LjM4ODcsODk0LjUsODYxLjM4ODciIHN0eWxlPSJzdHJva2U6I0E4MDAzNjtzdHJva2Utd2lkdGg6MS4wOyIvPjxsaW5lIHN0eWxlPSJzdHJva2U6I0E4MDAzNjtzdHJva2Utd2lkdGg6MS4wOyIgeDE9IjY4MC41IiB4Mj0iODk2LjUiIHkxPSI4NjEuMzg4NyIgeTI9Ijg2MS4zODg3Ii8+PHRleHQgZmlsbD0iIzAwMDAwMCIgZm9udC1mYW1pbHk9InNhbnMtc2VyaWYiIGZvbnQtc2l6ZT0iMTMiIGxlbmd0aEFkanVzdD0ic3BhY2luZyIgdGV4dExlbmd0aD0iMjUiIHg9IjY4Ny41IiB5PSI4NTYuNjQ2NSI+bmV3PC90ZXh0Pjxwb2x5Z29uIGZpbGw9IiNBODAwMzYiIHBvaW50cz0iNjkxLjUsODcxLjM4ODcsNjgxLjUsODc1LjM4ODcsNjkxLjUsODc5LjM4ODcsNjg3LjUsODc1LjM4ODciIHN0eWxlPSJzdHJva2U6I0E4MDAzNjtzdHJva2Utd2lkdGg6MS4wOyIvPjxsaW5lIHN0eWxlPSJzdHJva2U6I0E4MDAzNjtzdHJva2Utd2lkdGg6MS4wO3N0cm9rZS1kYXNoYXJyYXk6Mi4wLDIuMDsiIHgxPSI2ODUuNSIgeDI9IjkwNi41IiB5MT0iODc1LjM4ODciIHkyPSI4NzUuMzg4NyIvPjxsaW5lIHN0eWxlPSJzdHJva2U6I0E4MDAzNjtzdHJva2Utd2lkdGg6MS4wOyIgeDE9IjY4MC41IiB4Mj0iNzI3LjUiIHkxPSI4OTkuNjk5MiIgeTI9Ijg5OS42OTkyIi8+PGxpbmUgc3R5bGU9InN0cm9rZTojQTgwMDM2O3N0cm9rZS13aWR0aDoxLjA7IiB4MT0iNzI3LjUiIHgyPSI3MjcuNSIgeTE9Ijg5OS42OTkyIiB5Mj0iOTEyLjY5OTIiLz48bGluZSBzdHlsZT0ic3Ryb2tlOiNBODAwMzY7c3Ryb2tlLXdpZHRoOjEuMDsiIHgxPSI2ODYuNSIgeDI9IjcyNy41IiB5MT0iOTEyLjY5OTIiIHkyPSI5MTIuNjk5MiIvPjxwb2x5Z29uIGZpbGw9IiNBODAwMzYiIHBvaW50cz0iNjk2LjUsOTA4LjY5OTIsNjg2LjUsOTEyLjY5OTIsNjk2LjUsOTE2LjY5OTIsNjkyLjUsOTEyLjY5OTIiIHN0eWxlPSJzdHJva2U6I0E4MDAzNjtzdHJva2Utd2lkdGg6MS4wOyIvPjx0ZXh0IGZpbGw9IiMwMDAwMDAiIGZvbnQtZmFtaWx5PSJzYW5zLXNlcmlmIiBmb250LXNpemU9IjEzIiBsZW5ndGhBZGp1c3Q9InNwYWNpbmciIHRleHRMZW5ndGg9IjEwMCIgeD0iNjkyLjUiIHk9Ijg5NC45NTciPnZhbGlkVGltZVN0YW1wPC90ZXh0PjxsaW5lIHN0eWxlPSJzdHJva2U6I0E4MDAzNjtzdHJva2Utd2lkdGg6MS4wO3N0cm9rZS1kYXNoYXJyYXk6Mi4wLDIuMDsiIHgxPSI2ODUuNSIgeDI9IjcyNy41IiB5MT0iOTM2LjY5OTIiIHkyPSI5MzYuNjk5MiIvPjxsaW5lIHN0eWxlPSJzdHJva2U6I0E4MDAzNjtzdHJva2Utd2lkdGg6MS4wO3N0cm9rZS1kYXNoYXJyYXk6Mi4wLDIuMDsiIHgxPSI3MjcuNSIgeDI9IjcyNy41IiB5MT0iOTM2LjY5OTIiIHkyPSI5NDkuNjk5MiIvPjxsaW5lIHN0eWxlPSJzdHJva2U6I0E4MDAzNjtzdHJva2Utd2lkdGg6MS4wO3N0cm9rZS1kYXNoYXJyYXk6Mi4wLDIuMDsiIHgxPSI2ODAuNSIgeDI9IjcyNy41IiB5MT0iOTQ5LjY5OTIiIHkyPSI5NDkuNjk5MiIvPjxwb2x5Z29uIGZpbGw9IiNBODAwMzYiIHBvaW50cz0iNjkwLjUsOTQ1LjY5OTIsNjgwLjUsOTQ5LjY5OTIsNjkwLjUsOTUzLjY5OTIsNjg2LjUsOTQ5LjY5OTIiIHN0eWxlPSJzdHJva2U6I0E4MDAzNjtzdHJva2Utd2lkdGg6MS4wOyIvPjxwb2x5Z29uIGZpbGw9IiNBODAwMzYiIHBvaW50cz0iODkwLjUsOTcwLjAwOTgsOTAwLjUsOTc0LjAwOTgsODkwLjUsOTc4LjAwOTgsODk0LjUsOTc0LjAwOTgiIHN0eWxlPSJzdHJva2U6I0E4MDAzNjtzdHJva2Utd2lkdGg6MS4wOyIvPjxsaW5lIHN0eWxlPSJzdHJva2U6I0E4MDAzNjtzdHJva2Utd2lkdGg6MS4wOyIgeDE9IjY4MC41IiB4Mj0iODk2LjUiIHkxPSI5NzQuMDA5OCIgeTI9Ijk3NC4wMDk4Ii8+PHRleHQgZmlsbD0iIzAwMDAwMCIgZm9udC1mYW1pbHk9InNhbnMtc2VyaWYiIGZvbnQtc2l6ZT0iMTMiIGxlbmd0aEFkanVzdD0ic3BhY2luZyIgdGV4dExlbmd0aD0iMjUiIHg9IjY4Ny41IiB5PSI5NjkuMjY3NiI+bmV3PC90ZXh0Pjxwb2x5Z29uIGZpbGw9IiNBODAwMzYiIHBvaW50cz0iNjkxLjUsOTg0LjAwOTgsNjgxLjUsOTg4LjAwOTgsNjkxLjUsOTkyLjAwOTgsNjg3LjUsOTg4LjAwOTgiIHN0eWxlPSJzdHJva2U6I0E4MDAzNjtzdHJva2Utd2lkdGg6MS4wOyIvPjxsaW5lIHN0eWxlPSJzdHJva2U6I0E4MDAzNjtzdHJva2Utd2lkdGg6MS4wO3N0cm9rZS1kYXNoYXJyYXk6Mi4wLDIuMDsiIHgxPSI2ODUuNSIgeDI9IjkwNi41IiB5MT0iOTg4LjAwOTgiIHkyPSI5ODguMDA5OCIvPjxsaW5lIHN0eWxlPSJzdHJva2U6I0E4MDAzNjtzdHJva2Utd2lkdGg6MS4wOyIgeDE9IjY4MC41IiB4Mj0iNzI3LjUiIHkxPSIxMDEyLjMyMDMiIHkyPSIxMDEyLjMyMDMiLz48bGluZSBzdHlsZT0ic3Ryb2tlOiNBODAwMzY7c3Ryb2tlLXdpZHRoOjEuMDsiIHgxPSI3MjcuNSIgeDI9IjcyNy41IiB5MT0iMTAxMi4zMjAzIiB5Mj0iMTAyNS4zMjAzIi8+PGxpbmUgc3R5bGU9InN0cm9rZTojQTgwMDM2O3N0cm9rZS13aWR0aDoxLjA7IiB4MT0iNjg2LjUiIHgyPSI3MjcuNSIgeTE9IjEwMjUuMzIwMyIgeTI9IjEwMjUuMzIwMyIvPjxwb2x5Z29uIGZpbGw9IiNBODAwMzYiIHBvaW50cz0iNjk2LjUsMTAyMS4zMjAzLDY4Ni41LDEwMjUuMzIwMyw2OTYuNSwxMDI5LjMyMDMsNjkyLjUsMTAyNS4zMjAzIiBzdHlsZT0ic3Ryb2tlOiNBODAwMzY7c3Ryb2tlLXdpZHRoOjEuMDsiLz48dGV4dCBmaWxsPSIjMDAwMDAwIiBmb250LWZhbWlseT0ic2Fucy1zZXJpZiIgZm9udC1zaXplPSIxMyIgbGVuZ3RoQWRqdXN0PSJzcGFjaW5nIiB0ZXh0TGVuZ3RoPSIxMDAiIHg9IjY5Mi41IiB5PSIxMDA3LjU3ODEiPnZhbGlkVGltZVN0YW1wPC90ZXh0PjxsaW5lIHN0eWxlPSJzdHJva2U6I0E4MDAzNjtzdHJva2Utd2lkdGg6MS4wO3N0cm9rZS1kYXNoYXJyYXk6Mi4wLDIuMDsiIHgxPSI2ODUuNSIgeDI9IjcyNy41IiB5MT0iMTA0OS4zMjAzIiB5Mj0iMTA0OS4zMjAzIi8+PGxpbmUgc3R5bGU9InN0cm9rZTojQTgwMDM2O3N0cm9rZS13aWR0aDoxLjA7c3Ryb2tlLWRhc2hhcnJheToyLjAsMi4wOyIgeDE9IjcyNy41IiB4Mj0iNzI3LjUiIHkxPSIxMDQ5LjMyMDMiIHkyPSIxMDYyLjMyMDMiLz48bGluZSBzdHlsZT0ic3Ryb2tlOiNBODAwMzY7c3Ryb2tlLXdpZHRoOjEuMDtzdHJva2UtZGFzaGFycmF5OjIuMCwyLjA7IiB4MT0iNjgwLjUiIHgyPSI3MjcuNSIgeTE9IjEwNjIuMzIwMyIgeTI9IjEwNjIuMzIwMyIvPjxwb2x5Z29uIGZpbGw9IiNBODAwMzYiIHBvaW50cz0iNjkwLjUsMTA1OC4zMjAzLDY4MC41LDEwNjIuMzIwMyw2OTAuNSwxMDY2LjMyMDMsNjg2LjUsMTA2Mi4zMjAzIiBzdHlsZT0ic3Ryb2tlOiNBODAwMzY7c3Ryb2tlLXdpZHRoOjEuMDsiLz48cG9seWdvbiBmaWxsPSIjQTgwMDM2IiBwb2ludHM9Ijg5MC41LDEwODIuNjMwOSw5MDAuNSwxMDg2LjYzMDksODkwLjUsMTA5MC42MzA5LDg5NC41LDEwODYuNjMwOSIgc3R5bGU9InN0cm9rZTojQTgwMDM2O3N0cm9rZS13aWR0aDoxLjA7Ii8+PGxpbmUgc3R5bGU9InN0cm9rZTojQTgwMDM2O3N0cm9rZS13aWR0aDoxLjA7IiB4MT0iNjgwLjUiIHgyPSI4OTYuNSIgeTE9IjEwODYuNjMwOSIgeTI9IjEwODYuNjMwOSIvPjx0ZXh0IGZpbGw9IiMwMDAwMDAiIGZvbnQtZmFtaWx5PSJzYW5zLXNlcmlmIiBmb250LXNpemU9IjEzIiBsZW5ndGhBZGp1c3Q9InNwYWNpbmciIHRleHRMZW5ndGg9IjI1IiB4PSI2ODcuNSIgeT0iMTA4MS44ODg3Ij5uZXc8L3RleHQ+PHBvbHlnb24gZmlsbD0iI0E4MDAzNiIgcG9pbnRzPSI2OTEuNSwxMDk2LjYzMDksNjgxLjUsMTEwMC42MzA5LDY5MS41LDExMDQuNjMwOSw2ODcuNSwxMTAwLjYzMDkiIHN0eWxlPSJzdHJva2U6I0E4MDAzNjtzdHJva2Utd2lkdGg6MS4wOyIvPjxsaW5lIHN0eWxlPSJzdHJva2U6I0E4MDAzNjtzdHJva2Utd2lkdGg6MS4wO3N0cm9rZS1kYXNoYXJyYXk6Mi4wLDIuMDsiIHgxPSI2ODUuNSIgeDI9IjkwNi41IiB5MT0iMTEwMC42MzA5IiB5Mj0iMTEwMC42MzA5Ii8+PHBvbHlnb24gZmlsbD0iI0E4MDAzNiIgcG9pbnRzPSI0NTUuNSwxMTEwLjYzMDksNDQ1LjUsMTExNC42MzA5LDQ1NS41LDExMTguNjMwOSw0NTEuNSwxMTE0LjYzMDkiIHN0eWxlPSJzdHJva2U6I0E4MDAzNjtzdHJva2Utd2lkdGg6MS4wOyIvPjxsaW5lIHN0eWxlPSJzdHJva2U6I0E4MDAzNjtzdHJva2Utd2lkdGg6MS4wO3N0cm9rZS1kYXNoYXJyYXk6Mi4wLDIuMDsiIHgxPSI0NDkuNSIgeDI9IjY3NC41IiB5MT0iMTExNC42MzA5IiB5Mj0iMTExNC42MzA5Ii8+PHBvbHlnb24gZmlsbD0iI0E4MDAzNiIgcG9pbnRzPSIyMjEuNSwxMTI0LjYzMDksMjExLjUsMTEyOC42MzA5LDIyMS41LDExMzIuNjMwOSwyMTcuNSwxMTI4LjYzMDkiIHN0eWxlPSJzdHJva2U6I0E4MDAzNjtzdHJva2Utd2lkdGg6MS4wOyIvPjxsaW5lIHN0eWxlPSJzdHJva2U6I0E4MDAzNjtzdHJva2Utd2lkdGg6MS4wO3N0cm9rZS1kYXNoYXJyYXk6Mi4wLDIuMDsiIHgxPSIyMTUuNSIgeDI9IjQzOC41IiB5MT0iMTEyOC42MzA5IiB5Mj0iMTEyOC42MzA5Ii8+PHBvbHlnb24gZmlsbD0iI0E4MDAzNiIgcG9pbnRzPSI0MjIuNSwxMTUzLjk0MTQsNDMyLjUsMTE1Ny45NDE0LDQyMi41LDExNjEuOTQxNCw0MjYuNSwxMTU3Ljk0MTQiIHN0eWxlPSJzdHJva2U6I0E4MDAzNjtzdHJva2Utd2lkdGg6MS4wOyIvPjxsaW5lIHN0eWxlPSJzdHJva2U6I0E4MDAzNjtzdHJva2Utd2lkdGg6MS4wOyIgeDE9IjIxMC41IiB4Mj0iNDI4LjUiIHkxPSIxMTU3Ljk0MTQiIHkyPSIxMTU3Ljk0MTQiLz48dGV4dCBmaWxsPSIjMDAwMDAwIiBmb250LWZhbWlseT0ic2Fucy1zZXJpZiIgZm9udC1zaXplPSIxMyIgbGVuZ3RoQWRqdXN0PSJzcGFjaW5nIiB0ZXh0TGVuZ3RoPSIxNTkiIHg9IjIxNy41IiB5PSIxMTUzLjE5OTIiPnZhbGlkYXRlTWt0UmVzb3VyY2VEYXRhPC90ZXh0Pjxwb2x5Z29uIGZpbGw9IiNBODAwMzYiIHBvaW50cz0iNjU4LjUsMTE4My4yNTIsNjY4LjUsMTE4Ny4yNTIsNjU4LjUsMTE5MS4yNTIsNjYyLjUsMTE4Ny4yNTIiIHN0eWxlPSJzdHJva2U6I0E4MDAzNjtzdHJva2Utd2lkdGg6MS4wOyIvPjxsaW5lIHN0eWxlPSJzdHJva2U6I0E4MDAzNjtzdHJva2Utd2lkdGg6MS4wOyIgeDE9IjQ0NC41IiB4Mj0iNjY0LjUiIHkxPSIxMTg3LjI1MiIgeTI9IjExODcuMjUyIi8+PHRleHQgZmlsbD0iIzAwMDAwMCIgZm9udC1mYW1pbHk9InNhbnMtc2VyaWYiIGZvbnQtc2l6ZT0iMTMiIGxlbmd0aEFkanVzdD0ic3BhY2luZyIgdGV4dExlbmd0aD0iMTU5IiB4PSI0NTEuNSIgeT0iMTE4Mi41MDk4Ij52YWxpZGF0ZU1rdFJlc291cmNlRGF0YTwvdGV4dD48bGluZSBzdHlsZT0ic3Ryb2tlOiNBODAwMzY7c3Ryb2tlLXdpZHRoOjEuMDsiIHgxPSI2ODAuNSIgeDI9IjcyNy41IiB5MT0iMTIxMS41NjI1IiB5Mj0iMTIxMS41NjI1Ii8+PGxpbmUgc3R5bGU9InN0cm9rZTojQTgwMDM2O3N0cm9rZS13aWR0aDoxLjA7IiB4MT0iNzI3LjUiIHgyPSI3MjcuNSIgeTE9IjEyMTEuNTYyNSIgeTI9IjEyMjQuNTYyNSIvPjxsaW5lIHN0eWxlPSJzdHJva2U6I0E4MDAzNjtzdHJva2Utd2lkdGg6MS4wOyIgeDE9IjY4Ni41IiB4Mj0iNzI3LjUiIHkxPSIxMjI0LjU2MjUiIHkyPSIxMjI0LjU2MjUiLz48cG9seWdvbiBmaWxsPSIjQTgwMDM2IiBwb2ludHM9IjY5Ni41LDEyMjAuNTYyNSw2ODYuNSwxMjI0LjU2MjUsNjk2LjUsMTIyOC41NjI1LDY5Mi41LDEyMjQuNTYyNSIgc3R5bGU9InN0cm9rZTojQTgwMDM2O3N0cm9rZS13aWR0aDoxLjA7Ii8+PHRleHQgZmlsbD0iIzAwMDAwMCIgZm9udC1mYW1pbHk9InNhbnMtc2VyaWYiIGZvbnQtc2l6ZT0iMTMiIGxlbmd0aEFkanVzdD0ic3BhY2luZyIgdGV4dExlbmd0aD0iMTQ0IiB4PSI2OTIuNSIgeT0iMTIwNi44MjAzIj52YWxpZGF0ZUltYWdlUmVzb3VyY2U8L3RleHQ+PHBvbHlnb24gZmlsbD0iI0E4MDAzNiIgcG9pbnRzPSI4OTAuNSwxMjU0Ljg3Myw5MDAuNSwxMjU4Ljg3Myw4OTAuNSwxMjYyLjg3Myw4OTQuNSwxMjU4Ljg3MyIgc3R5bGU9InN0cm9rZTojQTgwMDM2O3N0cm9rZS13aWR0aDoxLjA7Ii8+PGxpbmUgc3R5bGU9InN0cm9rZTojQTgwMDM2O3N0cm9rZS13aWR0aDoxLjA7IiB4MT0iNjg1LjUiIHgyPSI4OTYuNSIgeTE9IjEyNTguODczIiB5Mj0iMTI1OC44NzMiLz48dGV4dCBmaWxsPSIjMDAwMDAwIiBmb250LWZhbWlseT0ic2Fucy1zZXJpZiIgZm9udC1zaXplPSIxMyIgbGVuZ3RoQWRqdXN0PSJzcGFjaW5nIiB0ZXh0TGVuZ3RoPSIyNSIgeD0iNjkyLjUiIHk9IjEyNTQuMTMwOSI+bmV3PC90ZXh0Pjxwb2x5Z29uIGZpbGw9IiNBODAwMzYiIHBvaW50cz0iNjk2LjUsMTI2OC44NzMsNjg2LjUsMTI3Mi44NzMsNjk2LjUsMTI3Ni44NzMsNjkyLjUsMTI3Mi44NzMiIHN0eWxlPSJzdHJva2U6I0E4MDAzNjtzdHJva2Utd2lkdGg6MS4wOyIvPjxsaW5lIHN0eWxlPSJzdHJva2U6I0E4MDAzNjtzdHJva2Utd2lkdGg6MS4wO3N0cm9rZS1kYXNoYXJyYXk6Mi4wLDIuMDsiIHgxPSI2OTAuNSIgeDI9IjkwNi41IiB5MT0iMTI3Mi44NzMiIHkyPSIxMjcyLjg3MyIvPjxwb2x5Z29uIGZpbGw9IiNBODAwMzYiIHBvaW50cz0iODkwLjUsMTI5OC4xODM2LDkwMC41LDEzMDIuMTgzNiw4OTAuNSwxMzA2LjE4MzYsODk0LjUsMTMwMi4xODM2IiBzdHlsZT0ic3Ryb2tlOiNBODAwMzY7c3Ryb2tlLXdpZHRoOjEuMDsiLz48bGluZSBzdHlsZT0ic3Ryb2tlOiNBODAwMzY7c3Ryb2tlLXdpZHRoOjEuMDsiIHgxPSI2ODUuNSIgeDI9Ijg5Ni41IiB5MT0iMTMwMi4xODM2IiB5Mj0iMTMwMi4xODM2Ii8+PHRleHQgZmlsbD0iIzAwMDAwMCIgZm9udC1mYW1pbHk9InNhbnMtc2VyaWYiIGZvbnQtc2l6ZT0iMTMiIGxlbmd0aEFkanVzdD0ic3BhY2luZyIgdGV4dExlbmd0aD0iMjUiIHg9IjY5Mi41IiB5PSIxMjk3LjQ0MTQiPm5ldzwvdGV4dD48cG9seWdvbiBmaWxsPSIjQTgwMDM2IiBwb2ludHM9IjY5Ni41LDEzMTIuMTgzNiw2ODYuNSwxMzE2LjE4MzYsNjk2LjUsMTMyMC4xODM2LDY5Mi41LDEzMTYuMTgzNiIgc3R5bGU9InN0cm9rZTojQTgwMDM2O3N0cm9rZS13aWR0aDoxLjA7Ii8+PGxpbmUgc3R5bGU9InN0cm9rZTojQTgwMDM2O3N0cm9rZS13aWR0aDoxLjA7c3Ryb2tlLWRhc2hhcnJheToyLjAsMi4wOyIgeDE9IjY5MC41IiB4Mj0iOTA2LjUiIHkxPSIxMzE2LjE4MzYiIHkyPSIxMzE2LjE4MzYiLz48bGluZSBzdHlsZT0ic3Ryb2tlOiNBODAwMzY7c3Ryb2tlLXdpZHRoOjEuMDtzdHJva2UtZGFzaGFycmF5OjIuMCwyLjA7IiB4MT0iNjg1LjUiIHgyPSI3MjcuNSIgeTE9IjEzMzUuMTgzNiIgeTI9IjEzMzUuMTgzNiIvPjxsaW5lIHN0eWxlPSJzdHJva2U6I0E4MDAzNjtzdHJva2Utd2lkdGg6MS4wO3N0cm9rZS1kYXNoYXJyYXk6Mi4wLDIuMDsiIHgxPSI3MjcuNSIgeDI9IjcyNy41IiB5MT0iMTMzNS4xODM2IiB5Mj0iMTM0OC4xODM2Ii8+PGxpbmUgc3R5bGU9InN0cm9rZTojQTgwMDM2O3N0cm9rZS13aWR0aDoxLjA7c3Ryb2tlLWRhc2hhcnJheToyLjAsMi4wOyIgeDE9IjY4MC41IiB4Mj0iNzI3LjUiIHkxPSIxMzQ4LjE4MzYiIHkyPSIxMzQ4LjE4MzYiLz48cG9seWdvbiBmaWxsPSIjQTgwMDM2IiBwb2ludHM9IjY5MC41LDEzNDQuMTgzNiw2ODAuNSwxMzQ4LjE4MzYsNjkwLjUsMTM1Mi4xODM2LDY4Ni41LDEzNDguMTgzNiIgc3R5bGU9InN0cm9rZTojQTgwMDM2O3N0cm9rZS13aWR0aDoxLjA7Ii8+PGxpbmUgc3R5bGU9InN0cm9rZTojQTgwMDM2O3N0cm9rZS13aWR0aDoxLjA7IiB4MT0iNjgwLjUiIHgyPSI3MjcuNSIgeTE9IjEzNjcuNDk0MSIgeTI9IjEzNjcuNDk0MSIvPjxsaW5lIHN0eWxlPSJzdHJva2U6I0E4MDAzNjtzdHJva2Utd2lkdGg6MS4wOyIgeDE9IjcyNy41IiB4Mj0iNzI3LjUiIHkxPSIxMzY3LjQ5NDEiIHkyPSIxMzgwLjQ5NDEiLz48bGluZSBzdHlsZT0ic3Ryb2tlOiNBODAwMzY7c3Ryb2tlLXdpZHRoOjEuMDsiIHgxPSI2ODYuNSIgeDI9IjcyNy41IiB5MT0iMTM4MC40OTQxIiB5Mj0iMTM4MC40OTQxIi8+PHBvbHlnb24gZmlsbD0iI0E4MDAzNiIgcG9pbnRzPSI2OTYuNSwxMzc2LjQ5NDEsNjg2LjUsMTM4MC40OTQxLDY5Ni41LDEzODQuNDk0MSw2OTIuNSwxMzgwLjQ5NDEiIHN0eWxlPSJzdHJva2U6I0E4MDAzNjtzdHJva2Utd2lkdGg6MS4wOyIvPjx0ZXh0IGZpbGw9IiMwMDAwMDAiIGZvbnQtZmFtaWx5PSJzYW5zLXNlcmlmIiBmb250LXNpemU9IjEzIiBsZW5ndGhBZGp1c3Q9InNwYWNpbmciIHRleHRMZW5ndGg9IjEzNCIgeD0iNjkyLjUiIHk9IjEzNjIuNzUyIj52YWxpZGF0ZVRleHRSZXNvdXJjZTwvdGV4dD48cG9seWdvbiBmaWxsPSIjQTgwMDM2IiBwb2ludHM9Ijg5MC41LDE0MTAuODA0Nyw5MDAuNSwxNDE0LjgwNDcsODkwLjUsMTQxOC44MDQ3LDg5NC41LDE0MTQuODA0NyIgc3R5bGU9InN0cm9rZTojQTgwMDM2O3N0cm9rZS13aWR0aDoxLjA7Ii8+PGxpbmUgc3R5bGU9InN0cm9rZTojQTgwMDM2O3N0cm9rZS13aWR0aDoxLjA7IiB4MT0iNjg1LjUiIHgyPSI4OTYuNSIgeTE9IjE0MTQuODA0NyIgeTI9IjE0MTQuODA0NyIvPjx0ZXh0IGZpbGw9IiMwMDAwMDAiIGZvbnQtZmFtaWx5PSJzYW5zLXNlcmlmIiBmb250LXNpemU9IjEzIiBsZW5ndGhBZGp1c3Q9InNwYWNpbmciIHRleHRMZW5ndGg9IjI1IiB4PSI2OTIuNSIgeT0iMTQxMC4wNjI1Ij5uZXc8L3RleHQ+PHBvbHlnb24gZmlsbD0iI0E4MDAzNiIgcG9pbnRzPSI2OTYuNSwxNDI0LjgwNDcsNjg2LjUsMTQyOC44MDQ3LDY5Ni41LDE0MzIuODA0Nyw2OTIuNSwxNDI4LjgwNDciIHN0eWxlPSJzdHJva2U6I0E4MDAzNjtzdHJva2Utd2lkdGg6MS4wOyIvPjxsaW5lIHN0eWxlPSJzdHJva2U6I0E4MDAzNjtzdHJva2Utd2lkdGg6MS4wO3N0cm9rZS1kYXNoYXJyYXk6Mi4wLDIuMDsiIHgxPSI2OTAuNSIgeDI9IjkwNi41IiB5MT0iMTQyOC44MDQ3IiB5Mj0iMTQyOC44MDQ3Ii8+PHBvbHlnb24gZmlsbD0iI0E4MDAzNiIgcG9pbnRzPSI4OTAuNSwxNDU0LjExNTIsOTAwLjUsMTQ1OC4xMTUyLDg5MC41LDE0NjIuMTE1Miw4OTQuNSwxNDU4LjExNTIiIHN0eWxlPSJzdHJva2U6I0E4MDAzNjtzdHJva2Utd2lkdGg6MS4wOyIvPjxsaW5lIHN0eWxlPSJzdHJva2U6I0E4MDAzNjtzdHJva2Utd2lkdGg6MS4wOyIgeDE9IjY4NS41IiB4Mj0iODk2LjUiIHkxPSIxNDU4LjExNTIiIHkyPSIxNDU4LjExNTIiLz48dGV4dCBmaWxsPSIjMDAwMDAwIiBmb250LWZhbWlseT0ic2Fucy1zZXJpZiIgZm9udC1zaXplPSIxMyIgbGVuZ3RoQWRqdXN0PSJzcGFjaW5nIiB0ZXh0TGVuZ3RoPSIyNSIgeD0iNjkyLjUiIHk9IjE0NTMuMzczIj5uZXc8L3RleHQ+PHBvbHlnb24gZmlsbD0iI0E4MDAzNiIgcG9pbnRzPSI2OTYuNSwxNDY4LjExNTIsNjg2LjUsMTQ3Mi4xMTUyLDY5Ni41LDE0NzYuMTE1Miw2OTIuNSwxNDcyLjExNTIiIHN0eWxlPSJzdHJva2U6I0E4MDAzNjtzdHJva2Utd2lkdGg6MS4wOyIvPjxsaW5lIHN0eWxlPSJzdHJva2U6I0E4MDAzNjtzdHJva2Utd2lkdGg6MS4wO3N0cm9rZS1kYXNoYXJyYXk6Mi4wLDIuMDsiIHgxPSI2OTAuNSIgeDI9IjkwNi41IiB5MT0iMTQ3Mi4xMTUyIiB5Mj0iMTQ3Mi4xMTUyIi8+PGxpbmUgc3R5bGU9InN0cm9rZTojQTgwMDM2O3N0cm9rZS13aWR0aDoxLjA7c3Ryb2tlLWRhc2hhcnJheToyLjAsMi4wOyIgeDE9IjY4NS41IiB4Mj0iNzI3LjUiIHkxPSIxNDkxLjExNTIiIHkyPSIxNDkxLjExNTIiLz48bGluZSBzdHlsZT0ic3Ryb2tlOiNBODAwMzY7c3Ryb2tlLXdpZHRoOjEuMDtzdHJva2UtZGFzaGFycmF5OjIuMCwyLjA7IiB4MT0iNzI3LjUiIHgyPSI3MjcuNSIgeTE9IjE0OTEuMTE1MiIgeTI9IjE1MDQuMTE1MiIvPjxsaW5lIHN0eWxlPSJzdHJva2U6I0E4MDAzNjtzdHJva2Utd2lkdGg6MS4wO3N0cm9rZS1kYXNoYXJyYXk6Mi4wLDIuMDsiIHgxPSI2ODAuNSIgeDI9IjcyNy41IiB5MT0iMTUwNC4xMTUyIiB5Mj0iMTUwNC4xMTUyIi8+PHBvbHlnb24gZmlsbD0iI0E4MDAzNiIgcG9pbnRzPSI2OTAuNSwxNTAwLjExNTIsNjgwLjUsMTUwNC4xMTUyLDY5MC41LDE1MDguMTE1Miw2ODYuNSwxNTA0LjExNTIiIHN0eWxlPSJzdHJva2U6I0E4MDAzNjtzdHJva2Utd2lkdGg6MS4wOyIvPjxsaW5lIHN0eWxlPSJzdHJva2U6I0E4MDAzNjtzdHJva2Utd2lkdGg6MS4wOyIgeDE9IjY4MC41IiB4Mj0iNzI3LjUiIHkxPSIxNTIzLjQyNTgiIHkyPSIxNTIzLjQyNTgiLz48bGluZSBzdHlsZT0ic3Ryb2tlOiNBODAwMzY7c3Ryb2tlLXdpZHRoOjEuMDsiIHgxPSI3MjcuNSIgeDI9IjcyNy41IiB5MT0iMTUyMy40MjU4IiB5Mj0iMTUzNi40MjU4Ii8+PGxpbmUgc3R5bGU9InN0cm9rZTojQTgwMDM2O3N0cm9rZS13aWR0aDoxLjA7IiB4MT0iNjg2LjUiIHgyPSI3MjcuNSIgeTE9IjE1MzYuNDI1OCIgeTI9IjE1MzYuNDI1OCIvPjxwb2x5Z29uIGZpbGw9IiNBODAwMzYiIHBvaW50cz0iNjk2LjUsMTUzMi40MjU4LDY4Ni41LDE1MzYuNDI1OCw2OTYuNSwxNTQwLjQyNTgsNjkyLjUsMTUzNi40MjU4IiBzdHlsZT0ic3Ryb2tlOiNBODAwMzY7c3Ryb2tlLXdpZHRoOjEuMDsiLz48dGV4dCBmaWxsPSIjMDAwMDAwIiBmb250LWZhbWlseT0ic2Fucy1zZXJpZiIgZm9udC1zaXplPSIxMyIgbGVuZ3RoQWRqdXN0PSJzcGFjaW5nIiB0ZXh0TGVuZ3RoPSIxNTQiIHg9IjY5Mi41IiB5PSIxNTE4LjY4MzYiPnZhbGlkYXRlUHJvZHVjdFJlc291cmNlPC90ZXh0Pjxwb2x5Z29uIGZpbGw9IiNBODAwMzYiIHBvaW50cz0iODkwLjUsMTU2Ni43MzYzLDkwMC41LDE1NzAuNzM2Myw4OTAuNSwxNTc0LjczNjMsODk0LjUsMTU3MC43MzYzIiBzdHlsZT0ic3Ryb2tlOiNBODAwMzY7c3Ryb2tlLXdpZHRoOjEuMDsiLz48bGluZSBzdHlsZT0ic3Ryb2tlOiNBODAwMzY7c3Ryb2tlLXdpZHRoOjEuMDsiIHgxPSI2ODUuNSIgeDI9Ijg5Ni41IiB5MT0iMTU3MC43MzYzIiB5Mj0iMTU3MC43MzYzIi8+PHRleHQgZmlsbD0iIzAwMDAwMCIgZm9udC1mYW1pbHk9InNhbnMtc2VyaWYiIGZvbnQtc2l6ZT0iMTMiIGxlbmd0aEFkanVzdD0ic3BhY2luZyIgdGV4dExlbmd0aD0iMjUiIHg9IjY5Mi41IiB5PSIxNTY1Ljk5NDEiPm5ldzwvdGV4dD48cG9seWdvbiBmaWxsPSIjQTgwMDM2IiBwb2ludHM9IjY5Ni41LDE1ODAuNzM2Myw2ODYuNSwxNTg0LjczNjMsNjk2LjUsMTU4OC43MzYzLDY5Mi41LDE1ODQuNzM2MyIgc3R5bGU9InN0cm9rZTojQTgwMDM2O3N0cm9rZS13aWR0aDoxLjA7Ii8+PGxpbmUgc3R5bGU9InN0cm9rZTojQTgwMDM2O3N0cm9rZS13aWR0aDoxLjA7c3Ryb2tlLWRhc2hhcnJheToyLjAsMi4wOyIgeDE9IjY5MC41IiB4Mj0iOTA2LjUiIHkxPSIxNTg0LjczNjMiIHkyPSIxNTg0LjczNjMiLz48cG9seWdvbiBmaWxsPSIjQTgwMDM2IiBwb2ludHM9Ijg5MC41LDE2MTAuMDQ2OSw5MDAuNSwxNjE0LjA0NjksODkwLjUsMTYxOC4wNDY5LDg5NC41LDE2MTQuMDQ2OSIgc3R5bGU9InN0cm9rZTojQTgwMDM2O3N0cm9rZS13aWR0aDoxLjA7Ii8+PGxpbmUgc3R5bGU9InN0cm9rZTojQTgwMDM2O3N0cm9rZS13aWR0aDoxLjA7IiB4MT0iNjg1LjUiIHgyPSI4OTYuNSIgeTE9IjE2MTQuMDQ2OSIgeTI9IjE2MTQuMDQ2OSIvPjx0ZXh0IGZpbGw9IiMwMDAwMDAiIGZvbnQtZmFtaWx5PSJzYW5zLXNlcmlmIiBmb250LXNpemU9IjEzIiBsZW5ndGhBZGp1c3Q9InNwYWNpbmciIHRleHRMZW5ndGg9IjI1IiB4PSI2OTIuNSIgeT0iMTYwOS4zMDQ3Ij5uZXc8L3RleHQ+PHBvbHlnb24gZmlsbD0iI0E4MDAzNiIgcG9pbnRzPSI2OTYuNSwxNjI0LjA0NjksNjg2LjUsMTYyOC4wNDY5LDY5Ni41LDE2MzIuMDQ2OSw2OTIuNSwxNjI4LjA0NjkiIHN0eWxlPSJzdHJva2U6I0E4MDAzNjtzdHJva2Utd2lkdGg6MS4wOyIvPjxsaW5lIHN0eWxlPSJzdHJva2U6I0E4MDAzNjtzdHJva2Utd2lkdGg6MS4wO3N0cm9rZS1kYXNoYXJyYXk6Mi4wLDIuMDsiIHgxPSI2OTAuNSIgeDI9IjkwNi41IiB5MT0iMTYyOC4wNDY5IiB5Mj0iMTYyOC4wNDY5Ii8+PGxpbmUgc3R5bGU9InN0cm9rZTojQTgwMDM2O3N0cm9rZS13aWR0aDoxLjA7c3Ryb2tlLWRhc2hhcnJheToyLjAsMi4wOyIgeDE9IjY4NS41IiB4Mj0iNzI3LjUiIHkxPSIxNjQ3LjA0NjkiIHkyPSIxNjQ3LjA0NjkiLz48bGluZSBzdHlsZT0ic3Ryb2tlOiNBODAwMzY7c3Ryb2tlLXdpZHRoOjEuMDtzdHJva2UtZGFzaGFycmF5OjIuMCwyLjA7IiB4MT0iNzI3LjUiIHgyPSI3MjcuNSIgeTE9IjE2NDcuMDQ2OSIgeTI9IjE2NjAuMDQ2OSIvPjxsaW5lIHN0eWxlPSJzdHJva2U6I0E4MDAzNjtzdHJva2Utd2lkdGg6MS4wO3N0cm9rZS1kYXNoYXJyYXk6Mi4wLDIuMDsiIHgxPSI2ODAuNSIgeDI9IjcyNy41IiB5MT0iMTY2MC4wNDY5IiB5Mj0iMTY2MC4wNDY5Ii8+PHBvbHlnb24gZmlsbD0iI0E4MDAzNiIgcG9pbnRzPSI2OTAuNSwxNjU2LjA0NjksNjgwLjUsMTY2MC4wNDY5LDY5MC41LDE2NjQuMDQ2OSw2ODYuNSwxNjYwLjA0NjkiIHN0eWxlPSJzdHJva2U6I0E4MDAzNjtzdHJva2Utd2lkdGg6MS4wOyIvPjxwb2x5Z29uIGZpbGw9IiNBODAwMzYiIHBvaW50cz0iNDU1LjUsMTY2NS4wNDY5LDQ0NS41LDE2NjkuMDQ2OSw0NTUuNSwxNjczLjA0NjksNDUxLjUsMTY2OS4wNDY5IiBzdHlsZT0ic3Ryb2tlOiNBODAwMzY7c3Ryb2tlLXdpZHRoOjEuMDsiLz48bGluZSBzdHlsZT0ic3Ryb2tlOiNBODAwMzY7c3Ryb2tlLXdpZHRoOjEuMDtzdHJva2UtZGFzaGFycmF5OjIuMCwyLjA7IiB4MT0iNDQ5LjUiIHgyPSI2NzQuNSIgeTE9IjE2NjkuMDQ2OSIgeTI9IjE2NjkuMDQ2OSIvPjxwb2x5Z29uIGZpbGw9IiNBODAwMzYiIHBvaW50cz0iMjIxLjUsMTY3OS4wNDY5LDIxMS41LDE2ODMuMDQ2OSwyMjEuNSwxNjg3LjA0NjksMjE3LjUsMTY4My4wNDY5IiBzdHlsZT0ic3Ryb2tlOiNBODAwMzY7c3Ryb2tlLXdpZHRoOjEuMDsiLz48bGluZSBzdHlsZT0ic3Ryb2tlOiNBODAwMzY7c3Ryb2tlLXdpZHRoOjEuMDtzdHJva2UtZGFzaGFycmF5OjIuMCwyLjA7IiB4MT0iMjE1LjUiIHgyPSI0MzguNSIgeTE9IjE2ODMuMDQ2OSIgeTI9IjE2ODMuMDQ2OSIvPjxsaW5lIHN0eWxlPSJzdHJva2U6I0E4MDAzNjtzdHJva2Utd2lkdGg6MS4wOyIgeDE9IjIxMC41IiB4Mj0iMjU3LjUiIHkxPSIxNzA3LjM1NzQiIHkyPSIxNzA3LjM1NzQiLz48bGluZSBzdHlsZT0ic3Ryb2tlOiNBODAwMzY7c3Ryb2tlLXdpZHRoOjEuMDsiIHgxPSIyNTcuNSIgeDI9IjI1Ny41IiB5MT0iMTcwNy4zNTc0IiB5Mj0iMTcyMC4zNTc0Ii8+PGxpbmUgc3R5bGU9InN0cm9rZTojQTgwMDM2O3N0cm9rZS13aWR0aDoxLjA7IiB4MT0iMjE2LjUiIHgyPSIyNTcuNSIgeTE9IjE3MjAuMzU3NCIgeTI9IjE3MjAuMzU3NCIvPjxwb2x5Z29uIGZpbGw9IiNBODAwMzYiIHBvaW50cz0iMjI2LjUsMTcxNi4zNTc0LDIxNi41LDE3MjAuMzU3NCwyMjYuNSwxNzI0LjM1NzQsMjIyLjUsMTcyMC4zNTc0IiBzdHlsZT0ic3Ryb2tlOiNBODAwMzY7c3Ryb2tlLXdpZHRoOjEuMDsiLz48dGV4dCBmaWxsPSIjMDAwMDAwIiBmb250LWZhbWlseT0ic2Fucy1zZXJpZiIgZm9udC1zaXplPSIxMyIgbGVuZ3RoQWRqdXN0PSJzcGFjaW5nIiB0ZXh0TGVuZ3RoPSIyMSIgeD0iMjIyLjUiIHk9IjE3MDIuNjE1MiI+zrvihpI8L3RleHQ+PHBvbHlnb24gZmlsbD0iI0E4MDAzNiIgcG9pbnRzPSIxMDgwLjUsMTc1MC42NjgsMTA5MC41LDE3NTQuNjY4LDEwODAuNSwxNzU4LjY2OCwxMDg0LjUsMTc1NC42NjgiIHN0eWxlPSJzdHJva2U6I0E4MDAzNjtzdHJva2Utd2lkdGg6MS4wOyIvPjxsaW5lIHN0eWxlPSJzdHJva2U6I0E4MDAzNjtzdHJva2Utd2lkdGg6MS4wOyIgeDE9IjIxNS41IiB4Mj0iMTA4Ni41IiB5MT0iMTc1NC42NjgiIHkyPSIxNzU0LjY2OCIvPjx0ZXh0IGZpbGw9IiMwMDAwMDAiIGZvbnQtZmFtaWx5PSJzYW5zLXNlcmlmIiBmb250LXNpemU9IjEzIiBsZW5ndGhBZGp1c3Q9InNwYWNpbmciIHRleHRMZW5ndGg9IjE3NCIgeD0iMjIyLjUiIHk9IjE3NDkuOTI1OCI+Y29udmVydDJNa3RSZXNvdXJjZU1vZGVsPC90ZXh0Pjxwb2x5Z29uIGZpbGw9IiNBODAwMzYiIHBvaW50cz0iMTI5My41LDE3NzkuOTc4NSwxMzAzLjUsMTc4My45Nzg1LDEyOTMuNSwxNzg3Ljk3ODUsMTI5Ny41LDE3ODMuOTc4NSIgc3R5bGU9InN0cm9rZTojQTgwMDM2O3N0cm9rZS13aWR0aDoxLjA7Ii8+PGxpbmUgc3R5bGU9InN0cm9rZTojQTgwMDM2O3N0cm9rZS13aWR0aDoxLjA7IiB4MT0iMTEwMi41IiB4Mj0iMTI5OS41IiB5MT0iMTc4My45Nzg1IiB5Mj0iMTc4My45Nzg1Ii8+PHRleHQgZmlsbD0iIzAwMDAwMCIgZm9udC1mYW1pbHk9InNhbnMtc2VyaWYiIGZvbnQtc2l6ZT0iMTMiIGxlbmd0aEFkanVzdD0ic3BhY2luZyIgdGV4dExlbmd0aD0iMTc0IiB4PSIxMTA5LjUiIHk9IjE3NzkuMjM2MyI+Y29udmVydDJNa3RSZXNvdXJjZU1vZGVsPC90ZXh0PjxsaW5lIHN0eWxlPSJzdHJva2U6I0E4MDAzNjtzdHJva2Utd2lkdGg6MS4wOyIgeDE9IjEzMTUuNSIgeDI9IjEzNjIuNSIgeTE9IjE4MDguMjg5MSIgeTI9IjE4MDguMjg5MSIvPjxsaW5lIHN0eWxlPSJzdHJva2U6I0E4MDAzNjtzdHJva2Utd2lkdGg6MS4wOyIgeDE9IjEzNjIuNSIgeDI9IjEzNjIuNSIgeTE9IjE4MDguMjg5MSIgeTI9IjE4MjEuMjg5MSIvPjxsaW5lIHN0eWxlPSJzdHJva2U6I0E4MDAzNjtzdHJva2Utd2lkdGg6MS4wOyIgeDE9IjEzMjEuNSIgeDI9IjEzNjIuNSIgeTE9IjE4MjEuMjg5MSIgeTI9IjE4MjEuMjg5MSIvPjxwb2x5Z29uIGZpbGw9IiNBODAwMzYiIHBvaW50cz0iMTMzMS41LDE4MTcuMjg5MSwxMzIxLjUsMTgyMS4yODkxLDEzMzEuNSwxODI1LjI4OTEsMTMyNy41LDE4MjEuMjg5MSIgc3R5bGU9InN0cm9rZTojQTgwMDM2O3N0cm9rZS13aWR0aDoxLjA7Ii8+PHRleHQgZmlsbD0iIzAwMDAwMCIgZm9udC1mYW1pbHk9InNhbnMtc2VyaWYiIGZvbnQtc2l6ZT0iMTMiIGxlbmd0aEFkanVzdD0ic3BhY2luZyIgdGV4dExlbmd0aD0iMjEiIHg9IjEzMjcuNSIgeT0iMTgwMy41NDY5Ij7Ou+KGkjwvdGV4dD48cG9seWdvbiBmaWxsPSIjQTgwMDM2IiBwb2ludHM9IjE3MTIuNSwxODUxLjU5OTYsMTcyMi41LDE4NTUuNTk5NiwxNzEyLjUsMTg1OS41OTk2LDE3MTYuNSwxODU1LjU5OTYiIHN0eWxlPSJzdHJva2U6I0E4MDAzNjtzdHJva2Utd2lkdGg6MS4wOyIvPjxsaW5lIHN0eWxlPSJzdHJva2U6I0E4MDAzNjtzdHJva2Utd2lkdGg6MS4wOyIgeDE9IjEzMjAuNSIgeDI9IjE3MTguNSIgeTE9IjE4NTUuNTk5NiIgeTI9IjE4NTUuNTk5NiIvPjx0ZXh0IGZpbGw9IiMwMDAwMDAiIGZvbnQtZmFtaWx5PSJzYW5zLXNlcmlmIiBmb250LXNpemU9IjEzIiBsZW5ndGhBZGp1c3Q9InNwYWNpbmciIHRleHRMZW5ndGg9IjI1IiB4PSIxMzI3LjUiIHk9IjE4NTAuODU3NCI+bmV3PC90ZXh0Pjxwb2x5Z29uIGZpbGw9IiNBODAwMzYiIHBvaW50cz0iMTMzMS41LDE4NjUuNTk5NiwxMzIxLjUsMTg2OS41OTk2LDEzMzEuNSwxODczLjU5OTYsMTMyNy41LDE4NjkuNTk5NiIgc3R5bGU9InN0cm9rZTojQTgwMDM2O3N0cm9rZS13aWR0aDoxLjA7Ii8+PGxpbmUgc3R5bGU9InN0cm9rZTojQTgwMDM2O3N0cm9rZS13aWR0aDoxLjA7c3Ryb2tlLWRhc2hhcnJheToyLjAsMi4wOyIgeDE9IjEzMjUuNSIgeDI9IjE3MjguNSIgeTE9IjE4NjkuNTk5NiIgeTI9IjE4NjkuNTk5NiIvPjxsaW5lIHN0eWxlPSJzdHJva2U6I0E4MDAzNjtzdHJva2Utd2lkdGg6MS4wO3N0cm9rZS1kYXNoYXJyYXk6Mi4wLDIuMDsiIHgxPSIxMzIwLjUiIHgyPSIxMzYyLjUiIHkxPSIxODg4LjU5OTYiIHkyPSIxODg4LjU5OTYiLz48bGluZSBzdHlsZT0ic3Ryb2tlOiNBODAwMzY7c3Ryb2tlLXdpZHRoOjEuMDtzdHJva2UtZGFzaGFycmF5OjIuMCwyLjA7IiB4MT0iMTM2Mi41IiB4Mj0iMTM2Mi41IiB5MT0iMTg4OC41OTk2IiB5Mj0iMTkwMS41OTk2Ii8+PGxpbmUgc3R5bGU9InN0cm9rZTojQTgwMDM2O3N0cm9rZS13aWR0aDoxLjA7c3Ryb2tlLWRhc2hhcnJheToyLjAsMi4wOyIgeDE9IjEzMTUuNSIgeDI9IjEzNjIuNSIgeTE9IjE5MDEuNTk5NiIgeTI9IjE5MDEuNTk5NiIvPjxwb2x5Z29uIGZpbGw9IiNBODAwMzYiIHBvaW50cz0iMTMyNS41LDE4OTcuNTk5NiwxMzE1LjUsMTkwMS41OTk2LDEzMjUuNSwxOTA1LjU5OTYsMTMyMS41LDE5MDEuNTk5NiIgc3R5bGU9InN0cm9rZTojQTgwMDM2O3N0cm9rZS13aWR0aDoxLjA7Ii8+PHBvbHlnb24gZmlsbD0iI0E4MDAzNiIgcG9pbnRzPSIxODQwLjUsMTkyMS45MTAyLDE4NTAuNSwxOTI1LjkxMDIsMTg0MC41LDE5MjkuOTEwMiwxODQ0LjUsMTkyNS45MTAyIiBzdHlsZT0ic3Ryb2tlOiNBODAwMzY7c3Ryb2tlLXdpZHRoOjEuMDsiLz48bGluZSBzdHlsZT0ic3Ryb2tlOiNBODAwMzY7c3Ryb2tlLXdpZHRoOjEuMDsiIHgxPSIxMzE1LjUiIHgyPSIxODQ2LjUiIHkxPSIxOTI1LjkxMDIiIHkyPSIxOTI1LjkxMDIiLz48dGV4dCBmaWxsPSIjMDAwMDAwIiBmb250LWZhbWlseT0ic2Fucy1zZXJpZiIgZm9udC1zaXplPSIxMyIgbGVuZ3RoQWRqdXN0PSJzcGFjaW5nIiB0ZXh0TGVuZ3RoPSIyNSIgeD0iMTMyMi41IiB5PSIxOTIxLjE2OCI+bmV3PC90ZXh0Pjxwb2x5Z29uIGZpbGw9IiNBODAwMzYiIHBvaW50cz0iMTMyNi41LDE5MzUuOTEwMiwxMzE2LjUsMTkzOS45MTAyLDEzMjYuNSwxOTQzLjkxMDIsMTMyMi41LDE5MzkuOTEwMiIgc3R5bGU9InN0cm9rZTojQTgwMDM2O3N0cm9rZS13aWR0aDoxLjA7Ii8+PGxpbmUgc3R5bGU9InN0cm9rZTojQTgwMDM2O3N0cm9rZS13aWR0aDoxLjA7c3Ryb2tlLWRhc2hhcnJheToyLjAsMi4wOyIgeDE9IjEzMjAuNSIgeDI9IjE4NTYuNSIgeTE9IjE5MzkuOTEwMiIgeTI9IjE5MzkuOTEwMiIvPjxwb2x5Z29uIGZpbGw9IiNBODAwMzYiIHBvaW50cz0iMTk1OS41LDE5NjUuMjIwNywxOTY5LjUsMTk2OS4yMjA3LDE5NTkuNSwxOTczLjIyMDcsMTk2My41LDE5NjkuMjIwNyIgc3R5bGU9InN0cm9rZTojQTgwMDM2O3N0cm9rZS13aWR0aDoxLjA7Ii8+PGxpbmUgc3R5bGU9InN0cm9rZTojQTgwMDM2O3N0cm9rZS13aWR0aDoxLjA7IiB4MT0iMTMxNS41IiB4Mj0iMTk2NS41IiB5MT0iMTk2OS4yMjA3IiB5Mj0iMTk2OS4yMjA3Ii8+PHRleHQgZmlsbD0iIzAwMDAwMCIgZm9udC1mYW1pbHk9InNhbnMtc2VyaWYiIGZvbnQtc2l6ZT0iMTMiIGxlbmd0aEFkanVzdD0ic3BhY2luZyIgdGV4dExlbmd0aD0iNzciIHg9IjEzMjIuNSIgeT0iMTk2NC40Nzg1Ij50b0pzb25TdHJpbmc8L3RleHQ+PHBvbHlnb24gZmlsbD0iI0E4MDAzNiIgcG9pbnRzPSIxMzI2LjUsMTk3OS4yMjA3LDEzMTYuNSwxOTgzLjIyMDcsMTMyNi41LDE5ODcuMjIwNywxMzIyLjUsMTk4My4yMjA3IiBzdHlsZT0ic3Ryb2tlOiNBODAwMzY7c3Ryb2tlLXdpZHRoOjEuMDsiLz48bGluZSBzdHlsZT0ic3Ryb2tlOiNBODAwMzY7c3Ryb2tlLXdpZHRoOjEuMDtzdHJva2UtZGFzaGFycmF5OjIuMCwyLjA7IiB4MT0iMTMyMC41IiB4Mj0iMTk3NS41IiB5MT0iMTk4My4yMjA3IiB5Mj0iMTk4My4yMjA3Ii8+PHBvbHlnb24gZmlsbD0iI0E4MDAzNiIgcG9pbnRzPSIyMDgwLDIwMDguNTMxMywyMDkwLDIwMTIuNTMxMywyMDgwLDIwMTYuNTMxMywyMDg0LDIwMTIuNTMxMyIgc3R5bGU9InN0cm9rZTojQTgwMDM2O3N0cm9rZS13aWR0aDoxLjA7Ii8+PGxpbmUgc3R5bGU9InN0cm9rZTojQTgwMDM2O3N0cm9rZS13aWR0aDoxLjA7IiB4MT0iMTMxNS41IiB4Mj0iMjA4NiIgeTE9IjIwMTIuNTMxMyIgeTI9IjIwMTIuNTMxMyIvPjx0ZXh0IGZpbGw9IiMwMDAwMDAiIGZvbnQtZmFtaWx5PSJzYW5zLXNlcmlmIiBmb250LXNpemU9IjEzIiBsZW5ndGhBZGp1c3Q9InNwYWNpbmciIHRleHRMZW5ndGg9IjUwIiB4PSIxMzIyLjUiIHk9IjIwMDcuNzg5MSI+dG9TdHJpbmc8L3RleHQ+PHBvbHlnb24gZmlsbD0iI0E4MDAzNiIgcG9pbnRzPSIxMzI2LjUsMjAyMi41MzEzLDEzMTYuNSwyMDI2LjUzMTMsMTMyNi41LDIwMzAuNTMxMywxMzIyLjUsMjAyNi41MzEzIiBzdHlsZT0ic3Ryb2tlOiNBODAwMzY7c3Ryb2tlLXdpZHRoOjEuMDsiLz48bGluZSBzdHlsZT0ic3Ryb2tlOiNBODAwMzY7c3Ryb2tlLXdpZHRoOjEuMDtzdHJva2UtZGFzaGFycmF5OjIuMCwyLjA7IiB4MT0iMTMyMC41IiB4Mj0iMjA5NiIgeTE9IjIwMjYuNTMxMyIgeTI9IjIwMjYuNTMxMyIvPjxwb2x5Z29uIGZpbGw9IiNBODAwMzYiIHBvaW50cz0iMTExMy41LDIwMzYuNTMxMywxMTAzLjUsMjA0MC41MzEzLDExMTMuNSwyMDQ0LjUzMTMsMTEwOS41LDIwNDAuNTMxMyIgc3R5bGU9InN0cm9rZTojQTgwMDM2O3N0cm9rZS13aWR0aDoxLjA7Ii8+PGxpbmUgc3R5bGU9InN0cm9rZTojQTgwMDM2O3N0cm9rZS13aWR0aDoxLjA7c3Ryb2tlLWRhc2hhcnJheToyLjAsMi4wOyIgeDE9IjExMDcuNSIgeDI9IjEzMDkuNSIgeTE9IjIwNDAuNTMxMyIgeTI9IjIwNDAuNTMxMyIvPjxwb2x5Z29uIGZpbGw9IiNBODAwMzYiIHBvaW50cz0iMjI2LjUsMjA1MC41MzEzLDIxNi41LDIwNTQuNTMxMywyMjYuNSwyMDU4LjUzMTMsMjIyLjUsMjA1NC41MzEzIiBzdHlsZT0ic3Ryb2tlOiNBODAwMzY7c3Ryb2tlLXdpZHRoOjEuMDsiLz48bGluZSBzdHlsZT0ic3Ryb2tlOiNBODAwMzY7c3Ryb2tlLXdpZHRoOjEuMDtzdHJva2UtZGFzaGFycmF5OjIuMCwyLjA7IiB4MT0iMjIwLjUiIHgyPSIxMDk2LjUiIHkxPSIyMDU0LjUzMTMiIHkyPSIyMDU0LjUzMTMiLz48bGluZSBzdHlsZT0ic3Ryb2tlOiNBODAwMzY7c3Ryb2tlLXdpZHRoOjEuMDtzdHJva2UtZGFzaGFycmF5OjIuMCwyLjA7IiB4MT0iMjE1LjUiIHgyPSIyNTcuNSIgeTE9IjIwNzMuNTMxMyIgeTI9IjIwNzMuNTMxMyIvPjxsaW5lIHN0eWxlPSJzdHJva2U6I0E4MDAzNjtzdHJva2Utd2lkdGg6MS4wO3N0cm9rZS1kYXNoYXJyYXk6Mi4wLDIuMDsiIHgxPSIyNTcuNSIgeDI9IjI1Ny41IiB5MT0iMjA3My41MzEzIiB5Mj0iMjA4Ni41MzEzIi8+PGxpbmUgc3R5bGU9InN0cm9rZTojQTgwMDM2O3N0cm9rZS13aWR0aDoxLjA7c3Ryb2tlLWRhc2hhcnJheToyLjAsMi4wOyIgeDE9IjIxMC41IiB4Mj0iMjU3LjUiIHkxPSIyMDg2LjUzMTMiIHkyPSIyMDg2LjUzMTMiLz48cG9seWdvbiBmaWxsPSIjQTgwMDM2IiBwb2ludHM9IjIyMC41LDIwODIuNTMxMywyMTAuNSwyMDg2LjUzMTMsMjIwLjUsMjA5MC41MzEzLDIxNi41LDIwODYuNTMxMyIgc3R5bGU9InN0cm9rZTojQTgwMDM2O3N0cm9rZS13aWR0aDoxLjA7Ii8+PHBvbHlnb24gZmlsbD0iI0E4MDAzNiIgcG9pbnRzPSIxMDgwLjUsMjEwNi44NDE4LDEwOTAuNSwyMTEwLjg0MTgsMTA4MC41LDIxMTQuODQxOCwxMDg0LjUsMjExMC44NDE4IiBzdHlsZT0ic3Ryb2tlOiNBODAwMzY7c3Ryb2tlLXdpZHRoOjEuMDsiLz48bGluZSBzdHlsZT0ic3Ryb2tlOiNBODAwMzY7c3Ryb2tlLXdpZHRoOjEuMDsiIHgxPSIyMTAuNSIgeDI9IjEwODYuNSIgeTE9IjIxMTAuODQxOCIgeTI9IjIxMTAuODQxOCIvPjx0ZXh0IGZpbGw9IiMwMDAwMDAiIGZvbnQtZmFtaWx5PSJzYW5zLXNlcmlmIiBmb250LXNpemU9IjEzIiBsZW5ndGhBZGp1c3Q9InNwYWNpbmciIHRleHRMZW5ndGg9IjE2NiIgeD0iMjE3LjUiIHk9IjIxMDYuMDk5NiI+dXBkYXRlTWt0QmFubmVyUmVzb3VyY2U8L3RleHQ+PHBvbHlnb24gZmlsbD0iI0E4MDAzNiIgcG9pbnRzPSIxMjkzLjUsMjEzNi4xNTIzLDEzMDMuNSwyMTQwLjE1MjMsMTI5My41LDIxNDQuMTUyMywxMjk3LjUsMjE0MC4xNTIzIiBzdHlsZT0ic3Ryb2tlOiNBODAwMzY7c3Ryb2tlLXdpZHRoOjEuMDsiLz48bGluZSBzdHlsZT0ic3Ryb2tlOiNBODAwMzY7c3Ryb2tlLXdpZHRoOjEuMDsiIHgxPSIxMTAyLjUiIHgyPSIxMjk5LjUiIHkxPSIyMTQwLjE1MjMiIHkyPSIyMTQwLjE1MjMiLz48dGV4dCBmaWxsPSIjMDAwMDAwIiBmb250LWZhbWlseT0ic2Fucy1zZXJpZiIgZm9udC1zaXplPSIxMyIgbGVuZ3RoQWRqdXN0PSJzcGFjaW5nIiB0ZXh0TGVuZ3RoPSIxNjYiIHg9IjExMDkuNSIgeT0iMjEzNS40MTAyIj51cGRhdGVNa3RCYW5uZXJSZXNvdXJjZTwvdGV4dD48cG9seWdvbiBmaWxsPSIjQTgwMDM2IiBwb2ludHM9IjE1MDMuNSwyMTY1LjQ2MjksMTUxMy41LDIxNjkuNDYyOSwxNTAzLjUsMjE3My40NjI5LDE1MDcuNSwyMTY5LjQ2MjkiIHN0eWxlPSJzdHJva2U6I0E4MDAzNjtzdHJva2Utd2lkdGg6MS4wOyIvPjxsaW5lIHN0eWxlPSJzdHJva2U6I0E4MDAzNjtzdHJva2Utd2lkdGg6MS4wOyIgeDE9IjEzMTUuNSIgeDI9IjE1MDkuNSIgeTE9IjIxNjkuNDYyOSIgeTI9IjIxNjkuNDYyOSIvPjx0ZXh0IGZpbGw9IiMwMDAwMDAiIGZvbnQtZmFtaWx5PSJzYW5zLXNlcmlmIiBmb250LXNpemU9IjEzIiBsZW5ndGhBZGp1c3Q9InNwYWNpbmciIHRleHRMZW5ndGg9IjkxIiB4PSIxMzIyLjUiIHk9IjIxNjQuNzIwNyI+aW5zZXJ0U2VsZWN0aXZlPC90ZXh0Pjxwb2x5Z29uIGZpbGw9IiNBODAwMzYiIHBvaW50cz0iMTMyNi41LDIxNzkuNDYyOSwxMzE2LjUsMjE4My40NjI5LDEzMjYuNSwyMTg3LjQ2MjksMTMyMi41LDIxODMuNDYyOSIgc3R5bGU9InN0cm9rZTojQTgwMDM2O3N0cm9rZS13aWR0aDoxLjA7Ii8+PGxpbmUgc3R5bGU9InN0cm9rZTojQTgwMDM2O3N0cm9rZS13aWR0aDoxLjA7c3Ryb2tlLWRhc2hhcnJheToyLjAsMi4wOyIgeDE9IjEzMjAuNSIgeDI9IjE1MTkuNSIgeTE9IjIxODMuNDYyOSIgeTI9IjIxODMuNDYyOSIvPjxwb2x5Z29uIGZpbGw9IiNBODAwMzYiIHBvaW50cz0iMTUwMy41LDIyMDguNzczNCwxNTEzLjUsMjIxMi43NzM0LDE1MDMuNSwyMjE2Ljc3MzQsMTUwNy41LDIyMTIuNzczNCIgc3R5bGU9InN0cm9rZTojQTgwMDM2O3N0cm9rZS13aWR0aDoxLjA7Ii8+PGxpbmUgc3R5bGU9InN0cm9rZTojQTgwMDM2O3N0cm9rZS13aWR0aDoxLjA7IiB4MT0iMTMxNS41IiB4Mj0iMTUwOS41IiB5MT0iMjIxMi43NzM0IiB5Mj0iMjIxMi43NzM0Ii8+PHRleHQgZmlsbD0iIzAwMDAwMCIgZm9udC1mYW1pbHk9InNhbnMtc2VyaWYiIGZvbnQtc2l6ZT0iMTMiIGxlbmd0aEFkanVzdD0ic3BhY2luZyIgdGV4dExlbmd0aD0iMTgxIiB4PSIxMzIyLjUiIHk9IjIyMDguMDMxMyI+dXBkYXRlQnlQcmltYXJ5S2V5U2VsZWN0aXZlPC90ZXh0Pjxwb2x5Z29uIGZpbGw9IiNBODAwMzYiIHBvaW50cz0iMTMyNi41LDIyMjIuNzczNCwxMzE2LjUsMjIyNi43NzM0LDEzMjYuNSwyMjMwLjc3MzQsMTMyMi41LDIyMjYuNzczNCIgc3R5bGU9InN0cm9rZTojQTgwMDM2O3N0cm9rZS13aWR0aDoxLjA7Ii8+PGxpbmUgc3R5bGU9InN0cm9rZTojQTgwMDM2O3N0cm9rZS13aWR0aDoxLjA7c3Ryb2tlLWRhc2hhcnJheToyLjAsMi4wOyIgeDE9IjEzMjAuNSIgeDI9IjE1MTkuNSIgeTE9IjIyMjYuNzczNCIgeTI9IjIyMjYuNzczNCIvPjxwb2x5Z29uIGZpbGw9IiNBODAwMzYiIHBvaW50cz0iMTExMy41LDIyMzYuNzczNCwxMTAzLjUsMjI0MC43NzM0LDExMTMuNSwyMjQ0Ljc3MzQsMTEwOS41LDIyNDAuNzczNCIgc3R5bGU9InN0cm9rZTojQTgwMDM2O3N0cm9rZS13aWR0aDoxLjA7Ii8+PGxpbmUgc3R5bGU9InN0cm9rZTojQTgwMDM2O3N0cm9rZS13aWR0aDoxLjA7c3Ryb2tlLWRhc2hhcnJheToyLjAsMi4wOyIgeDE9IjExMDcuNSIgeDI9IjEzMDkuNSIgeTE9IjIyNDAuNzczNCIgeTI9IjIyNDAuNzczNCIvPjxwb2x5Z29uIGZpbGw9IiNBODAwMzYiIHBvaW50cz0iMjIxLjUsMjI1MC43NzM0LDIxMS41LDIyNTQuNzczNCwyMjEuNSwyMjU4Ljc3MzQsMjE3LjUsMjI1NC43NzM0IiBzdHlsZT0ic3Ryb2tlOiNBODAwMzY7c3Ryb2tlLXdpZHRoOjEuMDsiLz48bGluZSBzdHlsZT0ic3Ryb2tlOiNBODAwMzY7c3Ryb2tlLXdpZHRoOjEuMDtzdHJva2UtZGFzaGFycmF5OjIuMCwyLjA7IiB4MT0iMjE1LjUiIHgyPSIxMDk2LjUiIHkxPSIyMjU0Ljc3MzQiIHkyPSIyMjU0Ljc3MzQiLz48cG9seWdvbiBmaWxsPSIjQTgwMDM2IiBwb2ludHM9IjIyNjIuNSwyMjgwLjA4NCwyMjcyLjUsMjI4NC4wODQsMjI2Mi41LDIyODguMDg0LDIyNjYuNSwyMjg0LjA4NCIgc3R5bGU9InN0cm9rZTojQTgwMDM2O3N0cm9rZS13aWR0aDoxLjA7Ii8+PGxpbmUgc3R5bGU9InN0cm9rZTojQTgwMDM2O3N0cm9rZS13aWR0aDoxLjA7IiB4MT0iMjEwLjUiIHgyPSIyMjY4LjUiIHkxPSIyMjg0LjA4NCIgeTI9IjIyODQuMDg0Ii8+PHRleHQgZmlsbD0iIzAwMDAwMCIgZm9udC1mYW1pbHk9InNhbnMtc2VyaWYiIGZvbnQtc2l6ZT0iMTMiIGxlbmd0aEFkanVzdD0ic3BhY2luZyIgdGV4dExlbmd0aD0iMjE3IiB4PSIyMTcuNSIgeT0iMjI3OS4zNDE4Ij5pbml0TW9iaWxlU2VhcmNoQWR2ZXJ0aXNlRm9yUmVkaXM8L3RleHQ+PHBvbHlnb24gZmlsbD0iI0E4MDAzNiIgcG9pbnRzPSIxNTM2LjUsMjMwOS4zOTQ1LDE1MjYuNSwyMzEzLjM5NDUsMTUzNi41LDIzMTcuMzk0NSwxNTMyLjUsMjMxMy4zOTQ1IiBzdHlsZT0ic3Ryb2tlOiNBODAwMzY7c3Ryb2tlLXdpZHRoOjEuMDsiLz48bGluZSBzdHlsZT0ic3Ryb2tlOiNBODAwMzY7c3Ryb2tlLXdpZHRoOjEuMDsiIHgxPSIxNTMwLjUiIHgyPSIyMjczLjUiIHkxPSIyMzEzLjM5NDUiIHkyPSIyMzEzLjM5NDUiLz48dGV4dCBmaWxsPSIjMDAwMDAwIiBmb250LWZhbWlseT0ic2Fucy1zZXJpZiIgZm9udC1zaXplPSIxMyIgbGVuZ3RoQWRqdXN0PSJzcGFjaW5nIiB0ZXh0TGVuZ3RoPSIxNjciIHg9IjE1NDIuNSIgeT0iMjMwOC42NTIzIj5nZXRSZXNvdXJjZUJ5R2xvYmFsTmFtZTwvdGV4dD48cG9seWdvbiBmaWxsPSIjQTgwMDM2IiBwb2ludHM9IjIyNjIuNSwyMzIzLjM5NDUsMjI3Mi41LDIzMjcuMzk0NSwyMjYyLjUsMjMzMS4zOTQ1LDIyNjYuNSwyMzI3LjM5NDUiIHN0eWxlPSJzdHJva2U6I0E4MDAzNjtzdHJva2Utd2lkdGg6MS4wOyIvPjxsaW5lIHN0eWxlPSJzdHJva2U6I0E4MDAzNjtzdHJva2Utd2lkdGg6MS4wO3N0cm9rZS1kYXNoYXJyYXk6Mi4wLDIuMDsiIHgxPSIxNTIwLjUiIHgyPSIyMjY4LjUiIHkxPSIyMzI3LjM5NDUiIHkyPSIyMzI3LjM5NDUiLz48bGluZSBzdHlsZT0ic3Ryb2tlOiNBODAwMzY7c3Ryb2tlLXdpZHRoOjEuMDsiIHgxPSIyMjg0LjUiIHgyPSIyMzMxLjUiIHkxPSIyMzUxLjcwNTEiIHkyPSIyMzUxLjcwNTEiLz48bGluZSBzdHlsZT0ic3Ryb2tlOiNBODAwMzY7c3Ryb2tlLXdpZHRoOjEuMDsiIHgxPSIyMzMxLjUiIHgyPSIyMzMxLjUiIHkxPSIyMzUxLjcwNTEiIHkyPSIyMzY0LjcwNTEiLz48bGluZSBzdHlsZT0ic3Ryb2tlOiNBODAwMzY7c3Ryb2tlLXdpZHRoOjEuMDsiIHgxPSIyMjkwLjUiIHgyPSIyMzMxLjUiIHkxPSIyMzY0LjcwNTEiIHkyPSIyMzY0LjcwNTEiLz48cG9seWdvbiBmaWxsPSIjQTgwMDM2IiBwb2ludHM9IjIzMDAuNSwyMzYwLjcwNTEsMjI5MC41LDIzNjQuNzA1MSwyMzAwLjUsMjM2OC43MDUxLDIyOTYuNSwyMzY0LjcwNTEiIHN0eWxlPSJzdHJva2U6I0E4MDAzNjtzdHJva2Utd2lkdGg6MS4wOyIvPjx0ZXh0IGZpbGw9IiMwMDAwMDAiIGZvbnQtZmFtaWx5PSJzYW5zLXNlcmlmIiBmb250LXNpemU9IjEzIiBsZW5ndGhBZGp1c3Q9InNwYWNpbmciIHRleHRMZW5ndGg9IjIxIiB4PSIyMjk2LjUiIHk9IjIzNDYuOTYyOSI+zrvihpI8L3RleHQ+PGxpbmUgc3R5bGU9InN0cm9rZTojQTgwMDM2O3N0cm9rZS13aWR0aDoxLjA7c3Ryb2tlLWRhc2hhcnJheToyLjAsMi4wOyIgeDE9IjIyODkuNSIgeDI9IjIzMzEuNSIgeTE9IjIzODguNzA1MSIgeTI9IjIzODguNzA1MSIvPjxsaW5lIHN0eWxlPSJzdHJva2U6I0E4MDAzNjtzdHJva2Utd2lkdGg6MS4wO3N0cm9rZS1kYXNoYXJyYXk6Mi4wLDIuMDsiIHgxPSIyMzMxLjUiIHgyPSIyMzMxLjUiIHkxPSIyMzg4LjcwNTEiIHkyPSIyNDAxLjcwNTEiLz48bGluZSBzdHlsZT0ic3Ryb2tlOiNBODAwMzY7c3Ryb2tlLXdpZHRoOjEuMDtzdHJva2UtZGFzaGFycmF5OjIuMCwyLjA7IiB4MT0iMjI4NC41IiB4Mj0iMjMzMS41IiB5MT0iMjQwMS43MDUxIiB5Mj0iMjQwMS43MDUxIi8+PHBvbHlnb24gZmlsbD0iI0E4MDAzNiIgcG9pbnRzPSIyMjk0LjUsMjM5Ny43MDUxLDIyODQuNSwyNDAxLjcwNTEsMjI5NC41LDI0MDUuNzA1MSwyMjkwLjUsMjQwMS43MDUxIiBzdHlsZT0ic3Ryb2tlOiNBODAwMzY7c3Ryb2tlLXdpZHRoOjEuMDsiLz48bGluZSBzdHlsZT0ic3Ryb2tlOiNBODAwMzY7c3Ryb2tlLXdpZHRoOjEuMDsiIHgxPSIyMjg0LjUiIHgyPSIyMzMxLjUiIHkxPSIyNDIxLjAxNTYiIHkyPSIyNDIxLjAxNTYiLz48bGluZSBzdHlsZT0ic3Ryb2tlOiNBODAwMzY7c3Ryb2tlLXdpZHRoOjEuMDsiIHgxPSIyMzMxLjUiIHgyPSIyMzMxLjUiIHkxPSIyNDIxLjAxNTYiIHkyPSIyNDM0LjAxNTYiLz48bGluZSBzdHlsZT0ic3Ryb2tlOiNBODAwMzY7c3Ryb2tlLXdpZHRoOjEuMDsiIHgxPSIyMjkwLjUiIHgyPSIyMzMxLjUiIHkxPSIyNDM0LjAxNTYiIHkyPSIyNDM0LjAxNTYiLz48cG9seWdvbiBmaWxsPSIjQTgwMDM2IiBwb2ludHM9IjIzMDAuNSwyNDMwLjAxNTYsMjI5MC41LDI0MzQuMDE1NiwyMzAwLjUsMjQzOC4wMTU2LDIyOTYuNSwyNDM0LjAxNTYiIHN0eWxlPSJzdHJva2U6I0E4MDAzNjtzdHJva2Utd2lkdGg6MS4wOyIvPjx0ZXh0IGZpbGw9IiMwMDAwMDAiIGZvbnQtZmFtaWx5PSJzYW5zLXNlcmlmIiBmb250LXNpemU9IjEzIiBsZW5ndGhBZGp1c3Q9InNwYWNpbmciIHRleHRMZW5ndGg9IjIxIiB4PSIyMjk2LjUiIHk9IjI0MTYuMjczNCI+zrvihpI8L3RleHQ+PGxpbmUgc3R5bGU9InN0cm9rZTojQTgwMDM2O3N0cm9rZS13aWR0aDoxLjA7c3Ryb2tlLWRhc2hhcnJheToyLjAsMi4wOyIgeDE9IjIyODkuNSIgeDI9IjIzMzEuNSIgeTE9IjI0NTguMDE1NiIgeTI9IjI0NTguMDE1NiIvPjxsaW5lIHN0eWxlPSJzdHJva2U6I0E4MDAzNjtzdHJva2Utd2lkdGg6MS4wO3N0cm9rZS1kYXNoYXJyYXk6Mi4wLDIuMDsiIHgxPSIyMzMxLjUiIHgyPSIyMzMxLjUiIHkxPSIyNDU4LjAxNTYiIHkyPSIyNDcxLjAxNTYiLz48bGluZSBzdHlsZT0ic3Ryb2tlOiNBODAwMzY7c3Ryb2tlLXdpZHRoOjEuMDtzdHJva2UtZGFzaGFycmF5OjIuMCwyLjA7IiB4MT0iMjI4NC41IiB4Mj0iMjMzMS41IiB5MT0iMjQ3MS4wMTU2IiB5Mj0iMjQ3MS4wMTU2Ii8+PHBvbHlnb24gZmlsbD0iI0E4MDAzNiIgcG9pbnRzPSIyMjk0LjUsMjQ2Ny4wMTU2LDIyODQuNSwyNDcxLjAxNTYsMjI5NC41LDI0NzUuMDE1NiwyMjkwLjUsMjQ3MS4wMTU2IiBzdHlsZT0ic3Ryb2tlOiNBODAwMzY7c3Ryb2tlLXdpZHRoOjEuMDsiLz48cG9seWdvbiBmaWxsPSIjQTgwMDM2IiBwb2ludHM9IjIyMS41LDI0NzYuMDE1NiwyMTEuNSwyNDgwLjAxNTYsMjIxLjUsMjQ4NC4wMTU2LDIxNy41LDI0ODAuMDE1NiIgc3R5bGU9InN0cm9rZTojQTgwMDM2O3N0cm9rZS13aWR0aDoxLjA7Ii8+PGxpbmUgc3R5bGU9InN0cm9rZTojQTgwMDM2O3N0cm9rZS13aWR0aDoxLjA7c3Ryb2tlLWRhc2hhcnJheToyLjAsMi4wOyIgeDE9IjIxNS41IiB4Mj0iMjI3OC41IiB5MT0iMjQ4MC4wMTU2IiB5Mj0iMjQ4MC4wMTU2Ii8+PHBvbHlnb24gZmlsbD0iI0E4MDAzNiIgcG9pbnRzPSI0My41LDI0OTAuMDE1NiwzMy41LDI0OTQuMDE1Niw0My41LDI0OTguMDE1NiwzOS41LDI0OTQuMDE1NiIgc3R5bGU9InN0cm9rZTojQTgwMDM2O3N0cm9rZS13aWR0aDoxLjA7Ii8+PGxpbmUgc3R5bGU9InN0cm9rZTojQTgwMDM2O3N0cm9rZS13aWR0aDoxLjA7c3Ryb2tlLWRhc2hhcnJheToyLjAsMi4wOyIgeDE9IjM3LjUiIHgyPSIyMDQuNSIgeTE9IjI0OTQuMDE1NiIgeTI9IjI0OTQuMDE1NiIvPjwhLS1NRDU9WzEyNWM5Zjc4N2JiZmVhM2ViNmQxZDQwZGQ4OTJjNzQ4XSYjeGE7QHN0YXJ0dW1sJiN4YTtwYXJ0aWNpcGFudCBBY3RvciYjeGE7QWN0b3IgLT4gQmFubmVyQ29udHJvbGxlciA6IHVwZGF0ZUJhbm5lclJlc291cmNlcyYjeGE7YWN0aXZhdGUgQmFubmVyQ29udHJvbGxlciYjeGE7QmFubmVyQ29udHJvbGxlciAtPiBJTXRrUmVzb3VyY2VWYWxpZGF0ZVNlcnZpY2UgOiB2YWxpZGF0ZUJhbm5lckRldGFpbCYjeGE7YWN0aXZhdGUgSU10a1Jlc291cmNlVmFsaWRhdGVTZXJ2aWNlJiN4YTtJTXRrUmVzb3VyY2VWYWxpZGF0ZVNlcnZpY2UgLT4gTXRrUmVzb3VyY2VWYWxpZGF0ZVNlcnZpY2VJbXBsIDogdmFsaWRhdGVCYW5uZXJEZXRhaWwmI3hhO2FjdGl2YXRlIE10a1Jlc291cmNlVmFsaWRhdGVTZXJ2aWNlSW1wbCYjeGE7TXRrUmVzb3VyY2VWYWxpZGF0ZVNlcnZpY2VJbXBsIC0+IElsbGVnYWxQYXJhbUV4Y2VwdGlvbiA6IG5ldyYjeGE7YWN0aXZhdGUgSWxsZWdhbFBhcmFtRXhjZXB0aW9uJiN4YTtJbGxlZ2FsUGFyYW1FeGNlcHRpb24gLSAtPiBNdGtSZXNvdXJjZVZhbGlkYXRlU2VydmljZUltcGwmI3hhO2RlYWN0aXZhdGUgSWxsZWdhbFBhcmFtRXhjZXB0aW9uJiN4YTtNdGtSZXNvdXJjZVZhbGlkYXRlU2VydmljZUltcGwgLT4gSWxsZWdhbFBhcmFtRXhjZXB0aW9uIDogbmV3JiN4YTthY3RpdmF0ZSBJbGxlZ2FsUGFyYW1FeGNlcHRpb24mI3hhO0lsbGVnYWxQYXJhbUV4Y2VwdGlvbiAtIC0+IE10a1Jlc291cmNlVmFsaWRhdGVTZXJ2aWNlSW1wbCYjeGE7ZGVhY3RpdmF0ZSBJbGxlZ2FsUGFyYW1FeGNlcHRpb24mI3hhO010a1Jlc291cmNlVmFsaWRhdGVTZXJ2aWNlSW1wbCAtPiBJbGxlZ2FsUGFyYW1FeGNlcHRpb24gOiBuZXcmI3hhO2FjdGl2YXRlIElsbGVnYWxQYXJhbUV4Y2VwdGlvbiYjeGE7SWxsZWdhbFBhcmFtRXhjZXB0aW9uIC0gLT4gTXRrUmVzb3VyY2VWYWxpZGF0ZVNlcnZpY2VJbXBsJiN4YTtkZWFjdGl2YXRlIElsbGVnYWxQYXJhbUV4Y2VwdGlvbiYjeGE7TXRrUmVzb3VyY2VWYWxpZGF0ZVNlcnZpY2VJbXBsIC0gLT4gSU10a1Jlc291cmNlVmFsaWRhdGVTZXJ2aWNlJiN4YTtkZWFjdGl2YXRlIE10a1Jlc291cmNlVmFsaWRhdGVTZXJ2aWNlSW1wbCYjeGE7SU10a1Jlc291cmNlVmFsaWRhdGVTZXJ2aWNlIC0gLT4gQmFubmVyQ29udHJvbGxlciYjeGE7ZGVhY3RpdmF0ZSBJTXRrUmVzb3VyY2VWYWxpZGF0ZVNlcnZpY2UmI3hhO0Jhbm5lckNvbnRyb2xsZXIgLT4gSUJhY2tlbmRSZXNvdXJjZVNlcnZpY2UgOiBnZXRHbG9iYWxOYW1lQnlSZXNvdXJjZSYjeGE7YWN0aXZhdGUgSUJhY2tlbmRSZXNvdXJjZVNlcnZpY2UmI3hhO0lCYWNrZW5kUmVzb3VyY2VTZXJ2aWNlIC0+IEJhY2tlbmRSZXNvdXJjZVNlcnZpY2VJbXBsIDogZ2V0R2xvYmFsTmFtZUJ5UmVzb3VyY2UmI3hhO2FjdGl2YXRlIEJhY2tlbmRSZXNvdXJjZVNlcnZpY2VJbXBsJiN4YTtCYWNrZW5kUmVzb3VyY2VTZXJ2aWNlSW1wbCAtPiBNa3RSZXNvdXJjZURhbyA6IGdldEdsb2JhbE5hbWVCeVJlc291cmNlJiN4YTthY3RpdmF0ZSBNa3RSZXNvdXJjZURhbyYjeGE7TWt0UmVzb3VyY2VEYW8gLSAtPiBCYWNrZW5kUmVzb3VyY2VTZXJ2aWNlSW1wbCYjeGE7ZGVhY3RpdmF0ZSBNa3RSZXNvdXJjZURhbyYjeGE7QmFja2VuZFJlc291cmNlU2VydmljZUltcGwgLSAtPiBJQmFja2VuZFJlc291cmNlU2VydmljZSYjeGE7ZGVhY3RpdmF0ZSBCYWNrZW5kUmVzb3VyY2VTZXJ2aWNlSW1wbCYjeGE7SUJhY2tlbmRSZXNvdXJjZVNlcnZpY2UgLSAtPiBCYW5uZXJDb250cm9sbGVyJiN4YTtkZWFjdGl2YXRlIElCYWNrZW5kUmVzb3VyY2VTZXJ2aWNlJiN4YTtCYW5uZXJDb250cm9sbGVyIC0+IE1hdGhVdGlsIDogaXNFdmVuTnVtYmVyJiN4YTthY3RpdmF0ZSBNYXRoVXRpbCYjeGE7TWF0aFV0aWwgLSAtPiBCYW5uZXJDb250cm9sbGVyJiN4YTtkZWFjdGl2YXRlIE1hdGhVdGlsJiN4YTtCYW5uZXJDb250cm9sbGVyIC0+IElsbGVnYWxQYXJhbUV4Y2VwdGlvbiA6IG5ldyYjeGE7YWN0aXZhdGUgSWxsZWdhbFBhcmFtRXhjZXB0aW9uJiN4YTtJbGxlZ2FsUGFyYW1FeGNlcHRpb24gLSAtPiBCYW5uZXJDb250cm9sbGVyJiN4YTtkZWFjdGl2YXRlIElsbGVnYWxQYXJhbUV4Y2VwdGlvbiYjeGE7QmFubmVyQ29udHJvbGxlciAtPiBCYW5uZXJDb250cm9sbGVyIDogzrvihpImI3hhO2FjdGl2YXRlIEJhbm5lckNvbnRyb2xsZXImI3hhO0Jhbm5lckNvbnRyb2xsZXIgLSAtPiBCYW5uZXJDb250cm9sbGVyJiN4YTtkZWFjdGl2YXRlIEJhbm5lckNvbnRyb2xsZXImI3hhO0Jhbm5lckNvbnRyb2xsZXIgLT4gSWxsZWdhbFBhcmFtRXhjZXB0aW9uIDogbmV3JiN4YTthY3RpdmF0ZSBJbGxlZ2FsUGFyYW1FeGNlcHRpb24mI3hhO0lsbGVnYWxQYXJhbUV4Y2VwdGlvbiAtIC0+IEJhbm5lckNvbnRyb2xsZXImI3hhO2RlYWN0aXZhdGUgSWxsZWdhbFBhcmFtRXhjZXB0aW9uJiN4YTtCYW5uZXJDb250cm9sbGVyIC0+IElNdGtSZXNvdXJjZVZhbGlkYXRlU2VydmljZSA6IGJhbm5lckFuZFJlc291cmNlVHlwZVZhbGlkYXRlJiN4YTthY3RpdmF0ZSBJTXRrUmVzb3VyY2VWYWxpZGF0ZVNlcnZpY2UmI3hhO0lNdGtSZXNvdXJjZVZhbGlkYXRlU2VydmljZSAtPiBNdGtSZXNvdXJjZVZhbGlkYXRlU2VydmljZUltcGwgOiBiYW5uZXJBbmRSZXNvdXJjZVR5cGVWYWxpZGF0ZSYjeGE7YWN0aXZhdGUgTXRrUmVzb3VyY2VWYWxpZGF0ZVNlcnZpY2VJbXBsJiN4YTtNdGtSZXNvdXJjZVZhbGlkYXRlU2VydmljZUltcGwgLT4gSWxsZWdhbFBhcmFtRXhjZXB0aW9uIDogbmV3JiN4YTthY3RpdmF0ZSBJbGxlZ2FsUGFyYW1FeGNlcHRpb24mI3hhO0lsbGVnYWxQYXJhbUV4Y2VwdGlvbiAtIC0+IE10a1Jlc291cmNlVmFsaWRhdGVTZXJ2aWNlSW1wbCYjeGE7ZGVhY3RpdmF0ZSBJbGxlZ2FsUGFyYW1FeGNlcHRpb24mI3hhO010a1Jlc291cmNlVmFsaWRhdGVTZXJ2aWNlSW1wbCAtPiBJbGxlZ2FsUGFyYW1FeGNlcHRpb24gOiBuZXcmI3hhO2FjdGl2YXRlIElsbGVnYWxQYXJhbUV4Y2VwdGlvbiYjeGE7SWxsZWdhbFBhcmFtRXhjZXB0aW9uIC0gLT4gTXRrUmVzb3VyY2VWYWxpZGF0ZVNlcnZpY2VJbXBsJiN4YTtkZWFjdGl2YXRlIElsbGVnYWxQYXJhbUV4Y2VwdGlvbiYjeGE7TXRrUmVzb3VyY2VWYWxpZGF0ZVNlcnZpY2VJbXBsIC0+IE10a1Jlc291cmNlVmFsaWRhdGVTZXJ2aWNlSW1wbCA6IGlzQmFubmVydHlwZUVxdWFsc1Jlc291cmNlVHlwZSYjeGE7YWN0aXZhdGUgTXRrUmVzb3VyY2VWYWxpZGF0ZVNlcnZpY2VJbXBsJiN4YTtNdGtSZXNvdXJjZVZhbGlkYXRlU2VydmljZUltcGwgLSAtPiBNdGtSZXNvdXJjZVZhbGlkYXRlU2VydmljZUltcGwmI3hhO2RlYWN0aXZhdGUgTXRrUmVzb3VyY2VWYWxpZGF0ZVNlcnZpY2VJbXBsJiN4YTtNdGtSZXNvdXJjZVZhbGlkYXRlU2VydmljZUltcGwgLT4gSWxsZWdhbFBhcmFtRXhjZXB0aW9uIDogbmV3JiN4YTthY3RpdmF0ZSBJbGxlZ2FsUGFyYW1FeGNlcHRpb24mI3hhO0lsbGVnYWxQYXJhbUV4Y2VwdGlvbiAtIC0+IE10a1Jlc291cmNlVmFsaWRhdGVTZXJ2aWNlSW1wbCYjeGE7ZGVhY3RpdmF0ZSBJbGxlZ2FsUGFyYW1FeGNlcHRpb24mI3hhO010a1Jlc291cmNlVmFsaWRhdGVTZXJ2aWNlSW1wbCAtPiBNdGtSZXNvdXJjZVZhbGlkYXRlU2VydmljZUltcGwgOiB2YWxpZFRpbWVTdGFtcCYjeGE7YWN0aXZhdGUgTXRrUmVzb3VyY2VWYWxpZGF0ZVNlcnZpY2VJbXBsJiN4YTtNdGtSZXNvdXJjZVZhbGlkYXRlU2VydmljZUltcGwgLSAtPiBNdGtSZXNvdXJjZVZhbGlkYXRlU2VydmljZUltcGwmI3hhO2RlYWN0aXZhdGUgTXRrUmVzb3VyY2VWYWxpZGF0ZVNlcnZpY2VJbXBsJiN4YTtNdGtSZXNvdXJjZVZhbGlkYXRlU2VydmljZUltcGwgLT4gSWxsZWdhbFBhcmFtRXhjZXB0aW9uIDogbmV3JiN4YTthY3RpdmF0ZSBJbGxlZ2FsUGFyYW1FeGNlcHRpb24mI3hhO0lsbGVnYWxQYXJhbUV4Y2VwdGlvbiAtIC0+IE10a1Jlc291cmNlVmFsaWRhdGVTZXJ2aWNlSW1wbCYjeGE7ZGVhY3RpdmF0ZSBJbGxlZ2FsUGFyYW1FeGNlcHRpb24mI3hhO010a1Jlc291cmNlVmFsaWRhdGVTZXJ2aWNlSW1wbCAtPiBNdGtSZXNvdXJjZVZhbGlkYXRlU2VydmljZUltcGwgOiB2YWxpZFRpbWVTdGFtcCYjeGE7YWN0aXZhdGUgTXRrUmVzb3VyY2VWYWxpZGF0ZVNlcnZpY2VJbXBsJiN4YTtNdGtSZXNvdXJjZVZhbGlkYXRlU2VydmljZUltcGwgLSAtPiBNdGtSZXNvdXJjZVZhbGlkYXRlU2VydmljZUltcGwmI3hhO2RlYWN0aXZhdGUgTXRrUmVzb3VyY2VWYWxpZGF0ZVNlcnZpY2VJbXBsJiN4YTtNdGtSZXNvdXJjZVZhbGlkYXRlU2VydmljZUltcGwgLT4gSWxsZWdhbFBhcmFtRXhjZXB0aW9uIDogbmV3JiN4YTthY3RpdmF0ZSBJbGxlZ2FsUGFyYW1FeGNlcHRpb24mI3hhO0lsbGVnYWxQYXJhbUV4Y2VwdGlvbiAtIC0+IE10a1Jlc291cmNlVmFsaWRhdGVTZXJ2aWNlSW1wbCYjeGE7ZGVhY3RpdmF0ZSBJbGxlZ2FsUGFyYW1FeGNlcHRpb24mI3hhO010a1Jlc291cmNlVmFsaWRhdGVTZXJ2aWNlSW1wbCAtIC0+IElNdGtSZXNvdXJjZVZhbGlkYXRlU2VydmljZSYjeGE7ZGVhY3RpdmF0ZSBNdGtSZXNvdXJjZVZhbGlkYXRlU2VydmljZUltcGwmI3hhO0lNdGtSZXNvdXJjZVZhbGlkYXRlU2VydmljZSAtIC0+IEJhbm5lckNvbnRyb2xsZXImI3hhO2RlYWN0aXZhdGUgSU10a1Jlc291cmNlVmFsaWRhdGVTZXJ2aWNlJiN4YTtCYW5uZXJDb250cm9sbGVyIC0+IElNdGtSZXNvdXJjZVZhbGlkYXRlU2VydmljZSA6IHZhbGlkYXRlTWt0UmVzb3VyY2VEYXRhJiN4YTthY3RpdmF0ZSBJTXRrUmVzb3VyY2VWYWxpZGF0ZVNlcnZpY2UmI3hhO0lNdGtSZXNvdXJjZVZhbGlkYXRlU2VydmljZSAtPiBNdGtSZXNvdXJjZVZhbGlkYXRlU2VydmljZUltcGwgOiB2YWxpZGF0ZU1rdFJlc291cmNlRGF0YSYjeGE7YWN0aXZhdGUgTXRrUmVzb3VyY2VWYWxpZGF0ZVNlcnZpY2VJbXBsJiN4YTtNdGtSZXNvdXJjZVZhbGlkYXRlU2VydmljZUltcGwgLT4gTXRrUmVzb3VyY2VWYWxpZGF0ZVNlcnZpY2VJbXBsIDogdmFsaWRhdGVJbWFnZVJlc291cmNlJiN4YTthY3RpdmF0ZSBNdGtSZXNvdXJjZVZhbGlkYXRlU2VydmljZUltcGwmI3hhO010a1Jlc291cmNlVmFsaWRhdGVTZXJ2aWNlSW1wbCAtPiBJbGxlZ2FsUGFyYW1FeGNlcHRpb24gOiBuZXcmI3hhO2FjdGl2YXRlIElsbGVnYWxQYXJhbUV4Y2VwdGlvbiYjeGE7SWxsZWdhbFBhcmFtRXhjZXB0aW9uIC0gLT4gTXRrUmVzb3VyY2VWYWxpZGF0ZVNlcnZpY2VJbXBsJiN4YTtkZWFjdGl2YXRlIElsbGVnYWxQYXJhbUV4Y2VwdGlvbiYjeGE7TXRrUmVzb3VyY2VWYWxpZGF0ZVNlcnZpY2VJbXBsIC0+IElsbGVnYWxQYXJhbUV4Y2VwdGlvbiA6IG5ldyYjeGE7YWN0aXZhdGUgSWxsZWdhbFBhcmFtRXhjZXB0aW9uJiN4YTtJbGxlZ2FsUGFyYW1FeGNlcHRpb24gLSAtPiBNdGtSZXNvdXJjZVZhbGlkYXRlU2VydmljZUltcGwmI3hhO2RlYWN0aXZhdGUgSWxsZWdhbFBhcmFtRXhjZXB0aW9uJiN4YTtNdGtSZXNvdXJjZVZhbGlkYXRlU2VydmljZUltcGwgLSAtPiBNdGtSZXNvdXJjZVZhbGlkYXRlU2VydmljZUltcGwmI3hhO2RlYWN0aXZhdGUgTXRrUmVzb3VyY2VWYWxpZGF0ZVNlcnZpY2VJbXBsJiN4YTtNdGtSZXNvdXJjZVZhbGlkYXRlU2VydmljZUltcGwgLT4gTXRrUmVzb3VyY2VWYWxpZGF0ZVNlcnZpY2VJbXBsIDogdmFsaWRhdGVUZXh0UmVzb3VyY2UmI3hhO2FjdGl2YXRlIE10a1Jlc291cmNlVmFsaWRhdGVTZXJ2aWNlSW1wbCYjeGE7TXRrUmVzb3VyY2VWYWxpZGF0ZVNlcnZpY2VJbXBsIC0+IElsbGVnYWxQYXJhbUV4Y2VwdGlvbiA6IG5ldyYjeGE7YWN0aXZhdGUgSWxsZWdhbFBhcmFtRXhjZXB0aW9uJiN4YTtJbGxlZ2FsUGFyYW1FeGNlcHRpb24gLSAtPiBNdGtSZXNvdXJjZVZhbGlkYXRlU2VydmljZUltcGwmI3hhO2RlYWN0aXZhdGUgSWxsZWdhbFBhcmFtRXhjZXB0aW9uJiN4YTtNdGtSZXNvdXJjZVZhbGlkYXRlU2VydmljZUltcGwgLT4gSWxsZWdhbFBhcmFtRXhjZXB0aW9uIDogbmV3JiN4YTthY3RpdmF0ZSBJbGxlZ2FsUGFyYW1FeGNlcHRpb24mI3hhO0lsbGVnYWxQYXJhbUV4Y2VwdGlvbiAtIC0+IE10a1Jlc291cmNlVmFsaWRhdGVTZXJ2aWNlSW1wbCYjeGE7ZGVhY3RpdmF0ZSBJbGxlZ2FsUGFyYW1FeGNlcHRpb24mI3hhO010a1Jlc291cmNlVmFsaWRhdGVTZXJ2aWNlSW1wbCAtIC0+IE10a1Jlc291cmNlVmFsaWRhdGVTZXJ2aWNlSW1wbCYjeGE7ZGVhY3RpdmF0ZSBNdGtSZXNvdXJjZVZhbGlkYXRlU2VydmljZUltcGwmI3hhO010a1Jlc291cmNlVmFsaWRhdGVTZXJ2aWNlSW1wbCAtPiBNdGtSZXNvdXJjZVZhbGlkYXRlU2VydmljZUltcGwgOiB2YWxpZGF0ZVByb2R1Y3RSZXNvdXJjZSYjeGE7YWN0aXZhdGUgTXRrUmVzb3VyY2VWYWxpZGF0ZVNlcnZpY2VJbXBsJiN4YTtNdGtSZXNvdXJjZVZhbGlkYXRlU2VydmljZUltcGwgLT4gSWxsZWdhbFBhcmFtRXhjZXB0aW9uIDogbmV3JiN4YTthY3RpdmF0ZSBJbGxlZ2FsUGFyYW1FeGNlcHRpb24mI3hhO0lsbGVnYWxQYXJhbUV4Y2VwdGlvbiAtIC0+IE10a1Jlc291cmNlVmFsaWRhdGVTZXJ2aWNlSW1wbCYjeGE7ZGVhY3RpdmF0ZSBJbGxlZ2FsUGFyYW1FeGNlcHRpb24mI3hhO010a1Jlc291cmNlVmFsaWRhdGVTZXJ2aWNlSW1wbCAtPiBJbGxlZ2FsUGFyYW1FeGNlcHRpb24gOiBuZXcmI3hhO2FjdGl2YXRlIElsbGVnYWxQYXJhbUV4Y2VwdGlvbiYjeGE7SWxsZWdhbFBhcmFtRXhjZXB0aW9uIC0gLT4gTXRrUmVzb3VyY2VWYWxpZGF0ZVNlcnZpY2VJbXBsJiN4YTtkZWFjdGl2YXRlIElsbGVnYWxQYXJhbUV4Y2VwdGlvbiYjeGE7TXRrUmVzb3VyY2VWYWxpZGF0ZVNlcnZpY2VJbXBsIC0gLT4gTXRrUmVzb3VyY2VWYWxpZGF0ZVNlcnZpY2VJbXBsJiN4YTtkZWFjdGl2YXRlIE10a1Jlc291cmNlVmFsaWRhdGVTZXJ2aWNlSW1wbCYjeGE7TXRrUmVzb3VyY2VWYWxpZGF0ZVNlcnZpY2VJbXBsIC0gLT4gSU10a1Jlc291cmNlVmFsaWRhdGVTZXJ2aWNlJiN4YTtkZWFjdGl2YXRlIE10a1Jlc291cmNlVmFsaWRhdGVTZXJ2aWNlSW1wbCYjeGE7SU10a1Jlc291cmNlVmFsaWRhdGVTZXJ2aWNlIC0gLT4gQmFubmVyQ29udHJvbGxlciYjeGE7ZGVhY3RpdmF0ZSBJTXRrUmVzb3VyY2VWYWxpZGF0ZVNlcnZpY2UmI3hhO0Jhbm5lckNvbnRyb2xsZXIgLT4gQmFubmVyQ29udHJvbGxlciA6IM674oaSJiN4YTthY3RpdmF0ZSBCYW5uZXJDb250cm9sbGVyJiN4YTtCYW5uZXJDb250cm9sbGVyIC0+IElCYWNrZW5kUmVzb3VyY2VTZXJ2aWNlIDogY29udmVydDJNa3RSZXNvdXJjZU1vZGVsJiN4YTthY3RpdmF0ZSBJQmFja2VuZFJlc291cmNlU2VydmljZSYjeGE7SUJhY2tlbmRSZXNvdXJjZVNlcnZpY2UgLT4gQmFja2VuZFJlc291cmNlU2VydmljZUltcGwgOiBjb252ZXJ0Mk1rdFJlc291cmNlTW9kZWwmI3hhO2FjdGl2YXRlIEJhY2tlbmRSZXNvdXJjZVNlcnZpY2VJbXBsJiN4YTtCYWNrZW5kUmVzb3VyY2VTZXJ2aWNlSW1wbCAtPiBCYWNrZW5kUmVzb3VyY2VTZXJ2aWNlSW1wbCA6IM674oaSJiN4YTthY3RpdmF0ZSBCYWNrZW5kUmVzb3VyY2VTZXJ2aWNlSW1wbCYjeGE7QmFja2VuZFJlc291cmNlU2VydmljZUltcGwgLT4gUHJvZHVjdER0byA6IG5ldyYjeGE7YWN0aXZhdGUgUHJvZHVjdER0byYjeGE7UHJvZHVjdER0byAtIC0+IEJhY2tlbmRSZXNvdXJjZVNlcnZpY2VJbXBsJiN4YTtkZWFjdGl2YXRlIFByb2R1Y3REdG8mI3hhO0JhY2tlbmRSZXNvdXJjZVNlcnZpY2VJbXBsIC0gLT4gQmFja2VuZFJlc291cmNlU2VydmljZUltcGwmI3hhO2RlYWN0aXZhdGUgQmFja2VuZFJlc291cmNlU2VydmljZUltcGwmI3hhO0JhY2tlbmRSZXNvdXJjZVNlcnZpY2VJbXBsIC0+IEV4dGVuc2lvbkNvbnRlbnQgOiBuZXcmI3hhO2FjdGl2YXRlIEV4dGVuc2lvbkNvbnRlbnQmI3hhO0V4dGVuc2lvbkNvbnRlbnQgLSAtPiBCYWNrZW5kUmVzb3VyY2VTZXJ2aWNlSW1wbCYjeGE7ZGVhY3RpdmF0ZSBFeHRlbnNpb25Db250ZW50JiN4YTtCYWNrZW5kUmVzb3VyY2VTZXJ2aWNlSW1wbCAtPiBKc29uVXRpbHMgOiB0b0pzb25TdHJpbmcmI3hhO2FjdGl2YXRlIEpzb25VdGlscyYjeGE7SnNvblV0aWxzIC0gLT4gQmFja2VuZFJlc291cmNlU2VydmljZUltcGwmI3hhO2RlYWN0aXZhdGUgSnNvblV0aWxzJiN4YTtCYWNrZW5kUmVzb3VyY2VTZXJ2aWNlSW1wbCAtPiBSZXNvdXJjZURldGFpbER0byA6IHRvU3RyaW5nJiN4YTthY3RpdmF0ZSBSZXNvdXJjZURldGFpbER0byYjeGE7UmVzb3VyY2VEZXRhaWxEdG8gLSAtPiBCYWNrZW5kUmVzb3VyY2VTZXJ2aWNlSW1wbCYjeGE7ZGVhY3RpdmF0ZSBSZXNvdXJjZURldGFpbER0byYjeGE7QmFja2VuZFJlc291cmNlU2VydmljZUltcGwgLSAtPiBJQmFja2VuZFJlc291cmNlU2VydmljZSYjeGE7ZGVhY3RpdmF0ZSBCYWNrZW5kUmVzb3VyY2VTZXJ2aWNlSW1wbCYjeGE7SUJhY2tlbmRSZXNvdXJjZVNlcnZpY2UgLSAtPiBCYW5uZXJDb250cm9sbGVyJiN4YTtkZWFjdGl2YXRlIElCYWNrZW5kUmVzb3VyY2VTZXJ2aWNlJiN4YTtCYW5uZXJDb250cm9sbGVyIC0gLT4gQmFubmVyQ29udHJvbGxlciYjeGE7ZGVhY3RpdmF0ZSBCYW5uZXJDb250cm9sbGVyJiN4YTtCYW5uZXJDb250cm9sbGVyIC0+IElCYWNrZW5kUmVzb3VyY2VTZXJ2aWNlIDogdXBkYXRlTWt0QmFubmVyUmVzb3VyY2UmI3hhO2FjdGl2YXRlIElCYWNrZW5kUmVzb3VyY2VTZXJ2aWNlJiN4YTtJQmFja2VuZFJlc291cmNlU2VydmljZSAtPiBCYWNrZW5kUmVzb3VyY2VTZXJ2aWNlSW1wbCA6IHVwZGF0ZU1rdEJhbm5lclJlc291cmNlJiN4YTthY3RpdmF0ZSBCYWNrZW5kUmVzb3VyY2VTZXJ2aWNlSW1wbCYjeGE7QmFja2VuZFJlc291cmNlU2VydmljZUltcGwgLT4gTWt0UmVzb3VyY2VEYW8gOiBpbnNlcnRTZWxlY3RpdmUmI3hhO2FjdGl2YXRlIE1rdFJlc291cmNlRGFvJiN4YTtNa3RSZXNvdXJjZURhbyAtIC0+IEJhY2tlbmRSZXNvdXJjZVNlcnZpY2VJbXBsJiN4YTtkZWFjdGl2YXRlIE1rdFJlc291cmNlRGFvJiN4YTtCYWNrZW5kUmVzb3VyY2VTZXJ2aWNlSW1wbCAtPiBNa3RSZXNvdXJjZURhbyA6IHVwZGF0ZUJ5UHJpbWFyeUtleVNlbGVjdGl2ZSYjeGE7YWN0aXZhdGUgTWt0UmVzb3VyY2VEYW8mI3hhO01rdFJlc291cmNlRGFvIC0gLT4gQmFja2VuZFJlc291cmNlU2VydmljZUltcGwmI3hhO2RlYWN0aXZhdGUgTWt0UmVzb3VyY2VEYW8mI3hhO0JhY2tlbmRSZXNvdXJjZVNlcnZpY2VJbXBsIC0gLT4gSUJhY2tlbmRSZXNvdXJjZVNlcnZpY2UmI3hhO2RlYWN0aXZhdGUgQmFja2VuZFJlc291cmNlU2VydmljZUltcGwmI3hhO0lCYWNrZW5kUmVzb3VyY2VTZXJ2aWNlIC0gLT4gQmFubmVyQ29udHJvbGxlciYjeGE7ZGVhY3RpdmF0ZSBJQmFja2VuZFJlc291cmNlU2VydmljZSYjeGE7QmFubmVyQ29udHJvbGxlciAtPiBCYWNrZW5kQmFubmVyU2VydmljZUltcGwgOiBpbml0TW9iaWxlU2VhcmNoQWR2ZXJ0aXNlRm9yUmVkaXMmI3hhO2FjdGl2YXRlIEJhY2tlbmRCYW5uZXJTZXJ2aWNlSW1wbCYjeGE7QmFja2VuZEJhbm5lclNlcnZpY2VJbXBsIC0+IE1rdFJlc291cmNlRGFvIDogZ2V0UmVzb3VyY2VCeUdsb2JhbE5hbWUmI3hhO2FjdGl2YXRlIE1rdFJlc291cmNlRGFvJiN4YTtNa3RSZXNvdXJjZURhbyAtIC0+IEJhY2tlbmRCYW5uZXJTZXJ2aWNlSW1wbCYjeGE7ZGVhY3RpdmF0ZSBNa3RSZXNvdXJjZURhbyYjeGE7QmFja2VuZEJhbm5lclNlcnZpY2VJbXBsIC0+IEJhY2tlbmRCYW5uZXJTZXJ2aWNlSW1wbCA6IM674oaSJiN4YTthY3RpdmF0ZSBCYWNrZW5kQmFubmVyU2VydmljZUltcGwmI3hhO0JhY2tlbmRCYW5uZXJTZXJ2aWNlSW1wbCAtIC0+IEJhY2tlbmRCYW5uZXJTZXJ2aWNlSW1wbCYjeGE7ZGVhY3RpdmF0ZSBCYWNrZW5kQmFubmVyU2VydmljZUltcGwmI3hhO0JhY2tlbmRCYW5uZXJTZXJ2aWNlSW1wbCAtPiBCYWNrZW5kQmFubmVyU2VydmljZUltcGwgOiDOu+KGkiYjeGE7YWN0aXZhdGUgQmFja2VuZEJhbm5lclNlcnZpY2VJbXBsJiN4YTtCYWNrZW5kQmFubmVyU2VydmljZUltcGwgLSAtPiBCYWNrZW5kQmFubmVyU2VydmljZUltcGwmI3hhO2RlYWN0aXZhdGUgQmFja2VuZEJhbm5lclNlcnZpY2VJbXBsJiN4YTtCYWNrZW5kQmFubmVyU2VydmljZUltcGwgLSAtPiBCYW5uZXJDb250cm9sbGVyJiN4YTtkZWFjdGl2YXRlIEJhY2tlbmRCYW5uZXJTZXJ2aWNlSW1wbCYjeGE7cmV0dXJuJiN4YTtAZW5kdW1sJiN4YTsmI3hhO1BsYW50VU1MIHZlcnNpb24gMS4yMDIxLjE0KFNhdCBOb3YgMTMgMDA6NDY6NTAgQ1NUIDIwMjEpJiN4YTsoR1BMIHNvdXJjZSBkaXN0cmlidXRpb24pJiN4YTtKYXZhIFJ1bnRpbWU6IEphdmEoVE0pIFNFIFJ1bnRpbWUgRW52aXJvbm1lbnQmI3hhO0pWTTogSmF2YSBIb3RTcG90KFRNKSA2NC1CaXQgU2VydmVyIFZNJiN4YTtEZWZhdWx0IEVuY29kaW5nOiBVVEYtOCYjeGE7TGFuZ3VhZ2U6IHpoJiN4YTtDb3VudHJ5OiBDTiYjeGE7LS0+PC9nPjwvc3ZnPg==;" parent="1" vertex="1">
          <mxGeometry width="3780" height="4044.43" as="geometry" />
        </mxCell>
        <mxCell id="WbOLNXkEZ9ARh_T5q9lp-5" value="dto为空" style="text;html=1;strokeColor=none;fillColor=none;align=center;verticalAlign=middle;whiteSpace=wrap;rounded=0;" parent="1" vertex="1">
          <mxGeometry x="1170" y="221" width="130" height="20" as="geometry" />
        </mxCell>
        <mxCell id="WbOLNXkEZ9ARh_T5q9lp-7" value="bannerId为空" style="text;html=1;strokeColor=none;fillColor=none;align=center;verticalAlign=middle;whiteSpace=wrap;rounded=0;" parent="1" vertex="1">
          <mxGeometry x="1170" y="290" width="130" height="20" as="geometry" />
        </mxCell>
        <mxCell id="WbOLNXkEZ9ARh_T5q9lp-8" value="广告类型不匹配" style="text;html=1;strokeColor=none;fillColor=none;align=center;verticalAlign=middle;whiteSpace=wrap;rounded=0;" parent="1" vertex="1">
          <mxGeometry x="1170" y="360" width="130" height="20" as="geometry" />
        </mxCell>
        <mxCell id="WbOLNXkEZ9ARh_T5q9lp-9" value="验证成功" style="text;html=1;strokeColor=none;fillColor=none;align=center;verticalAlign=middle;whiteSpace=wrap;rounded=0;" parent="1" vertex="1">
          <mxGeometry x="836" y="394" width="80" height="30" as="geometry" />
        </mxCell>
        <mxCell id="WbOLNXkEZ9ARh_T5q9lp-12" value="更新单个广告位banner的资源" style="text;html=1;strokeColor=none;fillColor=none;align=center;verticalAlign=middle;whiteSpace=wrap;rounded=0;" parent="1" vertex="1">
          <mxGeometry x="93" y="116" width="160" height="20" as="geometry" />
        </mxCell>
        <mxCell id="WbOLNXkEZ9ARh_T5q9lp-14" value="验证提交的数据" style="text;html=1;strokeColor=none;fillColor=none;align=center;verticalAlign=middle;whiteSpace=wrap;rounded=0;" parent="1" vertex="1">
          <mxGeometry x="401" y="160" width="150" height="30" as="geometry" />
        </mxCell>
        <mxCell id="WbOLNXkEZ9ARh_T5q9lp-15" value="验证失败，抛异常" style="text;html=1;strokeColor=none;fillColor=none;align=center;verticalAlign=middle;whiteSpace=wrap;rounded=0;" parent="1" vertex="1">
          <mxGeometry x="1390" y="201" width="100" height="40" as="geometry" />
        </mxCell>
        <mxCell id="7C6DVKjoM1voIIh-nEnI-2" value="根据bannerId获取广告的globalName用于判断是否是首页搜索的广告位" style="text;html=1;strokeColor=none;fillColor=none;align=center;verticalAlign=middle;whiteSpace=wrap;rounded=0;" vertex="1" parent="1">
          <mxGeometry x="1110" y="500" width="200" height="40" as="geometry" />
        </mxCell>
        <mxCell id="7C6DVKjoM1voIIh-nEnI-3" value="首页搜索广告位需要判定广告位位置是否都是偶数" style="text;html=1;strokeColor=none;fillColor=none;align=center;verticalAlign=middle;whiteSpace=wrap;rounded=0;" vertex="1" parent="1">
          <mxGeometry x="500" y="670" width="150" height="30" as="geometry" />
        </mxCell>
        <mxCell id="7C6DVKjoM1voIIh-nEnI-4" value="广告位位置不是偶数抛异常" style="text;html=1;strokeColor=none;fillColor=none;align=center;verticalAlign=middle;whiteSpace=wrap;rounded=0;" vertex="1" parent="1">
          <mxGeometry x="560" y="746" width="80" height="20" as="geometry" />
        </mxCell>
        <mxCell id="7C6DVKjoM1voIIh-nEnI-5" value="判断是否是首页iconV2的广告位" style="text;html=1;strokeColor=none;fillColor=none;align=center;verticalAlign=middle;whiteSpace=wrap;rounded=0;" vertex="1" parent="1">
          <mxGeometry x="421" y="830" width="110" height="20" as="geometry" />
        </mxCell>
        <mxCell id="7C6DVKjoM1voIIh-nEnI-6" value="如果是首页iconV2的广告位，icon数量少于配置的数量时，抛异常" style="text;html=1;strokeColor=none;fillColor=none;align=center;verticalAlign=middle;whiteSpace=wrap;rounded=0;" vertex="1" parent="1">
          <mxGeometry x="421" y="893" width="119" height="40" as="geometry" />
        </mxCell>
        <mxCell id="7C6DVKjoM1voIIh-nEnI-7" value="banner数据以及资源类型验证" style="text;html=1;strokeColor=none;fillColor=none;align=center;verticalAlign=middle;whiteSpace=wrap;rounded=0;" vertex="1" parent="1">
          <mxGeometry x="430" y="1040" width="100" height="20" as="geometry" />
        </mxCell>
        <mxCell id="7C6DVKjoM1voIIh-nEnI-8" value="dto为空" style="text;html=1;strokeColor=none;fillColor=none;align=center;verticalAlign=middle;whiteSpace=wrap;rounded=0;" vertex="1" parent="1">
          <mxGeometry x="1160" y="1090" width="130" height="20" as="geometry" />
        </mxCell>
        <mxCell id="7C6DVKjoM1voIIh-nEnI-9" value="验证成功" style="text;html=1;strokeColor=none;fillColor=none;align=center;verticalAlign=middle;whiteSpace=wrap;rounded=0;" vertex="1" parent="1">
          <mxGeometry x="800" y="1740" width="130" height="20" as="geometry" />
        </mxCell>
        <mxCell id="7C6DVKjoM1voIIh-nEnI-10" value="验证失败，抛异常" style="text;html=1;strokeColor=none;fillColor=none;align=center;verticalAlign=middle;whiteSpace=wrap;rounded=0;" vertex="1" parent="1">
          <mxGeometry x="1375" y="1050" width="130" height="20" as="geometry" />
        </mxCell>
        <mxCell id="7C6DVKjoM1voIIh-nEnI-11" value="资源数据为空" style="text;html=1;strokeColor=none;fillColor=none;align=center;verticalAlign=middle;whiteSpace=wrap;rounded=0;" vertex="1" parent="1">
          <mxGeometry x="1160" y="1160" width="130" height="20" as="geometry" />
        </mxCell>
        <mxCell id="7C6DVKjoM1voIIh-nEnI-12" value="广告位类型与资源类型不匹配" style="text;html=1;strokeColor=none;fillColor=none;align=center;verticalAlign=middle;whiteSpace=wrap;rounded=0;" vertex="1" parent="1">
          <mxGeometry x="1180" y="1250" width="90" height="20" as="geometry" />
        </mxCell>
        <mxCell id="7C6DVKjoM1voIIh-nEnI-13" value="开始时间设定有问题" style="text;html=1;strokeColor=none;fillColor=none;align=center;verticalAlign=middle;whiteSpace=wrap;rounded=0;" vertex="1" parent="1">
          <mxGeometry x="1200" y="1430" width="70" height="20" as="geometry" />
        </mxCell>
        <mxCell id="7C6DVKjoM1voIIh-nEnI-14" value="结束时间设定有问题" style="text;html=1;strokeColor=none;fillColor=none;align=center;verticalAlign=middle;whiteSpace=wrap;rounded=0;" vertex="1" parent="1">
          <mxGeometry x="1200" y="1610" width="70" height="20" as="geometry" />
        </mxCell>
        <mxCell id="7C6DVKjoM1voIIh-nEnI-15" value="资源数据验证" style="text;html=1;strokeColor=none;fillColor=none;align=center;verticalAlign=middle;whiteSpace=wrap;rounded=0;" vertex="1" parent="1">
          <mxGeometry x="410" y="1850" width="100" height="20" as="geometry" />
        </mxCell>
        <mxCell id="7C6DVKjoM1voIIh-nEnI-16" value="图片资源验证" style="text;html=1;strokeColor=none;fillColor=none;align=center;verticalAlign=middle;whiteSpace=wrap;rounded=0;" vertex="1" parent="1">
          <mxGeometry x="1175" y="1920" width="100" height="20" as="geometry" />
        </mxCell>
        <mxCell id="7C6DVKjoM1voIIh-nEnI-17" value="文本资源验证" style="text;html=1;strokeColor=none;fillColor=none;align=center;verticalAlign=middle;whiteSpace=wrap;rounded=0;" vertex="1" parent="1">
          <mxGeometry x="1170" y="2170" width="100" height="20" as="geometry" />
        </mxCell>
        <mxCell id="7C6DVKjoM1voIIh-nEnI-18" value="产品资源验证" style="text;html=1;strokeColor=none;fillColor=none;align=center;verticalAlign=middle;whiteSpace=wrap;rounded=0;" vertex="1" parent="1">
          <mxGeometry x="1160" y="2420" width="100" height="20" as="geometry" />
        </mxCell>
        <mxCell id="7C6DVKjoM1voIIh-nEnI-19" value="验证失败，抛异常" style="text;html=1;strokeColor=none;fillColor=none;align=center;verticalAlign=middle;whiteSpace=wrap;rounded=0;" vertex="1" parent="1">
          <mxGeometry x="1370" y="1890" width="130" height="20" as="geometry" />
        </mxCell>
        <mxCell id="7C6DVKjoM1voIIh-nEnI-21" value="验证成功" style="text;html=1;strokeColor=none;fillColor=none;align=center;verticalAlign=middle;whiteSpace=wrap;rounded=0;" vertex="1" parent="1">
          <mxGeometry x="786" y="2630" width="130" height="20" as="geometry" />
        </mxCell>
        <mxCell id="7C6DVKjoM1voIIh-nEnI-22" value="设置MktResourceModel的参数" style="text;html=1;strokeColor=none;fillColor=none;align=center;verticalAlign=middle;whiteSpace=wrap;rounded=0;" vertex="1" parent="1">
          <mxGeometry x="449" y="2720" width="170" height="40" as="geometry" />
        </mxCell>
        <mxCell id="7C6DVKjoM1voIIh-nEnI-23" value="更新数据库中的Banner Resource" style="text;html=1;strokeColor=none;fillColor=none;align=center;verticalAlign=middle;whiteSpace=wrap;rounded=0;" vertex="1" parent="1">
          <mxGeometry x="421" y="3301" width="109" height="20" as="geometry" />
        </mxCell>
        <mxCell id="7C6DVKjoM1voIIh-nEnI-24" value="新的resource插入" style="text;html=1;strokeColor=none;fillColor=none;align=center;verticalAlign=middle;whiteSpace=wrap;rounded=0;" vertex="1" parent="1">
          <mxGeometry x="2140" y="3411" width="100" height="10" as="geometry" />
        </mxCell>
        <mxCell id="7C6DVKjoM1voIIh-nEnI-25" value="更新已存在的resource" style="text;html=1;strokeColor=none;fillColor=none;align=center;verticalAlign=middle;whiteSpace=wrap;rounded=0;" vertex="1" parent="1">
          <mxGeometry x="2200" y="3470" width="100" height="40" as="geometry" />
        </mxCell>
        <mxCell id="7C6DVKjoM1voIIh-nEnI-26" value="初始化手机端搜索广告位的缓存" style="text;html=1;strokeColor=none;fillColor=none;align=center;verticalAlign=middle;whiteSpace=wrap;rounded=0;" vertex="1" parent="1">
          <mxGeometry x="440" y="3640" width="110" height="30" as="geometry" />
        </mxCell>
      </root>
    </mxGraphModel>
  </diagram>
</mxfile>
